%TF.GenerationSoftware,KiCad,Pcbnew,(6.0.11)*%
%TF.CreationDate,2023-11-05T18:47:01-08:00*%
%TF.ProjectId,keyboard,6b657962-6f61-4726-942e-6b696361645f,rev?*%
%TF.SameCoordinates,Original*%
%TF.FileFunction,Profile,NP*%
%FSLAX46Y46*%
G04 Gerber Fmt 4.6, Leading zero omitted, Abs format (unit mm)*
G04 Created by KiCad (PCBNEW (6.0.11)) date 2023-11-05 18:47:01*
%MOMM*%
%LPD*%
G01*
G04 APERTURE LIST*
%TA.AperFunction,Profile*%
%ADD10C,0.050000*%
%TD*%
G04 APERTURE END LIST*
D10*
X20320000Y-81534000D02*
X22606000Y-80264000D01*
X100863400Y-182575200D02*
G75*
G03*
X100863400Y-182575200I-3300000J0D01*
G01*
X105079800Y-194792600D02*
G75*
G03*
X105079800Y-194792600I-3300000J0D01*
G01*
X392176000Y-204470000D02*
X22098000Y-204470000D01*
X175260000Y-66040000D02*
X132080000Y-66040000D01*
X373964200Y-194741800D02*
G75*
G03*
X373964200Y-194741800I-3300000J0D01*
G01*
X20320000Y-202438000D02*
X20320000Y-81534000D01*
X368563000Y-182372000D02*
G75*
G03*
X368563000Y-182372000I-4200000J0D01*
G01*
X393700000Y-81534000D02*
X393700000Y-202692000D01*
X101879400Y-137642600D02*
G75*
G03*
X101879400Y-137642600I-3300000J0D01*
G01*
X391922000Y-80264000D02*
X393700000Y-81534000D01*
X200101200Y-90043000D02*
G75*
G03*
X200101200Y-90043000I-3300000J0D01*
G01*
X109956600Y-89992200D02*
G75*
G03*
X109956600Y-89992200I-3300000J0D01*
G01*
X22098000Y-204470000D02*
X20320000Y-202438000D01*
X190144400Y-194792600D02*
G75*
G03*
X190144400Y-194792600I-3300000J0D01*
G01*
X250393200Y-140106400D02*
G75*
G03*
X250393200Y-140106400I-3300000J0D01*
G01*
X276199600Y-194868800D02*
G75*
G03*
X276199600Y-194868800I-3300000J0D01*
G01*
X210134200Y-89941400D02*
G75*
G03*
X210134200Y-89941400I-3300000J0D01*
G01*
X174015400Y-140182600D02*
G75*
G03*
X174015400Y-140182600I-3300000J0D01*
G01*
X43076400Y-198045801D02*
G75*
G03*
X43076400Y-198045801I-3300000J0D01*
G01*
X175260000Y-80264000D02*
X391922000Y-80264000D01*
X286537400Y-90017600D02*
G75*
G03*
X286537400Y-90017600I-3300000J0D01*
G01*
X307898800Y-140208000D02*
G75*
G03*
X307898800Y-140208000I-3300000J0D01*
G01*
X33477200Y-156210000D02*
G75*
G03*
X33477200Y-156210000I-3300000J0D01*
G01*
X132080000Y-80264000D02*
X22606000Y-80264000D01*
X393700000Y-202692000D02*
X392176000Y-204470000D01*
X369316000Y-89916000D02*
G75*
G03*
X369316000Y-89916000I-3300000J0D01*
G01*
X132080000Y-66040000D02*
X132080000Y-80264000D01*
X175260000Y-66040000D02*
X175260000Y-80264000D01*
X31775400Y-89992200D02*
G75*
G03*
X31775400Y-89992200I-3300000J0D01*
G01*
X389610600Y-137566400D02*
G75*
G03*
X389610600Y-137566400I-3300000J0D01*
G01*
M02*
