%TF.GenerationSoftware,KiCad,Pcbnew,(6.0.11)*%
%TF.CreationDate,2023-11-05T18:47:01-08:00*%
%TF.ProjectId,keyboard,6b657962-6f61-4726-942e-6b696361645f,rev?*%
%TF.SameCoordinates,Original*%
%TF.FileFunction,Legend,Top*%
%TF.FilePolarity,Positive*%
%FSLAX46Y46*%
G04 Gerber Fmt 4.6, Leading zero omitted, Abs format (unit mm)*
G04 Created by KiCad (PCBNEW (6.0.11)) date 2023-11-05 18:47:01*
%MOMM*%
%LPD*%
G01*
G04 APERTURE LIST*
%ADD10C,0.250000*%
%ADD11C,0.150000*%
%ADD12C,0.120000*%
G04 APERTURE END LIST*
D10*
X344176339Y-90740238D02*
X344039434Y-90692619D01*
X343801339Y-90692619D01*
X343700148Y-90740238D01*
X343646577Y-90787857D01*
X343587053Y-90883095D01*
X343575148Y-90978333D01*
X343610863Y-91073571D01*
X343652529Y-91121190D01*
X343741815Y-91168809D01*
X343926339Y-91216428D01*
X344015625Y-91264047D01*
X344057291Y-91311666D01*
X344093005Y-91406904D01*
X344081101Y-91502142D01*
X344021577Y-91597380D01*
X343968005Y-91645000D01*
X343866815Y-91692619D01*
X343628720Y-91692619D01*
X343491815Y-91645000D01*
X342747767Y-90740238D02*
X342848958Y-90692619D01*
X343039434Y-90692619D01*
X343128720Y-90740238D01*
X343170386Y-90787857D01*
X343206101Y-90883095D01*
X343170386Y-91168809D01*
X343110863Y-91264047D01*
X343057291Y-91311666D01*
X342956101Y-91359285D01*
X342765625Y-91359285D01*
X342676339Y-91311666D01*
X342325148Y-90692619D02*
X342200148Y-91692619D01*
X341896577Y-90692619D02*
X341831101Y-91216428D01*
X341866815Y-91311666D01*
X341956101Y-91359285D01*
X342098958Y-91359285D01*
X342200148Y-91311666D01*
X342253720Y-91264047D01*
X341337053Y-91359285D02*
X341420386Y-90692619D01*
X341348958Y-91264047D02*
X341295386Y-91311666D01*
X341194196Y-91359285D01*
X341051339Y-91359285D01*
X340962053Y-91311666D01*
X340926339Y-91216428D01*
X340991815Y-90692619D01*
X340128720Y-90740238D02*
X340229910Y-90692619D01*
X340420386Y-90692619D01*
X340509672Y-90740238D01*
X340545386Y-90835476D01*
X340497767Y-91216428D01*
X340438244Y-91311666D01*
X340337053Y-91359285D01*
X340146577Y-91359285D01*
X340057291Y-91311666D01*
X340021577Y-91216428D01*
X340033482Y-91121190D01*
X340521577Y-91025952D01*
X339658482Y-90692619D02*
X339575148Y-91359285D01*
X339533482Y-91692619D02*
X339587053Y-91645000D01*
X339545386Y-91597380D01*
X339491815Y-91645000D01*
X339533482Y-91692619D01*
X339545386Y-91597380D01*
X338753720Y-90692619D02*
X338628720Y-91692619D01*
X338747767Y-90740238D02*
X338848958Y-90692619D01*
X339039434Y-90692619D01*
X339128720Y-90740238D01*
X339170386Y-90787857D01*
X339206101Y-90883095D01*
X339170386Y-91168809D01*
X339110863Y-91264047D01*
X339057291Y-91311666D01*
X338956101Y-91359285D01*
X338765625Y-91359285D01*
X338676339Y-91311666D01*
X337890625Y-90740238D02*
X337991815Y-90692619D01*
X338182291Y-90692619D01*
X338271577Y-90740238D01*
X338307291Y-90835476D01*
X338259672Y-91216428D01*
X338200148Y-91311666D01*
X338098958Y-91359285D01*
X337908482Y-91359285D01*
X337819196Y-91311666D01*
X337783482Y-91216428D01*
X337795386Y-91121190D01*
X338283482Y-91025952D01*
X337420386Y-90692619D02*
X337337053Y-91359285D01*
X337360863Y-91168809D02*
X337301339Y-91264047D01*
X337247767Y-91311666D01*
X337146577Y-91359285D01*
X337051339Y-91359285D01*
X335973958Y-91216428D02*
X335640625Y-91216428D01*
X335563244Y-90692619D02*
X336039434Y-90692619D01*
X335914434Y-91692619D01*
X335438244Y-91692619D01*
X334622767Y-91359285D02*
X334706101Y-90692619D01*
X335051339Y-91359285D02*
X335116815Y-90835476D01*
X335081101Y-90740238D01*
X334991815Y-90692619D01*
X334848958Y-90692619D01*
X334747767Y-90740238D01*
X334694196Y-90787857D01*
X334229910Y-90692619D02*
X334146577Y-91359285D01*
X334170386Y-91168809D02*
X334110863Y-91264047D01*
X334057291Y-91311666D01*
X333956101Y-91359285D01*
X333860863Y-91359285D01*
X333468005Y-90692619D02*
X333557291Y-90740238D01*
X333598958Y-90787857D01*
X333634672Y-90883095D01*
X333598958Y-91168809D01*
X333539434Y-91264047D01*
X333485863Y-91311666D01*
X333384672Y-91359285D01*
X333241815Y-91359285D01*
X333152529Y-91311666D01*
X333110863Y-91264047D01*
X333075148Y-91168809D01*
X333110863Y-90883095D01*
X333170386Y-90787857D01*
X333223958Y-90740238D01*
X333325148Y-90692619D01*
X333468005Y-90692619D01*
X331944196Y-90692619D02*
X331819196Y-91692619D01*
X331438244Y-91692619D01*
X331348958Y-91645000D01*
X331307291Y-91597380D01*
X331271577Y-91502142D01*
X331289434Y-91359285D01*
X331348958Y-91264047D01*
X331402529Y-91216428D01*
X331503720Y-91168809D01*
X331884672Y-91168809D01*
X330360863Y-90787857D02*
X330414434Y-90740238D01*
X330563244Y-90692619D01*
X330658482Y-90692619D01*
X330795386Y-90740238D01*
X330878720Y-90835476D01*
X330914434Y-90930714D01*
X330938244Y-91121190D01*
X330920386Y-91264047D01*
X330848958Y-91454523D01*
X330789434Y-91549761D01*
X330682291Y-91645000D01*
X330533482Y-91692619D01*
X330438244Y-91692619D01*
X330301339Y-91645000D01*
X330259672Y-91597380D01*
X329104910Y-91692619D02*
X329128720Y-91502142D01*
X328723958Y-91692619D02*
X328747767Y-91502142D01*
X327765625Y-90597380D02*
X327854910Y-90645000D01*
X327938244Y-90740238D01*
X328063244Y-90883095D01*
X328152529Y-90930714D01*
X328247767Y-90930714D01*
X328229910Y-90692619D02*
X328319196Y-90740238D01*
X328402529Y-90835476D01*
X328426339Y-91025952D01*
X328384672Y-91359285D01*
X328313244Y-91549761D01*
X328206101Y-91645000D01*
X328104910Y-91692619D01*
X327914434Y-91692619D01*
X327825148Y-91645000D01*
X327741815Y-91549761D01*
X327718005Y-91359285D01*
X327759672Y-91025952D01*
X327831101Y-90835476D01*
X327938244Y-90740238D01*
X328039434Y-90692619D01*
X328229910Y-90692619D01*
X326860863Y-91359285D02*
X326944196Y-90692619D01*
X327289434Y-91359285D02*
X327354910Y-90835476D01*
X327319196Y-90740238D01*
X327229910Y-90692619D01*
X327087053Y-90692619D01*
X326985863Y-90740238D01*
X326932291Y-90787857D01*
X326468005Y-90692619D02*
X326384672Y-91359285D01*
X326343005Y-91692619D02*
X326396577Y-91645000D01*
X326354910Y-91597380D01*
X326301339Y-91645000D01*
X326343005Y-91692619D01*
X326354910Y-91597380D01*
X325557291Y-90740238D02*
X325658482Y-90692619D01*
X325848958Y-90692619D01*
X325938244Y-90740238D01*
X325979910Y-90787857D01*
X326015625Y-90883095D01*
X325979910Y-91168809D01*
X325920386Y-91264047D01*
X325866815Y-91311666D01*
X325765625Y-91359285D01*
X325575148Y-91359285D01*
X325485863Y-91311666D01*
X325134672Y-90692619D02*
X325009672Y-91692619D01*
X324991815Y-91073571D02*
X324753720Y-90692619D01*
X324670386Y-91359285D02*
X325098958Y-90978333D01*
X322753720Y-90692619D02*
X322801339Y-90692619D01*
X322890625Y-90740238D01*
X323015625Y-90883095D01*
X323218005Y-91168809D01*
X323295386Y-91311666D01*
X323325148Y-91454523D01*
X323313244Y-91549761D01*
X323253720Y-91645000D01*
X323152529Y-91692619D01*
X323104910Y-91692619D01*
X323015625Y-91645000D01*
X322979910Y-91549761D01*
X322985863Y-91502142D01*
X323045386Y-91406904D01*
X323098958Y-91359285D01*
X323408482Y-91168809D01*
X323462053Y-91121190D01*
X323521577Y-91025952D01*
X323539434Y-90883095D01*
X323503720Y-90787857D01*
X323462053Y-90740238D01*
X323372767Y-90692619D01*
X323229910Y-90692619D01*
X323128720Y-90740238D01*
X323075148Y-90787857D01*
X322908482Y-90978333D01*
X322843005Y-91121190D01*
X322831101Y-91216428D01*
X321563244Y-90692619D02*
X321438244Y-91692619D01*
X321200148Y-91692619D01*
X321063244Y-91645000D01*
X320979910Y-91549761D01*
X320944196Y-91454523D01*
X320920386Y-91264047D01*
X320938244Y-91121190D01*
X321009672Y-90930714D01*
X321069196Y-90835476D01*
X321176339Y-90740238D01*
X321325148Y-90692619D01*
X321563244Y-90692619D01*
X320563244Y-90692619D02*
X320479910Y-91359285D01*
X320438244Y-91692619D02*
X320491815Y-91645000D01*
X320450148Y-91597380D01*
X320396577Y-91645000D01*
X320438244Y-91692619D01*
X320450148Y-91597380D01*
X320087053Y-90692619D02*
X320003720Y-91359285D01*
X320027529Y-91168809D02*
X319968005Y-91264047D01*
X319914434Y-91311666D01*
X319813244Y-91359285D01*
X319718005Y-91359285D01*
X319527529Y-91359285D02*
X319146577Y-91359285D01*
X319343005Y-91692619D02*
X319450148Y-90835476D01*
X319414434Y-90740238D01*
X319325148Y-90692619D01*
X319229910Y-90692619D01*
X318908482Y-91359285D02*
X318753720Y-90692619D01*
X318432291Y-91359285D02*
X318753720Y-90692619D01*
X318878720Y-90454523D01*
X318932291Y-90406904D01*
X319033482Y-90359285D01*
X318057291Y-91692619D02*
X318081101Y-91502142D01*
X317676339Y-91692619D02*
X317700148Y-91502142D01*
X316610863Y-90692619D02*
X316485863Y-91692619D01*
X316039434Y-90692619D02*
X316396577Y-91264047D01*
X315914434Y-91692619D02*
X316557291Y-91121190D01*
X315223958Y-90740238D02*
X315325148Y-90692619D01*
X315515625Y-90692619D01*
X315604910Y-90740238D01*
X315640625Y-90835476D01*
X315593005Y-91216428D01*
X315533482Y-91311666D01*
X315432291Y-91359285D01*
X315241815Y-91359285D01*
X315152529Y-91311666D01*
X315116815Y-91216428D01*
X315128720Y-91121190D01*
X315616815Y-91025952D01*
X314765625Y-91359285D02*
X314610863Y-90692619D01*
X314289434Y-91359285D02*
X314610863Y-90692619D01*
X314735863Y-90454523D01*
X314789434Y-90406904D01*
X314890625Y-90359285D01*
X313991815Y-90692619D02*
X313866815Y-91692619D01*
X313914434Y-91311666D02*
X313813244Y-91359285D01*
X313622767Y-91359285D01*
X313533482Y-91311666D01*
X313491815Y-91264047D01*
X313456101Y-91168809D01*
X313491815Y-90883095D01*
X313551339Y-90787857D01*
X313604910Y-90740238D01*
X313706101Y-90692619D01*
X313896577Y-90692619D01*
X313985863Y-90740238D01*
X312944196Y-90692619D02*
X313033482Y-90740238D01*
X313075148Y-90787857D01*
X313110863Y-90883095D01*
X313075148Y-91168809D01*
X313015625Y-91264047D01*
X312962053Y-91311666D01*
X312860863Y-91359285D01*
X312718005Y-91359285D01*
X312628720Y-91311666D01*
X312587053Y-91264047D01*
X312551339Y-91168809D01*
X312587053Y-90883095D01*
X312646577Y-90787857D01*
X312700148Y-90740238D01*
X312801339Y-90692619D01*
X312944196Y-90692619D01*
X311753720Y-90692619D02*
X311688244Y-91216428D01*
X311723958Y-91311666D01*
X311813244Y-91359285D01*
X312003720Y-91359285D01*
X312104910Y-91311666D01*
X311747767Y-90740238D02*
X311848958Y-90692619D01*
X312087053Y-90692619D01*
X312176339Y-90740238D01*
X312212053Y-90835476D01*
X312200148Y-90930714D01*
X312140625Y-91025952D01*
X312039434Y-91073571D01*
X311801339Y-91073571D01*
X311700148Y-91121190D01*
X311277529Y-90692619D02*
X311194196Y-91359285D01*
X311218005Y-91168809D02*
X311158482Y-91264047D01*
X311104910Y-91311666D01*
X311003720Y-91359285D01*
X310908482Y-91359285D01*
X310229910Y-90692619D02*
X310104910Y-91692619D01*
X310223958Y-90740238D02*
X310325148Y-90692619D01*
X310515625Y-90692619D01*
X310604910Y-90740238D01*
X310646577Y-90787857D01*
X310682291Y-90883095D01*
X310646577Y-91168809D01*
X310587053Y-91264047D01*
X310533482Y-91311666D01*
X310432291Y-91359285D01*
X310241815Y-91359285D01*
X310152529Y-91311666D01*
X308420386Y-90692619D02*
X308694196Y-91168809D01*
X308991815Y-90692619D02*
X308866815Y-91692619D01*
X308485863Y-91692619D01*
X308396577Y-91645000D01*
X308354910Y-91597380D01*
X308319196Y-91502142D01*
X308337053Y-91359285D01*
X308396577Y-91264047D01*
X308450148Y-91216428D01*
X308551339Y-91168809D01*
X308932291Y-91168809D01*
X307604910Y-90740238D02*
X307706101Y-90692619D01*
X307896577Y-90692619D01*
X307985863Y-90740238D01*
X308021577Y-90835476D01*
X307973958Y-91216428D01*
X307914434Y-91311666D01*
X307813244Y-91359285D01*
X307622767Y-91359285D01*
X307533482Y-91311666D01*
X307497767Y-91216428D01*
X307509672Y-91121190D01*
X307997767Y-91025952D01*
X307051339Y-91359285D02*
X307176339Y-90359285D01*
X307057291Y-91311666D02*
X306956101Y-91359285D01*
X306765625Y-91359285D01*
X306676339Y-91311666D01*
X306634672Y-91264047D01*
X306598958Y-91168809D01*
X306634672Y-90883095D01*
X306694196Y-90787857D01*
X306747767Y-90740238D01*
X306848958Y-90692619D01*
X307039434Y-90692619D01*
X307128720Y-90740238D01*
X306087053Y-90692619D02*
X306176339Y-90740238D01*
X306212053Y-90835476D01*
X306104910Y-91692619D01*
X305277529Y-90692619D02*
X305212053Y-91216428D01*
X305247767Y-91311666D01*
X305337053Y-91359285D01*
X305527529Y-91359285D01*
X305628720Y-91311666D01*
X305271577Y-90740238D02*
X305372767Y-90692619D01*
X305610863Y-90692619D01*
X305700148Y-90740238D01*
X305735863Y-90835476D01*
X305723958Y-90930714D01*
X305664434Y-91025952D01*
X305563244Y-91073571D01*
X305325148Y-91073571D01*
X305223958Y-91121190D01*
X304366815Y-90740238D02*
X304468005Y-90692619D01*
X304658482Y-90692619D01*
X304747767Y-90740238D01*
X304789434Y-90787857D01*
X304825148Y-90883095D01*
X304789434Y-91168809D01*
X304729910Y-91264047D01*
X304676339Y-91311666D01*
X304575148Y-91359285D01*
X304384672Y-91359285D01*
X304295386Y-91311666D01*
X303557291Y-90740238D02*
X303658482Y-90692619D01*
X303848958Y-90692619D01*
X303938244Y-90740238D01*
X303973958Y-90835476D01*
X303926339Y-91216428D01*
X303866815Y-91311666D01*
X303765625Y-91359285D01*
X303575148Y-91359285D01*
X303485863Y-91311666D01*
X303450148Y-91216428D01*
X303462053Y-91121190D01*
X303950148Y-91025952D01*
X303087053Y-90692619D02*
X303003720Y-91359285D01*
X303015625Y-91264047D02*
X302962053Y-91311666D01*
X302860863Y-91359285D01*
X302718005Y-91359285D01*
X302628720Y-91311666D01*
X302593005Y-91216428D01*
X302658482Y-90692619D01*
X302593005Y-91216428D02*
X302533482Y-91311666D01*
X302432291Y-91359285D01*
X302289434Y-91359285D01*
X302200148Y-91311666D01*
X302164434Y-91216428D01*
X302229910Y-90692619D01*
X301366815Y-90740238D02*
X301468005Y-90692619D01*
X301658482Y-90692619D01*
X301747767Y-90740238D01*
X301783482Y-90835476D01*
X301735863Y-91216428D01*
X301676339Y-91311666D01*
X301575148Y-91359285D01*
X301384672Y-91359285D01*
X301295386Y-91311666D01*
X301259672Y-91216428D01*
X301271577Y-91121190D01*
X301759672Y-91025952D01*
X300813244Y-91359285D02*
X300896577Y-90692619D01*
X300825148Y-91264047D02*
X300771577Y-91311666D01*
X300670386Y-91359285D01*
X300527529Y-91359285D01*
X300438244Y-91311666D01*
X300402529Y-91216428D01*
X300468005Y-90692619D01*
X300051339Y-91359285D02*
X299670386Y-91359285D01*
X299866815Y-91692619D02*
X299973958Y-90835476D01*
X299938244Y-90740238D01*
X299848958Y-90692619D01*
X299753720Y-90692619D01*
X298658482Y-90692619D02*
X298533482Y-91692619D01*
X298152529Y-91692619D01*
X298063244Y-91645000D01*
X298021577Y-91597380D01*
X297985863Y-91502142D01*
X298003720Y-91359285D01*
X298063244Y-91264047D01*
X298116815Y-91216428D01*
X298218005Y-91168809D01*
X298598958Y-91168809D01*
X297075148Y-90787857D02*
X297128720Y-90740238D01*
X297277529Y-90692619D01*
X297372767Y-90692619D01*
X297509672Y-90740238D01*
X297593005Y-90835476D01*
X297628720Y-90930714D01*
X297652529Y-91121190D01*
X297634672Y-91264047D01*
X297563244Y-91454523D01*
X297503720Y-91549761D01*
X297396577Y-91645000D01*
X297247767Y-91692619D01*
X297152529Y-91692619D01*
X297015625Y-91645000D01*
X296973958Y-91597380D01*
X296259672Y-91216428D02*
X296122767Y-91168809D01*
X296081101Y-91121190D01*
X296045386Y-91025952D01*
X296063244Y-90883095D01*
X296122767Y-90787857D01*
X296176339Y-90740238D01*
X296277529Y-90692619D01*
X296658482Y-90692619D01*
X296533482Y-91692619D01*
X296200148Y-91692619D01*
X296110863Y-91645000D01*
X296069196Y-91597380D01*
X296033482Y-91502142D01*
X296045386Y-91406904D01*
X296104910Y-91311666D01*
X296158482Y-91264047D01*
X296259672Y-91216428D01*
X296593005Y-91216428D01*
X332158482Y-89844523D02*
X332247767Y-89892142D01*
X332438244Y-89892142D01*
X332539434Y-89844523D01*
X332646577Y-89749285D01*
X332706101Y-89654047D01*
X332729910Y-89463571D01*
X332694196Y-89368333D01*
X332610863Y-89273095D01*
X332521577Y-89225476D01*
X332331101Y-89225476D01*
X332229910Y-89273095D01*
X332301339Y-90225476D02*
X332545386Y-90177857D01*
X332801339Y-90035000D01*
X332973958Y-89796904D01*
X333051339Y-89558809D01*
X333033482Y-89320714D01*
X332920386Y-89082619D01*
X332700148Y-88939761D01*
X332468005Y-88892142D01*
X332223958Y-88939761D01*
X331968005Y-89082619D01*
X331795386Y-89320714D01*
X331718005Y-89558809D01*
X331735863Y-89796904D01*
X331848958Y-90035000D01*
X332069196Y-90177857D01*
X332301339Y-90225476D01*
X330176339Y-90082619D02*
X330265625Y-89368333D01*
X330331101Y-89225476D01*
X330438244Y-89130238D01*
X330587053Y-89082619D01*
X330682291Y-89082619D01*
X329396577Y-89082619D02*
X329331101Y-89606428D01*
X329366815Y-89701666D01*
X329456101Y-89749285D01*
X329646577Y-89749285D01*
X329747767Y-89701666D01*
X329390625Y-89130238D02*
X329491815Y-89082619D01*
X329729910Y-89082619D01*
X329819196Y-89130238D01*
X329854910Y-89225476D01*
X329843005Y-89320714D01*
X329783482Y-89415952D01*
X329682291Y-89463571D01*
X329444196Y-89463571D01*
X329343005Y-89511190D01*
X328837053Y-89749285D02*
X328920386Y-89082619D01*
X328848958Y-89654047D02*
X328795386Y-89701666D01*
X328694196Y-89749285D01*
X328551339Y-89749285D01*
X328462053Y-89701666D01*
X328426339Y-89606428D01*
X328491815Y-89082619D01*
X327503720Y-89749285D02*
X327587053Y-89082619D01*
X327932291Y-89749285D02*
X327997767Y-89225476D01*
X327962053Y-89130238D01*
X327872767Y-89082619D01*
X327729910Y-89082619D01*
X327628720Y-89130238D01*
X327575148Y-89177857D01*
X326682291Y-89082619D02*
X326616815Y-89606428D01*
X326652529Y-89701666D01*
X326741815Y-89749285D01*
X326932291Y-89749285D01*
X327033482Y-89701666D01*
X326676339Y-89130238D02*
X326777529Y-89082619D01*
X327015625Y-89082619D01*
X327104910Y-89130238D01*
X327140625Y-89225476D01*
X327128720Y-89320714D01*
X327069196Y-89415952D01*
X326968005Y-89463571D01*
X326729910Y-89463571D01*
X326628720Y-89511190D01*
X326206101Y-89082619D02*
X326122767Y-89749285D01*
X326146577Y-89558809D02*
X326087053Y-89654047D01*
X326033482Y-89701666D01*
X325932291Y-89749285D01*
X325837053Y-89749285D01*
X325598958Y-89749285D02*
X325444196Y-89082619D01*
X325122767Y-89749285D02*
X325444196Y-89082619D01*
X325569196Y-88844523D01*
X325622767Y-88796904D01*
X325723958Y-88749285D01*
X323997767Y-89987380D02*
X323944196Y-90035000D01*
X323843005Y-90082619D01*
X323604910Y-90082619D01*
X323515625Y-90035000D01*
X323473958Y-89987380D01*
X323438244Y-89892142D01*
X323450148Y-89796904D01*
X323515625Y-89654047D01*
X324158482Y-89082619D01*
X323539434Y-89082619D01*
X322795386Y-90082619D02*
X322700148Y-90082619D01*
X322610863Y-90035000D01*
X322569196Y-89987380D01*
X322533482Y-89892142D01*
X322509672Y-89701666D01*
X322539434Y-89463571D01*
X322610863Y-89273095D01*
X322670386Y-89177857D01*
X322723958Y-89130238D01*
X322825148Y-89082619D01*
X322920386Y-89082619D01*
X323009672Y-89130238D01*
X323051339Y-89177857D01*
X323087053Y-89273095D01*
X323110863Y-89463571D01*
X323081101Y-89701666D01*
X323009672Y-89892142D01*
X322950148Y-89987380D01*
X322896577Y-90035000D01*
X322795386Y-90082619D01*
X322093005Y-89987380D02*
X322039434Y-90035000D01*
X321938244Y-90082619D01*
X321700148Y-90082619D01*
X321610863Y-90035000D01*
X321569196Y-89987380D01*
X321533482Y-89892142D01*
X321545386Y-89796904D01*
X321610863Y-89654047D01*
X322253720Y-89082619D01*
X321634672Y-89082619D01*
X321176339Y-90082619D02*
X320557291Y-90082619D01*
X320938244Y-89701666D01*
X320795386Y-89701666D01*
X320706101Y-89654047D01*
X320664434Y-89606428D01*
X320628720Y-89511190D01*
X320658482Y-89273095D01*
X320718005Y-89177857D01*
X320771577Y-89130238D01*
X320872767Y-89082619D01*
X321158482Y-89082619D01*
X321247767Y-89130238D01*
X321289434Y-89177857D01*
X319491815Y-89082619D02*
X319366815Y-90082619D01*
X319414434Y-89701666D02*
X319313244Y-89749285D01*
X319122767Y-89749285D01*
X319033482Y-89701666D01*
X318991815Y-89654047D01*
X318956101Y-89558809D01*
X318991815Y-89273095D01*
X319051339Y-89177857D01*
X319104910Y-89130238D01*
X319206101Y-89082619D01*
X319396577Y-89082619D01*
X319485863Y-89130238D01*
X318598958Y-89749285D02*
X318444196Y-89082619D01*
X318122767Y-89749285D02*
X318444196Y-89082619D01*
X318569196Y-88844523D01*
X318622767Y-88796904D01*
X318723958Y-88749285D01*
X316587053Y-89082619D02*
X317063244Y-89082619D01*
X316938244Y-90082619D01*
X315825148Y-89082619D02*
X315759672Y-89606428D01*
X315795386Y-89701666D01*
X315884672Y-89749285D01*
X316075148Y-89749285D01*
X316176339Y-89701666D01*
X315819196Y-89130238D02*
X315920386Y-89082619D01*
X316158482Y-89082619D01*
X316247767Y-89130238D01*
X316283482Y-89225476D01*
X316271577Y-89320714D01*
X316212053Y-89415952D01*
X316110863Y-89463571D01*
X315872767Y-89463571D01*
X315771577Y-89511190D01*
X315348958Y-89082619D02*
X315265625Y-89749285D01*
X315277529Y-89654047D02*
X315223958Y-89701666D01*
X315122767Y-89749285D01*
X314979910Y-89749285D01*
X314890625Y-89701666D01*
X314854910Y-89606428D01*
X314920386Y-89082619D01*
X314854910Y-89606428D02*
X314795386Y-89701666D01*
X314694196Y-89749285D01*
X314551339Y-89749285D01*
X314462053Y-89701666D01*
X314426339Y-89606428D01*
X314491815Y-89082619D01*
X314015625Y-89082619D02*
X313890625Y-90082619D01*
X313938244Y-89701666D02*
X313837053Y-89749285D01*
X313646577Y-89749285D01*
X313557291Y-89701666D01*
X313515625Y-89654047D01*
X313479910Y-89558809D01*
X313515625Y-89273095D01*
X313575148Y-89177857D01*
X313628720Y-89130238D01*
X313729910Y-89082619D01*
X313920386Y-89082619D01*
X314009672Y-89130238D01*
X312682291Y-89082619D02*
X312557291Y-90082619D01*
X312676339Y-89130238D02*
X312777529Y-89082619D01*
X312968005Y-89082619D01*
X313057291Y-89130238D01*
X313098958Y-89177857D01*
X313134672Y-89273095D01*
X313098958Y-89558809D01*
X313039434Y-89654047D01*
X312985863Y-89701666D01*
X312884672Y-89749285D01*
X312694196Y-89749285D01*
X312604910Y-89701666D01*
X311777529Y-89082619D02*
X311712053Y-89606428D01*
X311747767Y-89701666D01*
X311837053Y-89749285D01*
X312027529Y-89749285D01*
X312128720Y-89701666D01*
X311771577Y-89130238D02*
X311872767Y-89082619D01*
X312110863Y-89082619D01*
X312200148Y-89130238D01*
X312235863Y-89225476D01*
X312223958Y-89320714D01*
X312164434Y-89415952D01*
X312063244Y-89463571D01*
X311825148Y-89463571D01*
X311723958Y-89511190D01*
X311301339Y-89082619D02*
X311176339Y-90082619D01*
X310932291Y-89368333D01*
X310509672Y-90082619D01*
X310634672Y-89082619D01*
X310158482Y-89082619D02*
X310075148Y-89749285D01*
X310033482Y-90082619D02*
X310087053Y-90035000D01*
X310045386Y-89987380D01*
X309991815Y-90035000D01*
X310033482Y-90082619D01*
X310045386Y-89987380D01*
X309682291Y-89082619D02*
X309557291Y-90082619D01*
X309539434Y-89463571D02*
X309301339Y-89082619D01*
X309218005Y-89749285D02*
X309646577Y-89368333D01*
X308485863Y-89130238D02*
X308587053Y-89082619D01*
X308777529Y-89082619D01*
X308866815Y-89130238D01*
X308902529Y-89225476D01*
X308854910Y-89606428D01*
X308795386Y-89701666D01*
X308694196Y-89749285D01*
X308503720Y-89749285D01*
X308414434Y-89701666D01*
X308378720Y-89606428D01*
X308390625Y-89511190D01*
X308878720Y-89415952D01*
X307872767Y-89082619D02*
X307962053Y-89130238D01*
X307997767Y-89225476D01*
X307890625Y-90082619D01*
X332920386Y-87472619D02*
X332795386Y-88472619D01*
X332491815Y-87472619D02*
X332426339Y-87996428D01*
X332462053Y-88091666D01*
X332551339Y-88139285D01*
X332694196Y-88139285D01*
X332795386Y-88091666D01*
X332848958Y-88044047D01*
X332075148Y-88139285D02*
X331694196Y-88139285D01*
X331890625Y-88472619D02*
X331997767Y-87615476D01*
X331962053Y-87520238D01*
X331872767Y-87472619D01*
X331777529Y-87472619D01*
X331503720Y-88139285D02*
X331122767Y-88139285D01*
X331319196Y-88472619D02*
X331426339Y-87615476D01*
X331390625Y-87520238D01*
X331301339Y-87472619D01*
X331206101Y-87472619D01*
X330789434Y-88139285D02*
X330914434Y-87139285D01*
X330795386Y-88091666D02*
X330694196Y-88139285D01*
X330503720Y-88139285D01*
X330414434Y-88091666D01*
X330372767Y-88044047D01*
X330337053Y-87948809D01*
X330372767Y-87663095D01*
X330432291Y-87567857D01*
X330485863Y-87520238D01*
X330587053Y-87472619D01*
X330777529Y-87472619D01*
X330866815Y-87520238D01*
X330009672Y-87520238D02*
X329920386Y-87472619D01*
X329729910Y-87472619D01*
X329628720Y-87520238D01*
X329569196Y-87615476D01*
X329563244Y-87663095D01*
X329598958Y-87758333D01*
X329688244Y-87805952D01*
X329831101Y-87805952D01*
X329920386Y-87853571D01*
X329956101Y-87948809D01*
X329950148Y-87996428D01*
X329890625Y-88091666D01*
X329789434Y-88139285D01*
X329646577Y-88139285D01*
X329557291Y-88091666D01*
X329146577Y-87567857D02*
X329104910Y-87520238D01*
X329158482Y-87472619D01*
X329200148Y-87520238D01*
X329146577Y-87567857D01*
X329158482Y-87472619D01*
X329081101Y-88091666D02*
X329039434Y-88044047D01*
X329093005Y-87996428D01*
X329134672Y-88044047D01*
X329081101Y-88091666D01*
X329093005Y-87996428D01*
X327837053Y-88520238D02*
X328854910Y-87234523D01*
X326789434Y-88520238D02*
X327807291Y-87234523D01*
X326598958Y-88139285D02*
X326491815Y-87472619D01*
X326241815Y-87948809D01*
X326110863Y-87472619D01*
X325837053Y-88139285D01*
X325551339Y-88139285D02*
X325444196Y-87472619D01*
X325194196Y-87948809D01*
X325063244Y-87472619D01*
X324789434Y-88139285D01*
X324503720Y-88139285D02*
X324396577Y-87472619D01*
X324146577Y-87948809D01*
X324015625Y-87472619D01*
X323741815Y-88139285D01*
X323432291Y-87567857D02*
X323390625Y-87520238D01*
X323444196Y-87472619D01*
X323485863Y-87520238D01*
X323432291Y-87567857D01*
X323444196Y-87472619D01*
X322968005Y-87472619D02*
X322884672Y-88139285D01*
X322896577Y-88044047D02*
X322843005Y-88091666D01*
X322741815Y-88139285D01*
X322598958Y-88139285D01*
X322509672Y-88091666D01*
X322473958Y-87996428D01*
X322539434Y-87472619D01*
X322473958Y-87996428D02*
X322414434Y-88091666D01*
X322313244Y-88139285D01*
X322170386Y-88139285D01*
X322081101Y-88091666D01*
X322045386Y-87996428D01*
X322110863Y-87472619D01*
X321634672Y-87472619D02*
X321551339Y-88139285D01*
X321509672Y-88472619D02*
X321563244Y-88425000D01*
X321521577Y-88377380D01*
X321468005Y-88425000D01*
X321509672Y-88472619D01*
X321521577Y-88377380D01*
X320723958Y-87520238D02*
X320825148Y-87472619D01*
X321015625Y-87472619D01*
X321104910Y-87520238D01*
X321146577Y-87567857D01*
X321182291Y-87663095D01*
X321146577Y-87948809D01*
X321087053Y-88044047D01*
X321033482Y-88091666D01*
X320932291Y-88139285D01*
X320741815Y-88139285D01*
X320652529Y-88091666D01*
X320301339Y-87472619D02*
X320176339Y-88472619D01*
X319872767Y-87472619D02*
X319807291Y-87996428D01*
X319843005Y-88091666D01*
X319932291Y-88139285D01*
X320075148Y-88139285D01*
X320176339Y-88091666D01*
X320229910Y-88044047D01*
X318968005Y-87472619D02*
X318902529Y-87996428D01*
X318938244Y-88091666D01*
X319027529Y-88139285D01*
X319218005Y-88139285D01*
X319319196Y-88091666D01*
X318962053Y-87520238D02*
X319063244Y-87472619D01*
X319301339Y-87472619D01*
X319390625Y-87520238D01*
X319426339Y-87615476D01*
X319414434Y-87710714D01*
X319354910Y-87805952D01*
X319253720Y-87853571D01*
X319015625Y-87853571D01*
X318914434Y-87901190D01*
X318104910Y-87520238D02*
X318206101Y-87472619D01*
X318396577Y-87472619D01*
X318485863Y-87520238D01*
X318521577Y-87615476D01*
X318473958Y-87996428D01*
X318414434Y-88091666D01*
X318313244Y-88139285D01*
X318122767Y-88139285D01*
X318033482Y-88091666D01*
X317997767Y-87996428D01*
X318009672Y-87901190D01*
X318497767Y-87805952D01*
X317491815Y-87472619D02*
X317581101Y-87520238D01*
X317616815Y-87615476D01*
X317509672Y-88472619D01*
X317063244Y-87853571D02*
X316301339Y-87853571D01*
X315884672Y-88139285D02*
X315777529Y-87472619D01*
X315527529Y-87948809D01*
X315396577Y-87472619D01*
X315122767Y-88139285D01*
X314438244Y-87520238D02*
X314539434Y-87472619D01*
X314729910Y-87472619D01*
X314819196Y-87520238D01*
X314854910Y-87615476D01*
X314807291Y-87996428D01*
X314747767Y-88091666D01*
X314646577Y-88139285D01*
X314456101Y-88139285D01*
X314366815Y-88091666D01*
X314331101Y-87996428D01*
X314343005Y-87901190D01*
X314831101Y-87805952D01*
X314009672Y-87520238D02*
X313920386Y-87472619D01*
X313729910Y-87472619D01*
X313628720Y-87520238D01*
X313569196Y-87615476D01*
X313563244Y-87663095D01*
X313598958Y-87758333D01*
X313688244Y-87805952D01*
X313831101Y-87805952D01*
X313920386Y-87853571D01*
X313956101Y-87948809D01*
X313950148Y-87996428D01*
X313890625Y-88091666D01*
X313789434Y-88139285D01*
X313646577Y-88139285D01*
X313557291Y-88091666D01*
X313200148Y-87520238D02*
X313110863Y-87472619D01*
X312920386Y-87472619D01*
X312819196Y-87520238D01*
X312759672Y-87615476D01*
X312753720Y-87663095D01*
X312789434Y-87758333D01*
X312878720Y-87805952D01*
X313021577Y-87805952D01*
X313110863Y-87853571D01*
X313146577Y-87948809D01*
X313140625Y-87996428D01*
X313081101Y-88091666D01*
X312979910Y-88139285D01*
X312837053Y-88139285D01*
X312747767Y-88091666D01*
X311962053Y-87520238D02*
X312063244Y-87472619D01*
X312253720Y-87472619D01*
X312343005Y-87520238D01*
X312378720Y-87615476D01*
X312331101Y-87996428D01*
X312271577Y-88091666D01*
X312170386Y-88139285D01*
X311979910Y-88139285D01*
X311890625Y-88091666D01*
X311854910Y-87996428D01*
X311866815Y-87901190D01*
X312354910Y-87805952D01*
X311348958Y-87472619D02*
X311438244Y-87520238D01*
X311473958Y-87615476D01*
X311366815Y-88472619D01*
X310956101Y-87567857D02*
X310914434Y-87520238D01*
X310968005Y-87472619D01*
X311009672Y-87520238D01*
X310956101Y-87567857D01*
X310968005Y-87472619D01*
X310491815Y-87472619D02*
X310408482Y-88139285D01*
X310366815Y-88472619D02*
X310420386Y-88425000D01*
X310378720Y-88377380D01*
X310325148Y-88425000D01*
X310366815Y-88472619D01*
X310378720Y-88377380D01*
X309932291Y-88139285D02*
X310015625Y-87472619D01*
X309944196Y-88044047D02*
X309890625Y-88091666D01*
X309789434Y-88139285D01*
X309646577Y-88139285D01*
X309557291Y-88091666D01*
X309521577Y-87996428D01*
X309587053Y-87472619D01*
X309170386Y-88139285D02*
X308789434Y-88139285D01*
X309110863Y-87472619D02*
X309003720Y-88329761D01*
X308944196Y-88425000D01*
X308843005Y-88472619D01*
X308747767Y-88472619D01*
X308396577Y-87472619D02*
X308485863Y-87520238D01*
X308527529Y-87567857D01*
X308563244Y-87663095D01*
X308527529Y-87948809D01*
X308468005Y-88044047D01*
X308414434Y-88091666D01*
X308313244Y-88139285D01*
X308170386Y-88139285D01*
X308081101Y-88091666D01*
X308039434Y-88044047D01*
X308003720Y-87948809D01*
X308039434Y-87663095D01*
X308098958Y-87567857D01*
X308152529Y-87520238D01*
X308253720Y-87472619D01*
X308396577Y-87472619D01*
D11*
%TO.C,REF\u002A\u002A*%
X132107380Y-68643333D02*
X131631190Y-68976666D01*
X132107380Y-69214761D02*
X131107380Y-69214761D01*
X131107380Y-68833809D01*
X131155000Y-68738571D01*
X131202619Y-68690952D01*
X131297857Y-68643333D01*
X131440714Y-68643333D01*
X131535952Y-68690952D01*
X131583571Y-68738571D01*
X131631190Y-68833809D01*
X131631190Y-69214761D01*
X131583571Y-68214761D02*
X131583571Y-67881428D01*
X132107380Y-67738571D02*
X132107380Y-68214761D01*
X131107380Y-68214761D01*
X131107380Y-67738571D01*
X131583571Y-66976666D02*
X131583571Y-67310000D01*
X132107380Y-67310000D02*
X131107380Y-67310000D01*
X131107380Y-66833809D01*
X131107380Y-66310000D02*
X131345476Y-66310000D01*
X131250238Y-66548095D02*
X131345476Y-66310000D01*
X131250238Y-66071904D01*
X131535952Y-66452857D02*
X131345476Y-66310000D01*
X131535952Y-66167142D01*
X131107380Y-65548095D02*
X131345476Y-65548095D01*
X131250238Y-65786190D02*
X131345476Y-65548095D01*
X131250238Y-65310000D01*
X131535952Y-65690952D02*
X131345476Y-65548095D01*
X131535952Y-65405238D01*
X142267380Y-68643333D02*
X141791190Y-68976666D01*
X142267380Y-69214761D02*
X141267380Y-69214761D01*
X141267380Y-68833809D01*
X141315000Y-68738571D01*
X141362619Y-68690952D01*
X141457857Y-68643333D01*
X141600714Y-68643333D01*
X141695952Y-68690952D01*
X141743571Y-68738571D01*
X141791190Y-68833809D01*
X141791190Y-69214761D01*
X141743571Y-68214761D02*
X141743571Y-67881428D01*
X142267380Y-67738571D02*
X142267380Y-68214761D01*
X141267380Y-68214761D01*
X141267380Y-67738571D01*
X141743571Y-66976666D02*
X141743571Y-67310000D01*
X142267380Y-67310000D02*
X141267380Y-67310000D01*
X141267380Y-66833809D01*
X141267380Y-66310000D02*
X141505476Y-66310000D01*
X141410238Y-66548095D02*
X141505476Y-66310000D01*
X141410238Y-66071904D01*
X141695952Y-66452857D02*
X141505476Y-66310000D01*
X141695952Y-66167142D01*
X141267380Y-65548095D02*
X141505476Y-65548095D01*
X141410238Y-65786190D02*
X141505476Y-65548095D01*
X141410238Y-65310000D01*
X141695952Y-65690952D02*
X141505476Y-65548095D01*
X141695952Y-65405238D01*
X159793380Y-68643333D02*
X159317190Y-68976666D01*
X159793380Y-69214761D02*
X158793380Y-69214761D01*
X158793380Y-68833809D01*
X158841000Y-68738571D01*
X158888619Y-68690952D01*
X158983857Y-68643333D01*
X159126714Y-68643333D01*
X159221952Y-68690952D01*
X159269571Y-68738571D01*
X159317190Y-68833809D01*
X159317190Y-69214761D01*
X159269571Y-68214761D02*
X159269571Y-67881428D01*
X159793380Y-67738571D02*
X159793380Y-68214761D01*
X158793380Y-68214761D01*
X158793380Y-67738571D01*
X159269571Y-66976666D02*
X159269571Y-67310000D01*
X159793380Y-67310000D02*
X158793380Y-67310000D01*
X158793380Y-66833809D01*
X158793380Y-66310000D02*
X159031476Y-66310000D01*
X158936238Y-66548095D02*
X159031476Y-66310000D01*
X158936238Y-66071904D01*
X159221952Y-66452857D02*
X159031476Y-66310000D01*
X159221952Y-66167142D01*
X158793380Y-65548095D02*
X159031476Y-65548095D01*
X158936238Y-65786190D02*
X159031476Y-65548095D01*
X158936238Y-65310000D01*
X159221952Y-65690952D02*
X159031476Y-65548095D01*
X159221952Y-65405238D01*
D12*
X133350000Y-68420000D02*
X132590000Y-68420000D01*
X134110000Y-68420000D02*
X140395000Y-68420000D01*
X134110000Y-68420000D02*
X134110000Y-67873471D01*
X140395000Y-68420000D02*
X140395000Y-67617530D01*
X134110000Y-66746529D02*
X134110000Y-66200000D01*
X132590000Y-68420000D02*
X132590000Y-67310000D01*
X140395000Y-67002470D02*
X140395000Y-66200000D01*
X134110000Y-66200000D02*
X140395000Y-66200000D01*
X158175000Y-67002470D02*
X158175000Y-66200000D01*
X143510000Y-68420000D02*
X142750000Y-68420000D01*
X142750000Y-68420000D02*
X142750000Y-67310000D01*
X158175000Y-68420000D02*
X158175000Y-67617530D01*
X144270000Y-68420000D02*
X158175000Y-68420000D01*
X144270000Y-68420000D02*
X144270000Y-67873471D01*
X144270000Y-66200000D02*
X158175000Y-66200000D01*
X144270000Y-66746529D02*
X144270000Y-66200000D01*
X174431000Y-68420000D02*
X174431000Y-67617530D01*
X161796000Y-66746529D02*
X161796000Y-66200000D01*
X161796000Y-66200000D02*
X174431000Y-66200000D01*
X161796000Y-68420000D02*
X174431000Y-68420000D01*
X161036000Y-68420000D02*
X160276000Y-68420000D01*
X174431000Y-67002470D02*
X174431000Y-66200000D01*
X161796000Y-68420000D02*
X161796000Y-67873471D01*
X160276000Y-68420000D02*
X160276000Y-67310000D01*
%TD*%
M02*
