%TF.GenerationSoftware,KiCad,Pcbnew,(6.0.11)*%
%TF.CreationDate,2023-11-05T18:47:01-08:00*%
%TF.ProjectId,keyboard,6b657962-6f61-4726-942e-6b696361645f,rev?*%
%TF.SameCoordinates,Original*%
%TF.FileFunction,Copper,L2,Bot*%
%TF.FilePolarity,Positive*%
%FSLAX46Y46*%
G04 Gerber Fmt 4.6, Leading zero omitted, Abs format (unit mm)*
G04 Created by KiCad (PCBNEW (6.0.11)) date 2023-11-05 18:47:01*
%MOMM*%
%LPD*%
G01*
G04 APERTURE LIST*
%TA.AperFunction,NonConductor*%
%ADD10C,0.500000*%
%TD*%
%TA.AperFunction,ComponentPad*%
%ADD11R,1.000000X1.000000*%
%TD*%
%TA.AperFunction,ComponentPad*%
%ADD12O,1.000000X1.000000*%
%TD*%
%TA.AperFunction,ViaPad*%
%ADD13C,0.800000*%
%TD*%
G04 APERTURE END LIST*
D10*
X198120000Y-118618000D02*
X158750000Y-118618000D01*
X35560000Y-115062000D02*
X35560000Y-119126000D01*
X106680000Y-159258000D02*
X109220000Y-175768000D01*
X104140000Y-159258000D02*
X104394000Y-175768000D01*
X34798000Y-157480000D02*
X42672000Y-157480000D01*
X147828000Y-100076000D02*
X187452000Y-100076000D01*
X177292000Y-180340000D02*
X143002000Y-180340000D01*
X268478000Y-136398000D02*
X268478000Y-157226000D01*
D11*
%TO.P,REF\u002A\u002A,1*%
%TO.N,N/C*%
X133350000Y-67310000D03*
D12*
%TO.P,REF\u002A\u002A,2*%
X134620000Y-67310000D03*
%TO.P,REF\u002A\u002A,3*%
X135890000Y-67310000D03*
%TO.P,REF\u002A\u002A,4*%
X137160000Y-67310000D03*
%TO.P,REF\u002A\u002A,5*%
X138430000Y-67310000D03*
%TO.P,REF\u002A\u002A,6*%
X139700000Y-67310000D03*
%TD*%
D11*
%TO.P,REF\u002A\u002A,1*%
%TO.N,N/C*%
X143510000Y-67310000D03*
D12*
%TO.P,REF\u002A\u002A,2*%
X144780000Y-67310000D03*
%TO.P,REF\u002A\u002A,3*%
X146050000Y-67310000D03*
%TO.P,REF\u002A\u002A,4*%
X147320000Y-67310000D03*
%TO.P,REF\u002A\u002A,5*%
X148590000Y-67310000D03*
%TO.P,REF\u002A\u002A,6*%
X149860000Y-67310000D03*
%TO.P,REF\u002A\u002A,7*%
X151130000Y-67310000D03*
%TO.P,REF\u002A\u002A,8*%
X152400000Y-67310000D03*
%TO.P,REF\u002A\u002A,9*%
X153670000Y-67310000D03*
%TO.P,REF\u002A\u002A,10*%
X154940000Y-67310000D03*
%TO.P,REF\u002A\u002A,11*%
X156210000Y-67310000D03*
%TO.P,REF\u002A\u002A,12*%
X157480000Y-67310000D03*
%TD*%
D11*
%TO.P,REF\u002A\u002A,1*%
%TO.N,N/C*%
X161036000Y-67310000D03*
D12*
%TO.P,REF\u002A\u002A,2*%
X162306000Y-67310000D03*
%TO.P,REF\u002A\u002A,3*%
X163576000Y-67310000D03*
%TO.P,REF\u002A\u002A,4*%
X164846000Y-67310000D03*
%TO.P,REF\u002A\u002A,5*%
X166116000Y-67310000D03*
%TO.P,REF\u002A\u002A,6*%
X167386000Y-67310000D03*
%TO.P,REF\u002A\u002A,7*%
X168656000Y-67310000D03*
%TO.P,REF\u002A\u002A,8*%
X169926000Y-67310000D03*
%TO.P,REF\u002A\u002A,9*%
X171196000Y-67310000D03*
%TO.P,REF\u002A\u002A,10*%
X172466000Y-67310000D03*
%TO.P,REF\u002A\u002A,11*%
X173736000Y-67310000D03*
%TD*%
D13*
%TO.N,*%
X34798000Y-157480000D03*
X268478000Y-157226000D03*
X104394000Y-175768000D03*
X268478000Y-136398000D03*
X147828000Y-100076000D03*
X104140000Y-159258000D03*
X143002000Y-180340000D03*
X187452000Y-100076000D03*
X42672000Y-157480000D03*
X158750000Y-118618000D03*
X198120000Y-118618000D03*
X106680000Y-159258000D03*
X35560000Y-119126000D03*
X35560000Y-115062000D03*
X109220000Y-175768000D03*
X177292000Y-180340000D03*
%TD*%
M02*
