%TF.GenerationSoftware,KiCad,Pcbnew,(6.0.11)*%
%TF.CreationDate,2023-11-05T18:47:01-08:00*%
%TF.ProjectId,keyboard,6b657962-6f61-4726-942e-6b696361645f,rev?*%
%TF.SameCoordinates,Original*%
%TF.FileFunction,Copper,L1,Top*%
%TF.FilePolarity,Positive*%
%FSLAX46Y46*%
G04 Gerber Fmt 4.6, Leading zero omitted, Abs format (unit mm)*
G04 Created by KiCad (PCBNEW (6.0.11)) date 2023-11-05 18:47:01*
%MOMM*%
%LPD*%
G01*
G04 APERTURE LIST*
%TA.AperFunction,NonConductor*%
%ADD10C,0.500000*%
%TD*%
%TA.AperFunction,NonConductor*%
%ADD11C,2.295888*%
%TD*%
%TA.AperFunction,NonConductor*%
%ADD12C,0.200000*%
%TD*%
%TA.AperFunction,ComponentPad*%
%ADD13R,1.000000X1.000000*%
%TD*%
%TA.AperFunction,ComponentPad*%
%ADD14O,1.000000X1.000000*%
%TD*%
%TA.AperFunction,ViaPad*%
%ADD15C,0.800000*%
%TD*%
G04 APERTURE END LIST*
D10*
X315214000Y-180848000D02*
X306832000Y-188722000D01*
X352552000Y-147066000D02*
X353314000Y-147574000D01*
X50800000Y-96520000D02*
X55880000Y-96520000D01*
D11*
X380446144Y-125476000D02*
G75*
G03*
X380446144Y-125476000I-1147944J0D01*
G01*
D10*
X236575600Y-197688200D02*
X232410000Y-201930000D01*
X232410000Y-101600000D02*
X338582000Y-101600000D01*
X203454000Y-195072000D02*
X205994000Y-195072000D01*
X22606000Y-175006000D02*
X26670000Y-177800000D01*
X181356000Y-81407000D02*
X178181000Y-84455000D01*
X181864000Y-82296000D02*
X178689000Y-85344000D01*
D11*
X281919544Y-111734600D02*
G75*
G03*
X281919544Y-111734600I-1147944J0D01*
G01*
D10*
X302895000Y-144018000D02*
X307467000Y-144018000D01*
X50800000Y-91440000D02*
X50800000Y-96520000D01*
X212852000Y-167640000D02*
X212852000Y-175768000D01*
X214884000Y-127762000D02*
X217424000Y-130302000D01*
X312166000Y-137922000D02*
X347853000Y-137541000D01*
X309372000Y-167640000D02*
X306578000Y-164846000D01*
X121920000Y-167005000D02*
X118745000Y-164465000D01*
X349758000Y-125222000D02*
X352679000Y-128270000D01*
X269748000Y-127254000D02*
X267716000Y-128778000D01*
X219710000Y-201930000D02*
X236728000Y-201930000D01*
X234696000Y-194564000D02*
X237236000Y-194564000D01*
X115798600Y-140182600D02*
X122732800Y-168452800D01*
X288290000Y-200406000D02*
X289306000Y-201422000D01*
X70485000Y-128905000D02*
X73025000Y-129540000D01*
X147828000Y-126746000D02*
X144780000Y-128270000D01*
X218694000Y-193548000D02*
X221488000Y-196596000D01*
X50800000Y-130810000D02*
X50800000Y-133985000D01*
X66675000Y-102235000D02*
X66675000Y-106680000D01*
D11*
X122102744Y-135102600D02*
G75*
G03*
X122102744Y-135102600I-1147944J0D01*
G01*
D10*
X145796000Y-130302000D02*
X144018000Y-129032000D01*
X268478000Y-136398000D02*
X265430000Y-132588000D01*
X298704000Y-107442000D02*
X301244000Y-107442000D01*
X151384000Y-202946000D02*
X160020000Y-202946000D01*
X134620000Y-78740000D02*
X134620000Y-85090000D01*
D11*
X334192744Y-149936200D02*
G75*
G03*
X334192744Y-149936200I-1147944J0D01*
G01*
D10*
X180340000Y-88138000D02*
X183134000Y-85344000D01*
X222504000Y-194818000D02*
X225044000Y-194818000D01*
X324866000Y-145669000D02*
X321818000Y-148463000D01*
X225044000Y-194818000D02*
X228092000Y-192024000D01*
X164465000Y-192405000D02*
X164465000Y-189865000D01*
D11*
X276864944Y-149428200D02*
G75*
G03*
X276864944Y-149428200I-1147944J0D01*
G01*
X320324344Y-111760000D02*
G75*
G03*
X320324344Y-111760000I-1147944J0D01*
G01*
D10*
X304342800Y-168808400D02*
X304292000Y-160147000D01*
X38735000Y-168275000D02*
X48895000Y-177800000D01*
X158750000Y-118745000D02*
X154305000Y-118745000D01*
X142240000Y-118745000D02*
X154305000Y-118745000D01*
D11*
X218546544Y-197637400D02*
G75*
G03*
X218546544Y-197637400I-1147944J0D01*
G01*
D10*
X25400000Y-81280000D02*
X21590000Y-84455000D01*
X289306000Y-166878000D02*
X287528000Y-164846000D01*
X123825000Y-83820000D02*
X125095000Y-84455000D01*
X373380000Y-158750000D02*
X367284000Y-163576000D01*
X133985000Y-126365000D02*
X133985000Y-123825000D01*
X316103000Y-129667000D02*
X313436000Y-129159000D01*
X151130000Y-170180000D02*
X164465000Y-188595000D01*
X65405000Y-130581400D02*
X56515000Y-139700000D01*
X183896000Y-92964000D02*
X193802000Y-101600000D01*
X119380000Y-191135000D02*
X133350000Y-191135000D01*
X361950000Y-172720000D02*
X371602000Y-172720000D01*
X139065000Y-190500000D02*
X147320000Y-183515000D01*
D11*
X157891344Y-191795400D02*
G75*
G03*
X157891344Y-191795400I-1147944J0D01*
G01*
D10*
X351028000Y-106172000D02*
X342138000Y-97536000D01*
X177800000Y-139192000D02*
X184150000Y-139192000D01*
X173990000Y-199390000D02*
X175260000Y-200660000D01*
X336296000Y-129286000D02*
X341122000Y-123698000D01*
X223113600Y-112014000D02*
X212598000Y-119634000D01*
X45720000Y-112395000D02*
X40005000Y-119380000D01*
D12*
X68694300Y-184277000D02*
X71920100Y-184277000D01*
X71920100Y-184277000D02*
X71920100Y-189433200D01*
X71920100Y-189433200D02*
X68694300Y-189433200D01*
X68694300Y-189433200D02*
X68694300Y-184277000D01*
G36*
X68694300Y-184277000D02*
G01*
X71920100Y-184277000D01*
X71920100Y-189433200D01*
X68694300Y-189433200D01*
X68694300Y-184277000D01*
G37*
D11*
X243362344Y-111658400D02*
G75*
G03*
X243362344Y-111658400I-1147944J0D01*
G01*
D10*
X321818000Y-148463000D02*
X318389000Y-148336000D01*
X275717000Y-149098000D02*
X295148000Y-149098000D01*
X89408000Y-168910000D02*
X88392000Y-167640000D01*
X53975000Y-104775000D02*
X56515000Y-103505000D01*
X280771600Y-111734600D02*
X294894000Y-111760000D01*
X99695000Y-171450000D02*
X113030000Y-171450000D01*
X71120000Y-92075000D02*
X73660000Y-89535000D01*
X345186000Y-110236000D02*
X342646000Y-110236000D01*
X114300000Y-193040000D02*
X117475000Y-196215000D01*
X253238000Y-164592000D02*
X253238000Y-172720000D01*
X371602000Y-172720000D02*
X376174000Y-169164000D01*
X318770000Y-152654000D02*
X321310000Y-152654000D01*
X318770000Y-125984000D02*
X323342000Y-125984000D01*
X175260000Y-94996000D02*
X170942000Y-94996000D01*
X129540000Y-88900000D02*
X133350000Y-88900000D01*
D11*
X325480544Y-106400600D02*
G75*
G03*
X325480544Y-106400600I-1147944J0D01*
G01*
X200385544Y-149707600D02*
G75*
G03*
X200385544Y-149707600I-1147944J0D01*
G01*
D10*
X139700000Y-107950000D02*
X139700000Y-78740000D01*
D11*
X131195944Y-111506000D02*
G75*
G03*
X131195944Y-111506000I-1147944J0D01*
G01*
D10*
X223266000Y-107950000D02*
X224282000Y-108204000D01*
X50800000Y-96520000D02*
X48260000Y-99060000D01*
X332994000Y-129286000D02*
X336296000Y-129286000D01*
X335534000Y-103378000D02*
X328676000Y-110236000D01*
X381762000Y-138684000D02*
X379298200Y-125476000D01*
X99695000Y-172720000D02*
X112395000Y-172720000D01*
X29718000Y-94488000D02*
X40640000Y-83820000D01*
X334187800Y-125349000D02*
X339090000Y-120142000D01*
X327660000Y-160020000D02*
X333756000Y-160020000D01*
X173990000Y-129286000D02*
X160782000Y-129286000D01*
X358267000Y-137033000D02*
X355092000Y-140081000D01*
X201168000Y-192532000D02*
X203454000Y-195072000D01*
X216154000Y-110744000D02*
X214630000Y-110744000D01*
X284480000Y-141224000D02*
X295783000Y-141351000D01*
X222504000Y-200914000D02*
X227584000Y-200914000D01*
D11*
X52913144Y-163804600D02*
G75*
G03*
X52913144Y-163804600I-1147944J0D01*
G01*
D10*
X103505000Y-186690000D02*
X104394000Y-185674000D01*
X290322000Y-159512000D02*
X291592000Y-160528000D01*
X213614000Y-167132000D02*
X215392000Y-167386000D01*
X310642000Y-153924000D02*
X314045600Y-149809200D01*
X309118000Y-201422000D02*
X313436000Y-201422000D01*
X229108000Y-161036000D02*
X231140000Y-159258000D01*
X239014000Y-108204000D02*
X237744000Y-109220000D01*
D11*
X382249544Y-168910000D02*
G75*
G03*
X382249544Y-168910000I-1147944J0D01*
G01*
D10*
X305562000Y-165608000D02*
X308356000Y-168402000D01*
X130810000Y-104140000D02*
X130810000Y-106680000D01*
X62230000Y-115570000D02*
X64770000Y-113030000D01*
X240284000Y-197358000D02*
X240284000Y-200660000D01*
D11*
X53065544Y-125399800D02*
G75*
G03*
X53065544Y-125399800I-1147944J0D01*
G01*
D10*
X342646000Y-123698000D02*
X345694000Y-126238000D01*
D11*
X177017544Y-163347400D02*
G75*
G03*
X177017544Y-163347400I-1147944J0D01*
G01*
D10*
X333248000Y-139192000D02*
X318516000Y-139446000D01*
X322580000Y-188976000D02*
X328168000Y-195326000D01*
X177800000Y-146558000D02*
X181864000Y-146558000D01*
X267716000Y-128778000D02*
X267716000Y-130810000D01*
X349504000Y-106426000D02*
X341630000Y-98552000D01*
X59690000Y-194945000D02*
X93345000Y-194945000D01*
X290068000Y-195834000D02*
X293878000Y-195834000D01*
X218948000Y-104394000D02*
X218948000Y-108458000D01*
X214630000Y-116332000D02*
X210566000Y-116332000D01*
X330454000Y-153670000D02*
X333502000Y-149606000D01*
D12*
X87871300Y-183946800D02*
X91097100Y-183946800D01*
X91097100Y-183946800D02*
X91097100Y-189103000D01*
X91097100Y-189103000D02*
X87871300Y-189103000D01*
X87871300Y-189103000D02*
X87871300Y-183946800D01*
G36*
X87871300Y-183946800D02*
G01*
X91097100Y-183946800D01*
X91097100Y-189103000D01*
X87871300Y-189103000D01*
X87871300Y-183946800D01*
G37*
D10*
X294894000Y-111760000D02*
X298450000Y-108458000D01*
X242239800Y-144449800D02*
X223012000Y-144602200D01*
X164465000Y-192405000D02*
X161290000Y-195580000D01*
X99060000Y-160655000D02*
X113030000Y-160655000D01*
X346202000Y-114808000D02*
X349504000Y-111506000D01*
X219456000Y-193040000D02*
X222250000Y-195834000D01*
X264414000Y-115189000D02*
X264414000Y-138049000D01*
X52070000Y-110490000D02*
X52070000Y-116840000D01*
X247142000Y-200152000D02*
X253492000Y-193802000D01*
X311531000Y-141097000D02*
X315468000Y-141478000D01*
X144018000Y-129032000D02*
X141478000Y-129032000D01*
X207518000Y-115062000D02*
X212598000Y-119634000D01*
X40640000Y-87503000D02*
X32740600Y-96926400D01*
X144780000Y-88900000D02*
X144780000Y-78740000D01*
X163576000Y-78740000D02*
X163576000Y-83058000D01*
X260604000Y-196342000D02*
X264414000Y-196342000D01*
X68580000Y-133350000D02*
X68580000Y-129540000D01*
X244094000Y-173990000D02*
X245872000Y-173990000D01*
X143510000Y-81407000D02*
X143510000Y-67437000D01*
X301498000Y-146177000D02*
X303022000Y-146177000D01*
D11*
X219486344Y-149250400D02*
G75*
G03*
X219486344Y-149250400I-1147944J0D01*
G01*
D10*
X31877000Y-188722000D02*
X36195000Y-192405000D01*
X349631000Y-146177000D02*
X347218000Y-144018000D01*
X353415600Y-125095000D02*
X348742000Y-117348000D01*
X267970000Y-177546000D02*
X257556000Y-187706000D01*
D11*
X224515544Y-191770000D02*
G75*
G03*
X224515544Y-191770000I-1147944J0D01*
G01*
D10*
X59690000Y-110490000D02*
X63500000Y-107315000D01*
X267716000Y-175768000D02*
X270764000Y-175768000D01*
X352044000Y-129794000D02*
X355092000Y-129794000D01*
X332232000Y-129794000D02*
X329565000Y-127000000D01*
D11*
X310596144Y-130810000D02*
G75*
G03*
X310596144Y-130810000I-1147944J0D01*
G01*
D10*
X156210000Y-163118800D02*
X160528000Y-149352000D01*
X192786000Y-140716000D02*
X204038200Y-144272000D01*
X320548000Y-104648000D02*
X320548000Y-106934000D01*
X338582000Y-101600000D02*
X341884000Y-104902000D01*
X157480000Y-78740000D02*
X157480000Y-81788000D01*
X350647000Y-83439000D02*
X182118000Y-83439000D01*
X59690000Y-129540000D02*
X62230000Y-125730000D01*
X67310000Y-127000000D02*
X69850000Y-129540000D01*
X73025000Y-129540000D02*
X86995000Y-142875000D01*
X217932000Y-118872000D02*
X220980000Y-118872000D01*
X177546000Y-166624000D02*
X180086000Y-164084000D01*
X339471000Y-127000000D02*
X336931000Y-129921000D01*
X201422000Y-199898000D02*
X203708000Y-201422000D01*
X267716000Y-130810000D02*
X273304000Y-136398000D01*
X52070000Y-116840000D02*
X48260000Y-120650000D01*
X258318000Y-192278000D02*
X258318000Y-188722000D01*
X182118000Y-196342000D02*
X182118000Y-190246000D01*
X220218000Y-192532000D02*
X222504000Y-194818000D01*
X27736800Y-104329288D02*
X27660600Y-137580312D01*
X86995000Y-145415000D02*
X88900000Y-147955000D01*
X166624000Y-159004000D02*
X169164000Y-159004000D01*
X139192000Y-145796000D02*
X138430000Y-144780000D01*
X327660000Y-114554000D02*
X334518000Y-107696000D01*
X178562000Y-140716000D02*
X192786000Y-140716000D01*
X62230000Y-125730000D02*
X62230000Y-115570000D01*
X72390000Y-172085000D02*
X69850000Y-172085000D01*
X249174000Y-164592000D02*
X249174000Y-161544000D01*
X112395000Y-173990000D02*
X114935000Y-177165000D01*
X134620000Y-110490000D02*
X137160000Y-110490000D01*
X252730000Y-158496000D02*
X257810000Y-163068000D01*
D11*
X86161744Y-130530600D02*
G75*
G03*
X86161744Y-130530600I-1147944J0D01*
G01*
D10*
X141706600Y-149885400D02*
X136906000Y-147066000D01*
D11*
X382274944Y-197281800D02*
G75*
G03*
X382274944Y-197281800I-1147944J0D01*
G01*
D10*
X339598000Y-107188000D02*
X339598000Y-104648000D01*
X134620000Y-111760000D02*
X138430000Y-111760000D01*
X194310000Y-157480000D02*
X181864000Y-145288000D01*
X85598000Y-164846000D02*
X88392000Y-167640000D01*
D11*
X172242344Y-106527600D02*
G75*
G03*
X172242344Y-106527600I-1147944J0D01*
G01*
D10*
X323469000Y-197561200D02*
X318008000Y-202692000D01*
X359283000Y-137668000D02*
X354965000Y-141859000D01*
X261112000Y-194818000D02*
X258318000Y-192278000D01*
X204470000Y-144780000D02*
X214376000Y-163068000D01*
X204724000Y-107950000D02*
X202184000Y-107950000D01*
X98425000Y-188595000D02*
X101600000Y-188595000D01*
D11*
X133380344Y-197434200D02*
G75*
G03*
X133380344Y-197434200I-1147944J0D01*
G01*
X256849744Y-197586600D02*
G75*
G03*
X256849744Y-197586600I-1147944J0D01*
G01*
D10*
X340360000Y-104394000D02*
X340360000Y-106934000D01*
X217678000Y-169672000D02*
X217678000Y-173482000D01*
X173990000Y-196850000D02*
X173990000Y-199390000D01*
X314960000Y-146558000D02*
X318008000Y-149352000D01*
X21590000Y-84455000D02*
X21590000Y-175260000D01*
X213106000Y-193548000D02*
X213614000Y-191516000D01*
X376682000Y-140970000D02*
X378460000Y-143002000D01*
D11*
X272369144Y-163499800D02*
G75*
G03*
X272369144Y-163499800I-1147944J0D01*
G01*
D10*
X93345000Y-97155000D02*
X102870000Y-107950000D01*
X125095000Y-84455000D02*
X129540000Y-88900000D01*
D11*
X166832144Y-144932400D02*
G75*
G03*
X166832144Y-144932400I-1147944J0D01*
G01*
D10*
X203200000Y-129540000D02*
X198374000Y-129540000D01*
X184404000Y-91948000D02*
X172212000Y-91948000D01*
X191008000Y-164084000D02*
X194310000Y-167386000D01*
X284556200Y-197739000D02*
X280416000Y-202184000D01*
X155575000Y-194945000D02*
X160020000Y-194945000D01*
X347980000Y-106172000D02*
X347980000Y-107442000D01*
X363728000Y-107442000D02*
X353822000Y-85471000D01*
X80010000Y-136207500D02*
X77470000Y-140970000D01*
X144272000Y-140208000D02*
X144272000Y-145034000D01*
X269240000Y-121920000D02*
X266700000Y-124841000D01*
X187198000Y-105156000D02*
X187198000Y-107188000D01*
X230886000Y-167132000D02*
X228092000Y-164846000D01*
D11*
X375569344Y-106553000D02*
G75*
G03*
X375569344Y-106553000I-1147944J0D01*
G01*
D10*
X85725000Y-163830000D02*
X89535000Y-167640000D01*
X145796000Y-161036000D02*
X145796000Y-148844000D01*
X166116000Y-113030000D02*
X166116000Y-117856000D01*
X152146000Y-164846000D02*
X149352000Y-164846000D01*
X256540000Y-164084000D02*
X256540000Y-172212000D01*
X355092000Y-129794000D02*
X357124000Y-131826000D01*
X304012600Y-197764400D02*
X299212000Y-202692000D01*
X205232000Y-117348000D02*
X200914000Y-113030000D01*
X296037000Y-141351000D02*
X300101000Y-141351000D01*
X137795000Y-126365000D02*
X133985000Y-126365000D01*
X138176000Y-122936000D02*
X143002000Y-119888000D01*
X353314000Y-87757000D02*
X349758000Y-84963000D01*
X112395000Y-130175000D02*
X120015000Y-130175000D01*
X255016000Y-157226000D02*
X265734800Y-168681400D01*
X268986000Y-170688000D02*
X268986000Y-167132000D01*
X223520000Y-108712000D02*
X221996000Y-109220000D01*
X198120000Y-118618000D02*
X199542400Y-125399800D01*
X113030000Y-160655000D02*
X114935000Y-158750000D01*
X197866000Y-127762000D02*
X198882000Y-128524000D01*
X203200000Y-127254000D02*
X203200000Y-118364000D01*
X69850000Y-167640000D02*
X66675000Y-165100000D01*
D11*
X219943544Y-125476000D02*
G75*
G03*
X219943544Y-125476000I-1147944J0D01*
G01*
D10*
X341122000Y-99568000D02*
X347980000Y-106172000D01*
X164465000Y-189865000D02*
X167005000Y-187325000D01*
D11*
X343793944Y-168503600D02*
G75*
G03*
X343793944Y-168503600I-1147944J0D01*
G01*
D10*
X326644000Y-122428000D02*
X328168000Y-122428000D01*
X356616000Y-152400000D02*
X356616000Y-149606000D01*
X285496000Y-128524000D02*
X274066000Y-128524000D01*
X210058000Y-163322000D02*
X213614000Y-167132000D01*
X298196000Y-148590000D02*
X298196000Y-151892000D01*
X36195000Y-192405000D02*
X55880000Y-192405000D01*
X295402000Y-153924000D02*
X310642000Y-153924000D01*
X308356000Y-196850000D02*
X308356000Y-199136000D01*
D11*
X214634944Y-130556000D02*
G75*
G03*
X214634944Y-130556000I-1147944J0D01*
G01*
D10*
X247904000Y-177800000D02*
X245110000Y-177800000D01*
D11*
X195584944Y-130733800D02*
G75*
G03*
X195584944Y-130733800I-1147944J0D01*
G01*
D10*
X151130000Y-193040000D02*
X156845000Y-198120000D01*
X181864000Y-146558000D02*
X184150000Y-148844000D01*
D11*
X48010944Y-168910000D02*
G75*
G03*
X48010944Y-168910000I-1147944J0D01*
G01*
D10*
X145796000Y-132842000D02*
X145796000Y-130302000D01*
X48895000Y-179070000D02*
X95250000Y-179070000D01*
X313944000Y-167894000D02*
X309575200Y-163677600D01*
X214122000Y-101600000D02*
X232410000Y-101600000D01*
D11*
X238841144Y-125476000D02*
G75*
G03*
X238841144Y-125476000I-1147944J0D01*
G01*
D10*
X236728000Y-201930000D02*
X286258000Y-202184000D01*
X168148000Y-108458000D02*
X168148000Y-105156000D01*
X336296000Y-152400000D02*
X338074000Y-153670000D01*
X135890000Y-121920000D02*
X138430000Y-121920000D01*
X154940000Y-67437000D02*
X154940000Y-81407000D01*
D11*
X66832344Y-149707600D02*
G75*
G03*
X66832344Y-149707600I-1147944J0D01*
G01*
D10*
X360172000Y-148844000D02*
X363220000Y-151892000D01*
X188214000Y-110744000D02*
X188214000Y-117094000D01*
X229362000Y-192786000D02*
X229870000Y-189738000D01*
X364236000Y-156591000D02*
X360807000Y-159766000D01*
X113030000Y-170180000D02*
X123190000Y-180340000D01*
X338836000Y-107696000D02*
X342138000Y-110998000D01*
X143256000Y-145034000D02*
X146558000Y-148336000D01*
X96520000Y-154940000D02*
X96520000Y-157480000D01*
X285750000Y-193802000D02*
X289306000Y-197358000D01*
X257556000Y-192532000D02*
X260858000Y-195580000D01*
X345694000Y-145288000D02*
X346964000Y-145288000D01*
X278638000Y-135890000D02*
X347218000Y-136398000D01*
D12*
X30264100Y-183565800D02*
X33489900Y-183565800D01*
X33489900Y-183565800D02*
X33489900Y-188722000D01*
X33489900Y-188722000D02*
X30264100Y-188722000D01*
X30264100Y-188722000D02*
X30264100Y-183565800D01*
G36*
X30264100Y-183565800D02*
G01*
X33489900Y-183565800D01*
X33489900Y-188722000D01*
X30264100Y-188722000D01*
X30264100Y-183565800D01*
G37*
D10*
X107950000Y-189230000D02*
X107950000Y-198120000D01*
X186182000Y-107442000D02*
X182626000Y-107442000D01*
D11*
X67010144Y-130581400D02*
G75*
G03*
X67010144Y-130581400I-1147944J0D01*
G01*
D10*
X286258000Y-189484000D02*
X286258000Y-192278000D01*
X212852000Y-175768000D02*
X200406000Y-187960000D01*
X137160000Y-78740000D02*
X137160000Y-86360000D01*
D11*
X152176344Y-168960800D02*
G75*
G03*
X152176344Y-168960800I-1147944J0D01*
G01*
D10*
X349504000Y-111506000D02*
X349504000Y-106426000D01*
X106680000Y-152146000D02*
X106680000Y-159004000D01*
X185242200Y-144500600D02*
X187960000Y-140970000D01*
D11*
X228681144Y-168554400D02*
G75*
G03*
X228681144Y-168554400I-1147944J0D01*
G01*
D10*
X69850000Y-111125000D02*
X69850000Y-118745000D01*
X180086000Y-158496000D02*
X175514000Y-154178000D01*
X348996000Y-125603000D02*
X352425000Y-129032000D01*
X173736000Y-78740000D02*
X173736000Y-81534000D01*
X77470000Y-140970000D02*
X77470000Y-157480000D01*
X206756000Y-195834000D02*
X231902000Y-171196000D01*
X39370000Y-116840000D02*
X39370000Y-100330000D01*
X304038000Y-109474000D02*
X312166000Y-109474000D01*
X265430000Y-120142000D02*
X277876000Y-108458000D01*
X286004000Y-159766000D02*
X286004000Y-165100000D01*
X113030000Y-171450000D02*
X120650000Y-179705000D01*
X203708000Y-201422000D02*
X207518000Y-201422000D01*
X210566000Y-116332000D02*
X208280000Y-114300000D01*
D11*
X85704544Y-168986200D02*
G75*
G03*
X85704544Y-168986200I-1147944J0D01*
G01*
D10*
X171704000Y-163576000D02*
X175006000Y-166624000D01*
X201422000Y-196596000D02*
X201422000Y-199898000D01*
X46990000Y-181610000D02*
X43180000Y-184150000D01*
X351028000Y-82296000D02*
X181864000Y-82296000D01*
X226822000Y-199898000D02*
X233934000Y-193802000D01*
X72390000Y-124460000D02*
X83820000Y-112395000D01*
X245872000Y-157480000D02*
X255016000Y-157226000D01*
X73025000Y-167640000D02*
X79375000Y-160020000D01*
X271272000Y-153416000D02*
X277622000Y-159004000D01*
X155194000Y-167894000D02*
X152146000Y-164846000D01*
X33655000Y-135255000D02*
X40005000Y-135153400D01*
X331470000Y-130302000D02*
X329438000Y-128016000D01*
X340106000Y-148336000D02*
X344932000Y-142748000D01*
X144780000Y-111760000D02*
X137160000Y-119380000D01*
X323850000Y-114554000D02*
X327660000Y-114554000D01*
X172466000Y-67437000D02*
X172466000Y-81407000D01*
X56515000Y-103505000D02*
X56515000Y-99060000D01*
X40640000Y-83820000D02*
X123825000Y-83820000D01*
D11*
X72217144Y-144678400D02*
G75*
G03*
X72217144Y-144678400I-1147944J0D01*
G01*
D10*
X244094000Y-194818000D02*
X268986000Y-170688000D01*
D11*
X330154144Y-192049400D02*
G75*
G03*
X330154144Y-192049400I-1147944J0D01*
G01*
D10*
X261289800Y-144653000D02*
X272542000Y-144653000D01*
X211836000Y-173228000D02*
X195834000Y-188468000D01*
X166116000Y-78740000D02*
X166116000Y-83058000D01*
X221996000Y-108204000D02*
X223266000Y-107950000D01*
X77470000Y-88900000D02*
X80010000Y-91440000D01*
X121285000Y-175260000D02*
X130175000Y-175260000D01*
X142240000Y-146558000D02*
X145034000Y-149098000D01*
X51435000Y-139065000D02*
X48260000Y-137160000D01*
X272542000Y-144653000D02*
X274320000Y-146304000D01*
X206502000Y-106680000D02*
X206248000Y-105410000D01*
X383032000Y-165608000D02*
X384556000Y-166878000D01*
X138684000Y-146558000D02*
X142240000Y-146558000D01*
D11*
X167136944Y-111531400D02*
G75*
G03*
X167136944Y-111531400I-1147944J0D01*
G01*
D10*
X241808000Y-195580000D02*
X245110000Y-195580000D01*
X339852000Y-127762000D02*
X337820000Y-130556000D01*
X288290000Y-197612000D02*
X288290000Y-200406000D01*
X197866000Y-114046000D02*
X197866000Y-105156000D01*
X182626000Y-107442000D02*
X180848000Y-106172000D01*
X121044912Y-87731600D02*
X113030000Y-87630000D01*
X85090000Y-170180000D02*
X85090000Y-175895000D01*
X390652000Y-168910000D02*
X390652000Y-153670000D01*
X167005000Y-187325000D02*
X170815000Y-187325000D01*
X214630000Y-110744000D02*
X213106000Y-109220000D01*
X67310000Y-140335000D02*
X67310000Y-135255000D01*
X271272000Y-151384000D02*
X267716000Y-151384000D01*
X284988000Y-156972000D02*
X281432000Y-160528000D01*
X140970000Y-129540000D02*
X137795000Y-126365000D01*
X289306000Y-197358000D02*
X289306000Y-200406000D01*
X67310000Y-121285000D02*
X67310000Y-127000000D01*
D11*
X119461144Y-92583000D02*
G75*
G03*
X119461144Y-92583000I-1147944J0D01*
G01*
D10*
X267335000Y-141478000D02*
X270637000Y-141478000D01*
X153670000Y-164084000D02*
X155956000Y-166370000D01*
X274320000Y-146304000D02*
X277368000Y-146304000D01*
X50800000Y-115570000D02*
X45720000Y-120650000D01*
X210058000Y-160782000D02*
X210058000Y-163322000D01*
X228346000Y-188976000D02*
X244094000Y-173990000D01*
X230886000Y-170942000D02*
X230886000Y-167132000D01*
D11*
X375137544Y-130454400D02*
G75*
G03*
X375137544Y-130454400I-1147944J0D01*
G01*
D10*
X306578000Y-164846000D02*
X306578000Y-161036000D01*
X222250000Y-195834000D02*
X225806000Y-195834000D01*
D11*
X47985544Y-111607600D02*
G75*
G03*
X47985544Y-111607600I-1147944J0D01*
G01*
D10*
X72390000Y-125730000D02*
X84455000Y-130810000D01*
X242062000Y-194818000D02*
X244094000Y-194818000D01*
D11*
X310723144Y-163677600D02*
G75*
G03*
X310723144Y-163677600I-1147944J0D01*
G01*
D10*
X294386000Y-196596000D02*
X313944000Y-180340000D01*
X338582000Y-102616000D02*
X340360000Y-104394000D01*
X312166000Y-195072000D02*
X327660000Y-181356000D01*
X274447000Y-136017000D02*
X290017200Y-130835400D01*
X323342000Y-125984000D02*
X326644000Y-122428000D01*
X309118000Y-195072000D02*
X312166000Y-195072000D01*
X359283000Y-131064000D02*
X359283000Y-137668000D01*
X351028000Y-116078000D02*
X351028000Y-106172000D01*
X268478000Y-164846000D02*
X268478000Y-160274000D01*
X322834000Y-113284000D02*
X323850000Y-114554000D01*
X324332600Y-106400600D02*
X329184000Y-101600000D01*
X175514000Y-149606000D02*
X177800000Y-146558000D01*
D11*
X209580344Y-168935400D02*
G75*
G03*
X209580344Y-168935400I-1147944J0D01*
G01*
D10*
X390652000Y-152908000D02*
X381762000Y-138684000D01*
X124460000Y-85090000D02*
X129540000Y-90170000D01*
X295579800Y-125349000D02*
X298450000Y-122428000D01*
X87630000Y-172085000D02*
X90170000Y-174625000D01*
X140970000Y-135890000D02*
X140970000Y-129540000D01*
X341122000Y-117348000D02*
X348742000Y-117348000D01*
X291592000Y-158496000D02*
X287274000Y-158496000D01*
X353314000Y-147574000D02*
X355854000Y-149860000D01*
X200406000Y-193294000D02*
X202946000Y-195834000D01*
X262001000Y-139827000D02*
X267335000Y-141478000D01*
X151130000Y-194310000D02*
X154305000Y-196850000D01*
X356616000Y-149606000D02*
X353060000Y-146177000D01*
X128905000Y-85725000D02*
X132080000Y-85725000D01*
X151130000Y-67437000D02*
X151130000Y-82677000D01*
D11*
X181233944Y-149707600D02*
G75*
G03*
X181233944Y-149707600I-1147944J0D01*
G01*
D10*
X225806000Y-195834000D02*
X229362000Y-192786000D01*
X94615000Y-175895000D02*
X99695000Y-171450000D01*
X200914000Y-113030000D02*
X200914000Y-109982000D01*
X315214000Y-162052000D02*
X315214000Y-180848000D01*
X215900000Y-194310000D02*
X218440000Y-194310000D01*
X176276000Y-106934000D02*
X176276000Y-116840000D01*
X249428000Y-181102000D02*
X247650000Y-181356000D01*
X160274000Y-166370000D02*
X166624000Y-159004000D01*
X349758000Y-195326000D02*
X354076000Y-199390000D01*
X171704000Y-161290000D02*
X171704000Y-163576000D01*
X298196000Y-151892000D02*
X299974000Y-153162000D01*
X160020000Y-202946000D02*
X162052000Y-202438000D01*
X324866000Y-193294000D02*
X327914000Y-196342000D01*
X273304000Y-138176000D02*
X273050000Y-138684000D01*
X340614000Y-153670000D02*
X344424000Y-149352000D01*
X71755000Y-145415000D02*
X71755000Y-156210000D01*
X151892000Y-165862000D02*
X154178000Y-168148000D01*
X138430000Y-120650000D02*
X147320000Y-111125000D01*
X180975000Y-193675000D02*
X180975000Y-186690000D01*
X374269000Y-106807000D02*
X379095000Y-125476000D01*
X155956000Y-174498000D02*
X154178000Y-172212000D01*
X175691800Y-189853512D02*
X172085000Y-186055000D01*
X188976000Y-114808000D02*
X188976000Y-110236000D01*
X338582000Y-108712000D02*
X338836000Y-108712000D01*
X21590000Y-175260000D02*
X27940000Y-184150000D01*
X279654000Y-188976000D02*
X280670000Y-186436000D01*
X193802000Y-101600000D02*
X206248000Y-101600000D01*
D12*
X45631100Y-184810400D02*
X48856900Y-184810400D01*
X48856900Y-184810400D02*
X48856900Y-189966600D01*
X48856900Y-189966600D02*
X45631100Y-189966600D01*
X45631100Y-189966600D02*
X45631100Y-184810400D01*
G36*
X45631100Y-184810400D02*
G01*
X48856900Y-184810400D01*
X48856900Y-189966600D01*
X45631100Y-189966600D01*
X45631100Y-184810400D01*
G37*
D10*
X200152000Y-168656000D02*
X200152000Y-160274000D01*
X390652000Y-153670000D02*
X390652000Y-152908000D01*
X318262000Y-132588000D02*
X316738000Y-133858000D01*
X152400000Y-67437000D02*
X152400000Y-81407000D01*
X344932000Y-142748000D02*
X347472000Y-142748000D01*
X290017200Y-130835400D02*
X292989000Y-135001000D01*
X181356000Y-164592000D02*
X189992000Y-164592000D01*
X161036000Y-84074000D02*
X171196000Y-93980000D01*
X171958000Y-134112000D02*
X174498000Y-131826000D01*
X185420000Y-89916000D02*
X173228000Y-89916000D01*
X162306000Y-83566000D02*
X171704000Y-92964000D01*
X330454000Y-153670000D02*
X334772000Y-154940000D01*
X76835000Y-89535000D02*
X79375000Y-92075000D01*
X130175000Y-175260000D02*
X132080000Y-173355000D01*
D11*
X116946544Y-140182600D02*
G75*
G03*
X116946544Y-140182600I-1147944J0D01*
G01*
D10*
X38735000Y-142875000D02*
X38735000Y-168275000D01*
X175260000Y-196850000D02*
X179070000Y-196850000D01*
X332486000Y-134620000D02*
X331724000Y-133350000D01*
X321310000Y-152654000D02*
X327152000Y-146558000D01*
X229108000Y-163830000D02*
X229108000Y-161036000D01*
X234950000Y-193040000D02*
X237744000Y-193040000D01*
X282448000Y-193802000D02*
X285750000Y-193802000D01*
X171196000Y-93980000D02*
X176276000Y-94234000D01*
X161544000Y-125222000D02*
X143764000Y-125247400D01*
X143510000Y-195580000D02*
X147320000Y-193040000D01*
D11*
X33761544Y-135153400D02*
G75*
G03*
X33761544Y-135153400I-1147944J0D01*
G01*
D10*
X148082000Y-143256000D02*
X155448000Y-143256000D01*
X350774000Y-130302000D02*
X347980000Y-127762000D01*
D11*
X123880744Y-168452800D02*
G75*
G03*
X123880744Y-168452800I-1147944J0D01*
G01*
D10*
X179705000Y-186690000D02*
X177165000Y-184785000D01*
X263398000Y-132207000D02*
X263398000Y-138557000D01*
X204216000Y-108712000D02*
X207518000Y-111506000D01*
X310515000Y-145669000D02*
X304800000Y-146050000D01*
X358394000Y-144043400D02*
X360426000Y-140970000D01*
X195326000Y-154940000D02*
X195326000Y-147828000D01*
X251460000Y-158496000D02*
X252730000Y-158496000D01*
X237744000Y-171704000D02*
X220218000Y-189230000D01*
X101600000Y-188595000D02*
X103505000Y-186690000D01*
X174498000Y-88138000D02*
X180340000Y-88138000D01*
D11*
X311129544Y-191871600D02*
G75*
G03*
X311129544Y-191871600I-1147944J0D01*
G01*
D10*
X270256000Y-171196000D02*
X270256000Y-166878000D01*
X347218000Y-144018000D02*
X345313000Y-144018000D01*
X207518000Y-201422000D02*
X215392000Y-193548000D01*
D11*
X186110744Y-111709200D02*
G75*
G03*
X186110744Y-111709200I-1147944J0D01*
G01*
D10*
X43180000Y-90170000D02*
X45720000Y-88900000D01*
X170434000Y-105918000D02*
X153670000Y-88900000D01*
X257810000Y-172720000D02*
X249428000Y-181102000D01*
X144780000Y-93980000D02*
X144780000Y-111760000D01*
X185420000Y-126746000D02*
X185420000Y-133096000D01*
X179578000Y-87249000D02*
X174879000Y-87249000D01*
X51435000Y-139065000D02*
X51435000Y-143510000D01*
X272542000Y-144653000D02*
X278638000Y-135890000D01*
X284734000Y-187960000D02*
X286258000Y-189484000D01*
X323088000Y-110236000D02*
X320040000Y-107696000D01*
X217424000Y-197866000D02*
X219710000Y-201930000D01*
X231902000Y-171196000D02*
X231902000Y-166370000D01*
X194310000Y-183642000D02*
X194310000Y-194564000D01*
X228600000Y-127508000D02*
X226314000Y-129540000D01*
X200406000Y-187960000D02*
X200406000Y-193294000D01*
D11*
X28884744Y-102133400D02*
G75*
G03*
X28884744Y-102133400I-1147944J0D01*
G01*
D10*
X378460000Y-143002000D02*
X378460000Y-146304000D01*
X233934000Y-193802000D02*
X237490000Y-193802000D01*
X153416000Y-133350000D02*
X147066000Y-133350000D01*
X80010000Y-91440000D02*
X92710000Y-91440000D01*
X162306000Y-167386000D02*
X164846000Y-164846000D01*
X184150000Y-108712000D02*
X186182000Y-108712000D01*
X337058000Y-148717000D02*
X334264000Y-145796000D01*
X171958000Y-164846000D02*
X174752000Y-167386000D01*
X208280000Y-111252000D02*
X204724000Y-107950000D01*
X172466000Y-78740000D02*
X172466000Y-81534000D01*
X337820000Y-148336000D02*
X340106000Y-148336000D01*
X83820000Y-151130000D02*
X81280000Y-153670000D01*
X114300000Y-187960000D02*
X114300000Y-193040000D01*
X139700000Y-135255000D02*
X139700000Y-129540000D01*
X180086000Y-124968000D02*
X175260000Y-118364000D01*
X102870000Y-121920000D02*
X102870000Y-120650000D01*
X43180000Y-182880000D02*
X45720000Y-180340000D01*
X260096000Y-197104000D02*
X260350000Y-200152000D01*
X288798000Y-109728000D02*
X290068000Y-108204000D01*
X160782000Y-129286000D02*
X155448000Y-126746000D01*
X109220000Y-140335000D02*
X112395000Y-136525000D01*
X265430000Y-132588000D02*
X265430000Y-120142000D01*
X37465000Y-168275000D02*
X48895000Y-179070000D01*
X114935000Y-177165000D02*
X114935000Y-182245000D01*
X318262000Y-129540000D02*
X318262000Y-132588000D01*
X321310000Y-147574000D02*
X327406000Y-141478000D01*
X135255000Y-120650000D02*
X138430000Y-120650000D01*
X343535000Y-145669000D02*
X343535000Y-148971000D01*
X270764000Y-175768000D02*
X271780000Y-174752000D01*
X195834000Y-188468000D02*
X195834000Y-192786000D01*
X284480000Y-109728000D02*
X288798000Y-109728000D01*
X227584000Y-200914000D02*
X234696000Y-194564000D01*
X241046000Y-197104000D02*
X241046000Y-200152000D01*
X288290000Y-159512000D02*
X290322000Y-159512000D01*
X197612000Y-146050000D02*
X200914000Y-146050000D01*
X333756000Y-146558000D02*
X336296000Y-149098000D01*
X138430000Y-144780000D02*
X138430000Y-143002000D01*
X304876200Y-106349800D02*
X309118000Y-101600000D01*
X330962000Y-125730000D02*
X333375000Y-128397000D01*
X157480000Y-81788000D02*
X170942000Y-94996000D01*
X114935000Y-158750000D02*
X114935000Y-154940000D01*
X79375000Y-149225000D02*
X82550000Y-145415000D01*
X164846000Y-83058000D02*
X172720000Y-90932000D01*
X206756000Y-200406000D02*
X213106000Y-193548000D01*
X147066000Y-133350000D02*
X137668000Y-142748000D01*
X109220000Y-183515000D02*
X109220000Y-175768000D01*
X306832000Y-192786000D02*
X309118000Y-195072000D01*
X304800000Y-146050000D02*
X303022000Y-147701000D01*
X353314000Y-141859000D02*
X353949000Y-142621000D01*
X277622000Y-91440000D02*
X282194000Y-95504000D01*
D11*
X47655344Y-149733000D02*
G75*
G03*
X47655344Y-149733000I-1147944J0D01*
G01*
D10*
X97790000Y-96520000D02*
X110490000Y-96520000D01*
X140970000Y-151130000D02*
X127990600Y-163652200D01*
X139700000Y-175260000D02*
X140970000Y-175260000D01*
X193548000Y-110744000D02*
X193548000Y-120904000D01*
X353949000Y-142621000D02*
X353949000Y-144653000D01*
X312166000Y-146558000D02*
X314960000Y-146558000D01*
X270637000Y-141478000D02*
X272669000Y-140462000D01*
D11*
X324693144Y-168732200D02*
G75*
G03*
X324693144Y-168732200I-1147944J0D01*
G01*
D10*
X342138000Y-113538000D02*
X343154000Y-114808000D01*
X136906000Y-141732000D02*
X145796000Y-132842000D01*
X347726000Y-190246000D02*
X361950000Y-172720000D01*
X329438000Y-128016000D02*
X319786000Y-128016000D01*
X174244000Y-111252000D02*
X172466000Y-109728000D01*
X237744000Y-109220000D02*
X227838000Y-109220000D01*
X354965000Y-141859000D02*
X354965000Y-144780000D01*
X270256000Y-166878000D02*
X268478000Y-164846000D01*
X281432000Y-160528000D02*
X281432000Y-172212000D01*
X215392000Y-193548000D02*
X218694000Y-193548000D01*
X274447000Y-136017000D02*
X271272000Y-130479800D01*
X298704000Y-133858000D02*
X295402000Y-133858000D01*
X309880000Y-200406000D02*
X312674000Y-200406000D01*
X204216000Y-118110000D02*
X204216000Y-128270000D01*
X251968000Y-191008000D02*
X256794000Y-193040000D01*
X355219000Y-145161000D02*
X357632000Y-147320000D01*
X107950000Y-147320000D02*
X107950000Y-134620000D01*
X170815000Y-194310000D02*
X173990000Y-196850000D01*
X327914000Y-196342000D02*
X331978000Y-196342000D01*
X343154000Y-114808000D02*
X346202000Y-114808000D01*
D11*
X382452744Y-144653000D02*
G75*
G03*
X382452744Y-144653000I-1147944J0D01*
G01*
D10*
X351536000Y-157861000D02*
X356616000Y-152400000D01*
X212344000Y-109982000D02*
X214630000Y-112014000D01*
X198882000Y-114046000D02*
X198882000Y-108966000D01*
X284734000Y-183642000D02*
X284734000Y-187960000D01*
X248920000Y-88900000D02*
X251206000Y-91186000D01*
X93980000Y-174625000D02*
X98425000Y-170180000D01*
X26670000Y-175260000D02*
X30480000Y-175260000D01*
X331724000Y-133350000D02*
X331470000Y-130302000D01*
X319024000Y-121666000D02*
X328549000Y-121666000D01*
D11*
X205186144Y-144653000D02*
G75*
G03*
X205186144Y-144653000I-1147944J0D01*
G01*
D10*
X140970000Y-90170000D02*
X143510000Y-87630000D01*
X66675000Y-106680000D02*
X70485000Y-110490000D01*
X89941400Y-125399800D02*
X95250000Y-120650000D01*
X87630000Y-168275000D02*
X87630000Y-172085000D01*
X355346000Y-100965000D02*
X348996000Y-96393000D01*
X287274000Y-188722000D02*
X285750000Y-187198000D01*
X55880000Y-192405000D02*
X59690000Y-194945000D01*
X351790000Y-133096000D02*
X351536000Y-130302000D01*
X204343000Y-191820800D02*
X227533200Y-168554400D01*
X66675000Y-169545000D02*
X66675000Y-173355000D01*
X172466000Y-109728000D02*
X169418000Y-109728000D01*
X199390000Y-103632000D02*
X204978000Y-103632000D01*
X217424000Y-136144000D02*
X223266000Y-140462000D01*
X166116000Y-117856000D02*
X157480000Y-119888000D01*
X347853000Y-137541000D02*
X351790000Y-133096000D01*
X288290000Y-167386000D02*
X288290000Y-172720000D01*
X327660000Y-167386000D02*
X325120000Y-164592000D01*
X196850000Y-193548000D02*
X199390000Y-193802000D01*
X22860000Y-85090000D02*
X22606000Y-175006000D01*
X41275000Y-84455000D02*
X24765000Y-100965000D01*
X327152000Y-199136000D02*
X328168000Y-199898000D01*
X347599000Y-120142000D02*
X349631000Y-122047000D01*
X246888000Y-175768000D02*
X250952000Y-171704000D01*
X291592000Y-160528000D02*
X295148000Y-164846000D01*
X241300000Y-196342000D02*
X246634000Y-196342000D01*
X178308000Y-167386000D02*
X181356000Y-164592000D01*
X66497200Y-184251600D02*
X64770000Y-181610000D01*
X109220000Y-146685000D02*
X109220000Y-140335000D01*
X288290000Y-172720000D02*
X286258000Y-175006000D01*
X286258000Y-193294000D02*
X289560000Y-196596000D01*
X291846000Y-147828000D02*
X293624000Y-146558000D01*
X153670000Y-88900000D02*
X153670000Y-78740000D01*
X266700000Y-124841000D02*
X266446000Y-131064000D01*
X87630000Y-156210000D02*
X85725000Y-158115000D01*
X156210000Y-84836000D02*
X156210000Y-78740000D01*
X333375000Y-133604000D02*
X332486000Y-132588000D01*
X167386000Y-67437000D02*
X167386000Y-81407000D01*
X344424000Y-146050000D02*
X345694000Y-145288000D01*
X138430000Y-81407000D02*
X138430000Y-67437000D01*
X260350000Y-200152000D02*
X275590000Y-200152000D01*
X195580000Y-126746000D02*
X192532000Y-126746000D01*
X45720000Y-88900000D02*
X46990000Y-88900000D01*
X120650000Y-179705000D02*
X119380000Y-191135000D01*
X155194000Y-170688000D02*
X155194000Y-167894000D01*
X203200000Y-118364000D02*
X198882000Y-114046000D01*
X286258000Y-192278000D02*
X290068000Y-195834000D01*
X381127000Y-197281800D02*
X376174000Y-202692000D01*
X114300000Y-88900000D02*
X119380000Y-88900000D01*
X139192000Y-125476000D02*
X139192000Y-123444000D01*
D11*
X262894944Y-111607600D02*
G75*
G03*
X262894944Y-111607600I-1147944J0D01*
G01*
D10*
X63500000Y-107315000D02*
X66040000Y-107315000D01*
X349758000Y-84963000D02*
X255143000Y-84963000D01*
X162306000Y-67437000D02*
X162306000Y-81407000D01*
D12*
X83934300Y-183667400D02*
X87160100Y-183667400D01*
X87160100Y-183667400D02*
X87160100Y-188823600D01*
X87160100Y-188823600D02*
X83934300Y-188823600D01*
X83934300Y-188823600D02*
X83934300Y-183667400D01*
G36*
X83934300Y-183667400D02*
G01*
X87160100Y-183667400D01*
X87160100Y-188823600D01*
X83934300Y-188823600D01*
X83934300Y-183667400D01*
G37*
D10*
X225552000Y-104140000D02*
X224028000Y-102616000D01*
X327406000Y-141478000D02*
X333248000Y-141478000D01*
D11*
X339120344Y-111810800D02*
G75*
G03*
X339120344Y-111810800I-1147944J0D01*
G01*
D10*
X336804000Y-139573000D02*
X323342000Y-140589000D01*
X252171200Y-87630000D02*
X248920000Y-84328000D01*
X145034000Y-161544000D02*
X149098000Y-165862000D01*
D11*
X324616944Y-197561200D02*
G75*
G03*
X324616944Y-197561200I-1147944J0D01*
G01*
X143946744Y-125247400D02*
G75*
G03*
X143946744Y-125247400I-1147944J0D01*
G01*
D10*
X96520000Y-157480000D02*
X99060000Y-160655000D01*
X82550000Y-180340000D02*
X85547200Y-183667400D01*
X160655000Y-198120000D02*
X167005000Y-191770000D01*
X277622000Y-170942000D02*
X271018000Y-177546000D01*
X121920000Y-92710000D02*
X121920000Y-95250000D01*
X348234000Y-127000000D02*
X339471000Y-127000000D01*
X110490000Y-96520000D02*
X114300000Y-88900000D01*
X71120000Y-167640000D02*
X73025000Y-167640000D01*
X220218000Y-146050000D02*
X221488000Y-147574000D01*
X123240800Y-87731600D02*
X135102600Y-106324400D01*
D11*
X281944944Y-144576800D02*
G75*
G03*
X281944944Y-144576800I-1147944J0D01*
G01*
D10*
X360426000Y-158750000D02*
X324104000Y-158750000D01*
D11*
X33888544Y-96926400D02*
G75*
G03*
X33888544Y-96926400I-1147944J0D01*
G01*
D10*
X119380000Y-88900000D02*
X121920000Y-92710000D01*
X283210000Y-175006000D02*
X262382000Y-194818000D01*
X215900000Y-113538000D02*
X221996000Y-108204000D01*
X154305000Y-200025000D02*
X155575000Y-200660000D01*
X116840000Y-140182600D02*
X136525000Y-140335000D01*
X140970000Y-173355000D02*
X153670000Y-188595000D01*
X286004000Y-165100000D02*
X288290000Y-167386000D01*
X315976000Y-128270000D02*
X318770000Y-125984000D01*
X300863000Y-128397000D02*
X294640000Y-128270000D01*
X257556000Y-187706000D02*
X257556000Y-192532000D01*
X279146000Y-158496000D02*
X271272000Y-151384000D01*
X337972400Y-111810800D02*
X341122000Y-117348000D01*
X68580000Y-99695000D02*
X66675000Y-102235000D01*
X200914000Y-107188000D02*
X204978000Y-107188000D01*
X226314000Y-129540000D02*
X218694000Y-129540000D01*
X24765000Y-173355000D02*
X26670000Y-175260000D01*
X354965000Y-144780000D02*
X355219000Y-145161000D01*
X231902000Y-166370000D02*
X229108000Y-163830000D01*
X241046000Y-200152000D02*
X247142000Y-200152000D01*
X181356000Y-164592000D02*
X181356000Y-150622000D01*
X104140000Y-189865000D02*
X109220000Y-184785000D01*
X79375000Y-92075000D02*
X79375000Y-95250000D01*
X137795000Y-127635000D02*
X133985000Y-127635000D01*
X334264000Y-145796000D02*
X324866000Y-145669000D01*
D11*
X262844144Y-191693800D02*
G75*
G03*
X262844144Y-191693800I-1147944J0D01*
G01*
D10*
X372110000Y-117094000D02*
X366141000Y-115062000D01*
X215646000Y-126746000D02*
X215646000Y-121412000D01*
X149860000Y-67437000D02*
X149860000Y-81407000D01*
X25400000Y-158750000D02*
X27940000Y-161290000D01*
X198882000Y-108966000D02*
X200914000Y-107188000D01*
X226060000Y-110744000D02*
X223520000Y-108712000D01*
X121920000Y-95250000D02*
X130810000Y-104140000D01*
X292989000Y-135001000D02*
X342900000Y-135509000D01*
X156464000Y-172466000D02*
X155194000Y-170688000D01*
X39370000Y-100330000D02*
X43180000Y-95250000D01*
D11*
X162437944Y-125450600D02*
G75*
G03*
X162437944Y-125450600I-1147944J0D01*
G01*
D10*
X312674000Y-200406000D02*
X314198000Y-198882000D01*
X66675000Y-165100000D02*
X64135000Y-165100000D01*
X336931000Y-162941000D02*
X336804000Y-184785000D01*
D11*
X305490744Y-168808400D02*
G75*
G03*
X305490744Y-168808400I-1147944J0D01*
G01*
D10*
X143510000Y-87630000D02*
X143510000Y-78740000D01*
D11*
X72242544Y-125349000D02*
G75*
G03*
X72242544Y-125349000I-1147944J0D01*
G01*
D10*
X233680000Y-159258000D02*
X237744000Y-163576000D01*
X296672000Y-164338000D02*
X291592000Y-158496000D01*
X197866000Y-105156000D02*
X199390000Y-103632000D01*
X171704000Y-92964000D02*
X183896000Y-92964000D01*
X255701800Y-197586600D02*
X251968000Y-201930000D01*
D11*
X315726944Y-125425200D02*
G75*
G03*
X315726944Y-125425200I-1147944J0D01*
G01*
D10*
X354965000Y-141859000D02*
X353695000Y-141097000D01*
X297307000Y-145669000D02*
X295783000Y-141351000D01*
X215392000Y-167386000D02*
X217678000Y-169672000D01*
X184150000Y-139192000D02*
X187706000Y-135636000D01*
D11*
X237723544Y-197688200D02*
G75*
G03*
X237723544Y-197688200I-1147944J0D01*
G01*
D10*
X386334000Y-166878000D02*
X389636000Y-165100000D01*
X135890000Y-139065000D02*
X139700000Y-135255000D01*
X184150000Y-153416000D02*
X191008000Y-160782000D01*
X207518000Y-111506000D02*
X207518000Y-115062000D01*
D11*
X292003344Y-191668400D02*
G75*
G03*
X292003344Y-191668400I-1147944J0D01*
G01*
D10*
X348742000Y-146812000D02*
X349504000Y-147066000D01*
X213614000Y-191516000D02*
X224028000Y-180848000D01*
X193548000Y-120904000D02*
X195580000Y-122682000D01*
X137160000Y-119380000D02*
X114300000Y-119380000D01*
X200914000Y-146050000D02*
X203200000Y-148590000D01*
X293370000Y-194818000D02*
X290068000Y-194818000D01*
D11*
X162031544Y-149275800D02*
G75*
G03*
X162031544Y-149275800I-1147944J0D01*
G01*
D10*
X310134000Y-127508000D02*
X304038000Y-127762000D01*
X192532000Y-126746000D02*
X190754000Y-124714000D01*
X148590000Y-67437000D02*
X148590000Y-81407000D01*
X174752000Y-167386000D02*
X178308000Y-167386000D01*
X135890000Y-86360000D02*
X135890000Y-78740000D01*
X51435000Y-192405000D02*
X51435000Y-189230000D01*
X238252000Y-192278000D02*
X241808000Y-195580000D01*
D12*
X26441400Y-183565800D02*
X29667200Y-183565800D01*
X29667200Y-183565800D02*
X29667200Y-188722000D01*
X29667200Y-188722000D02*
X26441400Y-188722000D01*
X26441400Y-188722000D02*
X26441400Y-183565800D01*
G36*
X26441400Y-183565800D02*
G01*
X29667200Y-183565800D01*
X29667200Y-188722000D01*
X26441400Y-188722000D01*
X26441400Y-183565800D01*
G37*
D10*
X24765000Y-100965000D02*
X24765000Y-173355000D01*
X88900000Y-147955000D02*
X88900000Y-156845000D01*
X114300000Y-167640000D02*
X121285000Y-175260000D01*
X199237600Y-149707600D02*
X204978000Y-164338000D01*
D11*
X266882744Y-168681400D02*
G75*
G03*
X266882744Y-168681400I-1147944J0D01*
G01*
D10*
X346964000Y-145288000D02*
X348742000Y-146812000D01*
X285750000Y-184150000D02*
X296672000Y-171450000D01*
X266446000Y-131064000D02*
X270002000Y-135890000D01*
X182245000Y-176530000D02*
X189636400Y-168783000D01*
X188214000Y-117094000D02*
X189738000Y-120904000D01*
X161290000Y-172466000D02*
X156464000Y-172466000D01*
X69850000Y-153035000D02*
X69850000Y-147955000D01*
X208280000Y-202438000D02*
X215646000Y-194564000D01*
D11*
X320578344Y-144297400D02*
G75*
G03*
X320578344Y-144297400I-1147944J0D01*
G01*
D10*
X337566000Y-194310000D02*
X344424000Y-194310000D01*
X132080000Y-85725000D02*
X133350000Y-84455000D01*
X142240000Y-110490000D02*
X142240000Y-91440000D01*
X169672000Y-146812000D02*
X173736000Y-146812000D01*
X104140000Y-107950000D02*
X102870000Y-107950000D01*
X198882000Y-160782000D02*
X192532000Y-153670000D01*
X237693200Y-125476000D02*
X251841000Y-130378200D01*
X180848000Y-125984000D02*
X184150000Y-129032000D01*
X233680000Y-127508000D02*
X228600000Y-127508000D01*
X389636000Y-165100000D02*
X389636000Y-162814000D01*
X332486000Y-102616000D02*
X338582000Y-102616000D01*
X369214400Y-111506000D02*
X363728000Y-107442000D01*
X73660000Y-89535000D02*
X76835000Y-89535000D01*
X152400000Y-78740000D02*
X152400000Y-89408000D01*
X376174000Y-169164000D02*
X376174000Y-167386000D01*
X90170000Y-174625000D02*
X93980000Y-174625000D01*
X143002000Y-119888000D02*
X154432000Y-119888000D01*
X255143000Y-84963000D02*
X252171200Y-87630000D01*
X347472000Y-154940000D02*
X352044000Y-150164800D01*
X350774000Y-132588000D02*
X350774000Y-130302000D01*
X121920000Y-173990000D02*
X128905000Y-173990000D01*
X155194000Y-201930000D02*
X159512000Y-201930000D01*
X68580000Y-127000000D02*
X70485000Y-128905000D01*
X268224000Y-153416000D02*
X271272000Y-153416000D01*
X336042000Y-133604000D02*
X333375000Y-133604000D01*
D11*
X67086344Y-111480600D02*
G75*
G03*
X67086344Y-111480600I-1147944J0D01*
G01*
D10*
X267970000Y-179324000D02*
X271526000Y-179324000D01*
X335915000Y-139573000D02*
X335788000Y-144907000D01*
X241046000Y-200914000D02*
X247396000Y-200914000D01*
X340106000Y-159766000D02*
X336931000Y-162941000D01*
X35560000Y-125730000D02*
X29845000Y-132080000D01*
X40005000Y-139065000D02*
X38735000Y-142875000D01*
X355854000Y-129032000D02*
X358267000Y-131572000D01*
X266446000Y-154432000D02*
X268224000Y-153416000D01*
D11*
X190784344Y-168783000D02*
G75*
G03*
X190784344Y-168783000I-1147944J0D01*
G01*
D10*
X56515000Y-114300000D02*
X48895000Y-121920000D01*
X242214400Y-111658400D02*
X256768600Y-125603000D01*
X280670000Y-186436000D02*
X291084000Y-174244000D01*
X299948600Y-112014000D02*
X314579000Y-125425200D01*
X202184000Y-166624000D02*
X204978000Y-164338000D01*
X236220000Y-171196000D02*
X236220000Y-167386000D01*
X315468000Y-107696000D02*
X313436000Y-110236000D01*
X37465000Y-141605000D02*
X37465000Y-168275000D01*
X85090000Y-165735000D02*
X87630000Y-168275000D01*
X117475000Y-196215000D02*
X122555000Y-196215000D01*
X57785000Y-163195000D02*
X64135000Y-167640000D01*
X182372000Y-135890000D02*
X148844000Y-135890000D01*
X86995000Y-159385000D02*
X86995000Y-163830000D01*
D11*
X224261544Y-112014000D02*
G75*
G03*
X224261544Y-112014000I-1147944J0D01*
G01*
D10*
X133985000Y-127635000D02*
X132080000Y-125730000D01*
X66649600Y-88900000D02*
X77470000Y-88900000D01*
D11*
X129138544Y-163652200D02*
G75*
G03*
X129138544Y-163652200I-1147944J0D01*
G01*
D10*
X289306000Y-200406000D02*
X294894000Y-200406000D01*
X52019200Y-87503000D02*
X40640000Y-87503000D01*
X329946000Y-125984000D02*
X332994000Y-129286000D01*
X282956000Y-194564000D02*
X285242000Y-194564000D01*
X345694000Y-126238000D02*
X348488000Y-126238000D01*
X251714000Y-159512000D02*
X256540000Y-164084000D01*
D11*
X157383344Y-130683000D02*
G75*
G03*
X157383344Y-130683000I-1147944J0D01*
G01*
D10*
X226060000Y-113792000D02*
X226060000Y-111252000D01*
X117475000Y-136525000D02*
X119380000Y-139065000D01*
X235712000Y-128270000D02*
X233680000Y-127508000D01*
X343916000Y-127762000D02*
X339852000Y-127762000D01*
X169164000Y-159004000D02*
X171704000Y-161290000D01*
X154940000Y-131826000D02*
X153416000Y-133350000D01*
X376809000Y-92532200D02*
X371602000Y-94869000D01*
X328168000Y-195326000D02*
X331470000Y-195326000D01*
X194310000Y-167386000D02*
X196850000Y-167386000D01*
X285140400Y-168529000D02*
X261366000Y-191693800D01*
X172085000Y-186055000D02*
X167005000Y-186055000D01*
X164846000Y-164846000D02*
X171958000Y-164846000D01*
X264922000Y-158242000D02*
X267462000Y-161036000D01*
X199898000Y-113792000D02*
X204216000Y-118110000D01*
X23622000Y-174244000D02*
X26670000Y-176530000D01*
X175260000Y-200660000D02*
X178054000Y-200660000D01*
X333248000Y-141478000D02*
X335026000Y-142748000D01*
X154940000Y-85344000D02*
X176276000Y-106934000D01*
D11*
X171327944Y-197281800D02*
G75*
G03*
X171327944Y-197281800I-1147944J0D01*
G01*
D10*
X68580000Y-99695000D02*
X74295000Y-93980000D01*
X310896000Y-125730000D02*
X313436000Y-128270000D01*
X182245000Y-176530000D02*
X175514000Y-176530000D01*
X256794000Y-193802000D02*
X260096000Y-197104000D01*
X194056000Y-163322000D02*
X194310000Y-157480000D01*
X364236000Y-151384000D02*
X364236000Y-156591000D01*
X157734000Y-140970000D02*
X165354000Y-140970000D01*
X237566200Y-149504400D02*
X245872000Y-157480000D01*
X391795000Y-83693000D02*
X389255000Y-81407000D01*
D11*
X363097944Y-168554400D02*
G75*
G03*
X363097944Y-168554400I-1147944J0D01*
G01*
D10*
X142240000Y-91440000D02*
X144780000Y-88900000D01*
X186182000Y-108712000D02*
X188214000Y-110744000D01*
X313944000Y-112014000D02*
X316484000Y-108458000D01*
X203200000Y-153416000D02*
X210058000Y-160782000D01*
X300101000Y-141478000D02*
X302895000Y-144018000D01*
X304342800Y-168808400D02*
X290855400Y-192024000D01*
X357251000Y-148082000D02*
X360934000Y-148209000D01*
X221488000Y-147574000D02*
X237998000Y-149504400D01*
X83820000Y-110490000D02*
X70866000Y-106603800D01*
X192278000Y-109474000D02*
X193548000Y-110744000D01*
D11*
X306024144Y-106349800D02*
G75*
G03*
X306024144Y-106349800I-1147944J0D01*
G01*
D10*
X338836000Y-108712000D02*
X341122000Y-110998000D01*
X355092000Y-140081000D02*
X336804000Y-139573000D01*
X311658000Y-167640000D02*
X309372000Y-167640000D01*
X219964000Y-104902000D02*
X221742000Y-103378000D01*
X339598000Y-104648000D02*
X338074000Y-103378000D01*
X237693200Y-125476000D02*
X227076000Y-122174000D01*
X175260000Y-110490000D02*
X171958000Y-107442000D01*
X178689000Y-85344000D02*
X176149000Y-85344000D01*
X328549000Y-121666000D02*
X330962000Y-123698000D01*
X290068000Y-194818000D02*
X287274000Y-192024000D01*
X389636000Y-162814000D02*
X385572000Y-158750000D01*
X204216000Y-128270000D02*
X203200000Y-129540000D01*
D11*
X181437144Y-125806200D02*
G75*
G03*
X181437144Y-125806200I-1147944J0D01*
G01*
D10*
X144780000Y-128270000D02*
X141986000Y-128270000D01*
X189992000Y-164592000D02*
X193548000Y-168656000D01*
X319430400Y-144297400D02*
X323342000Y-140589000D01*
D11*
X52887744Y-144678400D02*
G75*
G03*
X52887744Y-144678400I-1147944J0D01*
G01*
D10*
X323545200Y-168732200D02*
X315722000Y-159258000D01*
X66040000Y-126365000D02*
X68580000Y-129540000D01*
X268478000Y-160274000D02*
X266446000Y-156464000D01*
X346964000Y-121031000D02*
X348996000Y-122936000D01*
X369570000Y-125476000D02*
X373989600Y-130454400D01*
X391668000Y-192786000D02*
X391795000Y-83693000D01*
D11*
X142854544Y-149885400D02*
G75*
G03*
X142854544Y-149885400I-1147944J0D01*
G01*
D10*
X45720000Y-120650000D02*
X45720000Y-126365000D01*
X194818000Y-99568000D02*
X341122000Y-99568000D01*
X70307200Y-189433200D02*
X73660000Y-193040000D01*
X174244000Y-168148000D02*
X171450000Y-165608000D01*
X177292000Y-145288000D02*
X174244000Y-149352000D01*
X123190000Y-180340000D02*
X129540000Y-180340000D01*
D11*
X91216344Y-106451400D02*
G75*
G03*
X91216344Y-106451400I-1147944J0D01*
G01*
D10*
X287274000Y-158496000D02*
X286004000Y-159766000D01*
X97790000Y-168910000D02*
X89408000Y-168910000D01*
X220726000Y-199644000D02*
X222504000Y-200914000D01*
X304165000Y-145034000D02*
X308102000Y-144907000D01*
X121920000Y-177165000D02*
X130810000Y-177165000D01*
X177800000Y-183642000D02*
X180975000Y-186690000D01*
X354838000Y-138938000D02*
X335534000Y-138684000D01*
X292227000Y-125730000D02*
X291973000Y-123571000D01*
X279400000Y-147828000D02*
X291846000Y-147828000D01*
D11*
X359160944Y-144043400D02*
G75*
G03*
X359160944Y-144043400I-1147944J0D01*
G01*
D10*
X217678000Y-173482000D02*
X201676000Y-189230000D01*
X179324000Y-86233000D02*
X175387000Y-86233000D01*
X244348000Y-175768000D02*
X246888000Y-175768000D01*
X177165000Y-184785000D02*
X169545000Y-184785000D01*
X315341000Y-145669000D02*
X310515000Y-145669000D01*
X379476000Y-148082000D02*
X383540000Y-148082000D01*
X136906000Y-147066000D02*
X136906000Y-141732000D01*
X143256000Y-139700000D02*
X143256000Y-145034000D01*
X114300000Y-119380000D02*
X106680000Y-127000000D01*
X66675000Y-173355000D02*
X73025000Y-173355000D01*
X277368000Y-146304000D02*
X279400000Y-147828000D01*
X118110000Y-92710000D02*
X118110000Y-107950000D01*
X384556000Y-166878000D02*
X386334000Y-166878000D01*
D11*
X329417544Y-130987800D02*
G75*
G03*
X329417544Y-130987800I-1147944J0D01*
G01*
D10*
X353822000Y-85471000D02*
X350647000Y-83439000D01*
X177292000Y-180340000D02*
X190500000Y-180340000D01*
X51054000Y-162560000D02*
X42926000Y-157480000D01*
D12*
G36*
X341985600Y-104444800D02*
G01*
X342315800Y-104571800D01*
X342925400Y-104571800D01*
X344170000Y-105562400D01*
X345084400Y-106527600D01*
X345186000Y-107035600D01*
X344474800Y-107797600D01*
X343916000Y-108280200D01*
X343001600Y-108178600D01*
X341147400Y-106400600D01*
X341147400Y-106222800D01*
X341249000Y-105740200D01*
X341198200Y-105384600D01*
X341020400Y-104952800D01*
X341045800Y-104800400D01*
X341477600Y-104368600D01*
X341960200Y-104292400D01*
X341985600Y-104444800D01*
G37*
X341985600Y-104444800D02*
X342315800Y-104571800D01*
X342925400Y-104571800D01*
X344170000Y-105562400D01*
X345084400Y-106527600D01*
X345186000Y-107035600D01*
X344474800Y-107797600D01*
X343916000Y-108280200D01*
X343001600Y-108178600D01*
X341147400Y-106400600D01*
X341147400Y-106222800D01*
X341249000Y-105740200D01*
X341198200Y-105384600D01*
X341020400Y-104952800D01*
X341045800Y-104800400D01*
X341477600Y-104368600D01*
X341960200Y-104292400D01*
X341985600Y-104444800D01*
D10*
X272669000Y-140462000D02*
X274066000Y-138938000D01*
X338074000Y-153670000D02*
X340614000Y-153670000D01*
X94615000Y-177800000D02*
X99695000Y-172720000D01*
D11*
X199572744Y-197612000D02*
G75*
G03*
X199572744Y-197612000I-1147944J0D01*
G01*
D10*
X43180000Y-184150000D02*
X36830000Y-184150000D01*
X313944000Y-180340000D02*
X313944000Y-167894000D01*
X342900000Y-135509000D02*
X347472000Y-130911600D01*
X328168000Y-199898000D02*
X331978000Y-199898000D01*
X116205000Y-154305000D02*
X109220000Y-146685000D01*
X256794000Y-193040000D02*
X257302000Y-193294000D01*
X107950000Y-134620000D02*
X112395000Y-130175000D01*
X376174000Y-167386000D02*
X378714000Y-165608000D01*
X48260000Y-106680000D02*
X52070000Y-110490000D01*
X198120000Y-118618000D02*
X197866000Y-114046000D01*
X267716000Y-151384000D02*
X264922000Y-153924000D01*
D11*
X136250544Y-106324400D02*
G75*
G03*
X136250544Y-106324400I-1147944J0D01*
G01*
D10*
X149606000Y-148336000D02*
X152654000Y-151892000D01*
X166116000Y-67437000D02*
X166116000Y-81407000D01*
X46990000Y-187388500D02*
X38100000Y-187388500D01*
X275590000Y-200152000D02*
X282448000Y-193802000D01*
X114300000Y-116840000D02*
X104140000Y-127000000D01*
X182118000Y-190246000D02*
X203708000Y-170434000D01*
D11*
X301096544Y-111633000D02*
G75*
G03*
X301096544Y-111633000I-1147944J0D01*
G01*
D10*
X308102000Y-144907000D02*
X311531000Y-141097000D01*
X205740000Y-106934000D02*
X209042000Y-109982000D01*
X175006000Y-166624000D02*
X177546000Y-166624000D01*
X137160000Y-116840000D02*
X114300000Y-116840000D01*
X264414000Y-196342000D02*
X272034000Y-188976000D01*
X56515000Y-128270000D02*
X59690000Y-125095000D01*
X274066000Y-138938000D02*
X274447000Y-136017000D01*
D11*
X335335744Y-125145800D02*
G75*
G03*
X335335744Y-125145800I-1147944J0D01*
G01*
D10*
X231140000Y-159258000D02*
X233680000Y-159258000D01*
X211836000Y-167894000D02*
X211836000Y-173228000D01*
X308864000Y-196088000D02*
X312928000Y-196088000D01*
D12*
X49517300Y-184785000D02*
X52743100Y-184785000D01*
X52743100Y-184785000D02*
X52743100Y-189941200D01*
X52743100Y-189941200D02*
X49517300Y-189941200D01*
X49517300Y-189941200D02*
X49517300Y-184785000D01*
G36*
X49517300Y-184785000D02*
G01*
X52743100Y-184785000D01*
X52743100Y-189941200D01*
X49517300Y-189941200D01*
X49517300Y-184785000D01*
G37*
D10*
X316738000Y-103378000D02*
X319024000Y-103378000D01*
X316484000Y-108458000D02*
X319786000Y-108458000D01*
X325882000Y-109474000D02*
X332486000Y-102616000D01*
X142875000Y-168275000D02*
X143510000Y-173355000D01*
X344424000Y-194310000D02*
X345948000Y-195326000D01*
X118110000Y-107950000D02*
X130810000Y-107950000D01*
X124460000Y-82550000D02*
X25400000Y-82550000D01*
X239014000Y-189992000D02*
X239014000Y-192024000D01*
X307340000Y-197104000D02*
X307340000Y-199644000D01*
X188722000Y-201676000D02*
X194564000Y-194564000D01*
X224536000Y-107188000D02*
X227838000Y-110236000D01*
X123190000Y-84455000D02*
X124460000Y-85090000D01*
D11*
X291165144Y-130835400D02*
G75*
G03*
X291165144Y-130835400I-1147944J0D01*
G01*
D10*
X163195000Y-189865000D02*
X163195000Y-192405000D01*
D11*
X76458944Y-92633800D02*
G75*
G03*
X76458944Y-92633800I-1147944J0D01*
G01*
D10*
X307594000Y-159258000D02*
X305562000Y-160782000D01*
X190754000Y-119380000D02*
X188976000Y-114808000D01*
X69850000Y-129540000D02*
X69850000Y-134620000D01*
X383286000Y-185420000D02*
X381101600Y-168910000D01*
X93345000Y-193040000D02*
X98425000Y-188595000D01*
X128905000Y-86995000D02*
X124460000Y-82550000D01*
X371602000Y-94869000D02*
X360426000Y-94869000D01*
X319024000Y-103378000D02*
X320548000Y-104648000D01*
D11*
X377575944Y-92532200D02*
G75*
G03*
X377575944Y-92532200I-1147944J0D01*
G01*
X243794144Y-191693800D02*
G75*
G03*
X243794144Y-191693800I-1147944J0D01*
G01*
D10*
X218440000Y-194310000D02*
X220726000Y-196850000D01*
X192532000Y-141224000D02*
X194437000Y-130733800D01*
X345948000Y-195326000D02*
X349758000Y-195326000D01*
X316738000Y-133858000D02*
X313944000Y-133858000D01*
X221488000Y-196596000D02*
X221488000Y-199136000D01*
X357124000Y-136398000D02*
X354838000Y-138938000D01*
D11*
X248518544Y-106375200D02*
G75*
G03*
X248518544Y-106375200I-1147944J0D01*
G01*
D10*
X341630000Y-98552000D02*
X195326000Y-98552000D01*
X295148000Y-171196000D02*
X284734000Y-183642000D01*
D12*
G36*
X299897800Y-142900400D02*
G01*
X300888400Y-143865600D01*
X301955200Y-145034000D01*
X301980600Y-145796000D01*
X302183800Y-145923000D01*
X301752000Y-146431000D01*
X301345600Y-146710400D01*
X300913800Y-146659600D01*
X300126400Y-146659600D01*
X299135800Y-145694400D01*
X297967400Y-144272000D01*
X298831000Y-143332200D01*
X299542200Y-142722600D01*
X299897800Y-142900400D01*
G37*
X299897800Y-142900400D02*
X300888400Y-143865600D01*
X301955200Y-145034000D01*
X301980600Y-145796000D01*
X302183800Y-145923000D01*
X301752000Y-146431000D01*
X301345600Y-146710400D01*
X300913800Y-146659600D01*
X300126400Y-146659600D01*
X299135800Y-145694400D01*
X297967400Y-144272000D01*
X298831000Y-143332200D01*
X299542200Y-142722600D01*
X299897800Y-142900400D01*
D10*
X130810000Y-106680000D02*
X134620000Y-110490000D01*
X94615000Y-157480000D02*
X94615000Y-158115000D01*
X221742000Y-103378000D02*
X223266000Y-103378000D01*
D11*
X205160744Y-112039400D02*
G75*
G03*
X205160744Y-112039400I-1147944J0D01*
G01*
D10*
X113665000Y-168910000D02*
X121920000Y-177165000D01*
X195834000Y-125222000D02*
X197866000Y-127762000D01*
X81280000Y-153670000D02*
X81280000Y-164465000D01*
X355854000Y-149860000D02*
X355854000Y-151892000D01*
X149098000Y-165862000D02*
X151892000Y-165862000D01*
X338074000Y-103378000D02*
X335534000Y-103378000D01*
X169545000Y-184785000D02*
X162306000Y-174498000D01*
X194564000Y-194564000D02*
X199136000Y-194564000D01*
D11*
X233735744Y-130759200D02*
G75*
G03*
X233735744Y-130759200I-1147944J0D01*
G01*
D10*
X161036000Y-67437000D02*
X161036000Y-81407000D01*
X376936000Y-195834000D02*
X383286000Y-185420000D01*
X346456000Y-107442000D02*
X346456000Y-106172000D01*
X218948000Y-108458000D02*
X216154000Y-110744000D01*
X86995000Y-142875000D02*
X86995000Y-145415000D01*
X294640000Y-128270000D02*
X293370000Y-127254000D01*
X138430000Y-111760000D02*
X140970000Y-109220000D01*
X137160000Y-110490000D02*
X139700000Y-107950000D01*
X351282000Y-116078000D02*
X353822000Y-116078000D01*
X247650000Y-181356000D02*
X239014000Y-189992000D01*
X175514000Y-176530000D02*
X174244000Y-168148000D01*
X257048000Y-149352000D02*
X242239800Y-144449800D01*
X287274000Y-127508000D02*
X285496000Y-128524000D01*
X220218000Y-189230000D02*
X220218000Y-192532000D01*
X348488000Y-126238000D02*
X352044000Y-129794000D01*
X170180000Y-191770000D02*
X175260000Y-196850000D01*
X69850000Y-172085000D02*
X69850000Y-167640000D01*
D11*
X85907744Y-149453600D02*
G75*
G03*
X85907744Y-149453600I-1147944J0D01*
G01*
D10*
X97155000Y-151765000D02*
X94615000Y-154305000D01*
X279654000Y-188976000D02*
X282956000Y-193040000D01*
X282956000Y-193040000D02*
X285750000Y-193040000D01*
X339598000Y-147193000D02*
X344678000Y-141859000D01*
X342265000Y-121031000D02*
X346964000Y-121031000D01*
X152400000Y-192405000D02*
X154940000Y-195580000D01*
X45720000Y-150495000D02*
X40005000Y-156210000D01*
X303022000Y-194564000D02*
X304800000Y-194564000D01*
X355854000Y-151892000D02*
X350774000Y-156972000D01*
X109220000Y-184785000D02*
X109220000Y-183515000D01*
X299974000Y-153162000D02*
X302260000Y-153162000D01*
X151130000Y-96520000D02*
X165989000Y-111531400D01*
X162306000Y-174498000D02*
X155956000Y-174498000D01*
X277876000Y-108458000D02*
X282448000Y-108458000D01*
X132334000Y-198120000D02*
X150622000Y-198120000D01*
X220726000Y-196850000D02*
X220726000Y-199644000D01*
D11*
X267517744Y-106527600D02*
G75*
G03*
X267517744Y-106527600I-1147944J0D01*
G01*
D10*
X113030000Y-162560000D02*
X116205000Y-159385000D01*
X312674000Y-178562000D02*
X312928000Y-168656000D01*
X293370000Y-127254000D02*
X292227000Y-125730000D01*
X294640000Y-112014000D02*
X295579800Y-125349000D01*
X79375000Y-95250000D02*
X81280000Y-97155000D01*
X310896000Y-123444000D02*
X310896000Y-125730000D01*
X201676000Y-128524000D02*
X203200000Y-127254000D01*
X286512000Y-176530000D02*
X289306000Y-173482000D01*
X313436000Y-201422000D02*
X315722000Y-199390000D01*
X192024000Y-127762000D02*
X195326000Y-127762000D01*
X333375000Y-128397000D02*
X335915000Y-128397000D01*
X341122000Y-123698000D02*
X342646000Y-123698000D01*
X173736000Y-81534000D02*
X176403000Y-84455000D01*
X199136000Y-194564000D02*
X201422000Y-196596000D01*
X234188000Y-156210000D02*
X240284000Y-162306000D01*
X22860000Y-85090000D02*
X25400000Y-82550000D01*
X202438000Y-196342000D02*
X202692000Y-199390000D01*
X208788000Y-110744000D02*
X211582000Y-110744000D01*
X48895000Y-177800000D02*
X94615000Y-177800000D01*
D11*
X71988544Y-163576000D02*
G75*
G03*
X71988544Y-163576000I-1147944J0D01*
G01*
D10*
X178181000Y-84455000D02*
X176403000Y-84455000D01*
X180086000Y-164084000D02*
X180086000Y-158496000D01*
X143510000Y-92710000D02*
X143510000Y-110490000D01*
X304800000Y-194564000D02*
X307340000Y-197104000D01*
X48260000Y-137160000D02*
X40005000Y-137160000D01*
D11*
X138739744Y-192151000D02*
G75*
G03*
X138739744Y-192151000I-1147944J0D01*
G01*
D10*
X202692000Y-199390000D02*
X203962000Y-200406000D01*
X166878000Y-201422000D02*
X188722000Y-201676000D01*
X351536000Y-130302000D02*
X351282000Y-129921000D01*
X218338400Y-149250400D02*
X213487000Y-130048000D01*
X150901400Y-197612000D02*
X155194000Y-201930000D01*
X77470000Y-157480000D02*
X70840600Y-163576000D01*
X33528000Y-162306000D02*
X34798000Y-157480000D01*
X340360000Y-152527000D02*
X338709000Y-152527000D01*
X353314000Y-95504000D02*
X355854000Y-97282000D01*
D11*
X176534944Y-130454400D02*
G75*
G03*
X176534944Y-130454400I-1147944J0D01*
G01*
D10*
X290068000Y-108204000D02*
X296672000Y-107950000D01*
X172720000Y-193040000D02*
X175260000Y-195580000D01*
X188976000Y-110236000D02*
X186182000Y-107442000D01*
X91440000Y-87630000D02*
X81280000Y-87630000D01*
D11*
X91648144Y-163423600D02*
G75*
G03*
X91648144Y-163423600I-1147944J0D01*
G01*
D10*
X282448000Y-108458000D02*
X284480000Y-109728000D01*
X130048000Y-111506000D02*
X137160000Y-115570000D01*
X331978000Y-199898000D02*
X337566000Y-194310000D01*
X305054000Y-193548000D02*
X308356000Y-196850000D01*
X211582000Y-110744000D02*
X214630000Y-113538000D01*
X295402000Y-201422000D02*
X303022000Y-194564000D01*
X153670000Y-188595000D02*
X153670000Y-192405000D01*
X170815000Y-187325000D02*
X172720000Y-189865000D01*
X29845000Y-136525000D02*
X32385000Y-139065000D01*
X82550000Y-145415000D02*
X85090000Y-145415000D01*
X201676000Y-189230000D02*
X201168000Y-192532000D01*
D11*
X257916544Y-125603000D02*
G75*
G03*
X257916544Y-125603000I-1147944J0D01*
G01*
D10*
X354076000Y-199390000D02*
X373380000Y-199390000D01*
X200914000Y-109982000D02*
X202438000Y-108712000D01*
X336804000Y-108712000D02*
X338582000Y-108712000D01*
D11*
X367974744Y-163550600D02*
G75*
G03*
X367974744Y-163550600I-1147944J0D01*
G01*
D10*
X347980000Y-107442000D02*
X345186000Y-110236000D01*
X240284000Y-200660000D02*
X241046000Y-200914000D01*
X205994000Y-195072000D02*
X230886000Y-170942000D01*
X149860000Y-96520000D02*
X149860000Y-78740000D01*
X56515000Y-139700000D02*
X56515000Y-149225000D01*
X355854000Y-97282000D02*
X369570000Y-125476000D01*
X58420000Y-119380000D02*
X51917600Y-125399800D01*
X159004000Y-106172000D02*
X149860000Y-96520000D01*
X336804000Y-184785000D02*
X329006200Y-192278000D01*
X145796000Y-148844000D02*
X142748000Y-145796000D01*
X338074000Y-190246000D02*
X347726000Y-190246000D01*
X247396000Y-180086000D02*
X238252000Y-189230000D01*
X141986000Y-128270000D02*
X139192000Y-125476000D01*
X27660600Y-141972088D02*
X27940000Y-148590000D01*
X86995000Y-163830000D02*
X89535000Y-166370000D01*
X307848000Y-160020000D02*
X313436000Y-160020000D01*
X339090000Y-120142000D02*
X347599000Y-120142000D01*
X81026000Y-164846000D02*
X85598000Y-164846000D01*
X272034000Y-188976000D02*
X279654000Y-188976000D01*
X209550000Y-165354000D02*
X211836000Y-167894000D01*
X271526000Y-179324000D02*
X279146000Y-171450000D01*
X251206000Y-91186000D02*
X277622000Y-91440000D01*
X342138000Y-97536000D02*
X195834000Y-97536000D01*
X198882000Y-165354000D02*
X198882000Y-160782000D01*
X320040000Y-107696000D02*
X315468000Y-107696000D01*
X158750000Y-118745000D02*
X159004000Y-106172000D01*
X95250000Y-179070000D02*
X100330000Y-173990000D01*
X176276000Y-116840000D02*
X185420000Y-126746000D01*
X147320000Y-105410000D02*
X148590000Y-92075000D01*
X203708000Y-170434000D02*
X203708000Y-167132000D01*
X88900000Y-156845000D02*
X86995000Y-159385000D01*
X64135000Y-165100000D02*
X64135000Y-158750000D01*
X322834000Y-111252000D02*
X322834000Y-113284000D01*
D11*
X296727744Y-125349000D02*
G75*
G03*
X296727744Y-125349000I-1147944J0D01*
G01*
D10*
X228092000Y-192024000D02*
X228346000Y-188976000D01*
X245110000Y-177800000D02*
X233426000Y-189484000D01*
X205740000Y-102616000D02*
X194564000Y-102616000D01*
X240284000Y-162306000D02*
X240284000Y-174498000D01*
X139700000Y-129540000D02*
X137795000Y-127635000D01*
X33655000Y-98425000D02*
X35560000Y-108585000D01*
X160020000Y-194945000D02*
X163195000Y-192405000D01*
D11*
X200690344Y-125399800D02*
G75*
G03*
X200690344Y-125399800I-1147944J0D01*
G01*
D10*
X180086000Y-125476000D02*
X161798000Y-125450600D01*
X241300000Y-143256000D02*
X235712000Y-128270000D01*
X51435000Y-163195000D02*
X57785000Y-163195000D01*
X271780000Y-174752000D02*
X271780000Y-163576000D01*
X104140000Y-107950000D02*
X118110000Y-107950000D01*
D11*
X243387744Y-144449800D02*
G75*
G03*
X243387744Y-144449800I-1147944J0D01*
G01*
D10*
X122555000Y-196215000D02*
X125730000Y-193040000D01*
X172720000Y-90932000D02*
X185166000Y-90932000D01*
X154432000Y-119888000D02*
X157480000Y-119888000D01*
X187706000Y-135636000D02*
X187706000Y-124714000D01*
X90068400Y-104775000D02*
X89535000Y-99695000D01*
X161036000Y-78740000D02*
X161036000Y-84074000D01*
X66675000Y-102235000D02*
X58420000Y-106680000D01*
X198374000Y-129540000D02*
X195580000Y-126746000D01*
X300990000Y-108458000D02*
X298450000Y-108458000D01*
X46355000Y-169545000D02*
X45085000Y-172085000D01*
X146050000Y-78740000D02*
X146050000Y-90170000D01*
D11*
X67035544Y-168605200D02*
G75*
G03*
X67035544Y-168605200I-1147944J0D01*
G01*
D10*
X342696800Y-197408800D02*
X337058000Y-202692000D01*
X93345000Y-194945000D02*
X99060000Y-189865000D01*
X225044000Y-164846000D02*
X223012000Y-162560000D01*
X234950000Y-110236000D02*
X242214400Y-111658400D01*
X314198000Y-198882000D02*
X314452000Y-197612000D01*
X296672000Y-107950000D02*
X298704000Y-107442000D01*
X198882000Y-128524000D02*
X201676000Y-128524000D01*
X260096000Y-201168000D02*
X275844000Y-201168000D01*
X318389000Y-148336000D02*
X315341000Y-145669000D01*
X283210000Y-176530000D02*
X286512000Y-176530000D01*
X304292000Y-160147000D02*
X307594000Y-157861000D01*
X273304000Y-136398000D02*
X273304000Y-138176000D01*
X162306000Y-174498000D02*
X169164000Y-170180000D01*
D11*
X247705744Y-168402000D02*
G75*
G03*
X247705744Y-168402000I-1147944J0D01*
G01*
D10*
X64135000Y-158750000D02*
X69850000Y-153035000D01*
X50800000Y-133985000D02*
X56515000Y-139700000D01*
X188722000Y-131318000D02*
X193802000Y-131318000D01*
X248920000Y-84328000D02*
X182626000Y-84328000D01*
X271221200Y-163499800D02*
X268478000Y-157226000D01*
D11*
X272546944Y-130479800D02*
G75*
G03*
X272546944Y-130479800I-1147944J0D01*
G01*
D10*
X70485000Y-110490000D02*
X74295000Y-110490000D01*
X143002000Y-121158000D02*
X165862000Y-121158000D01*
X179705000Y-193040000D02*
X179705000Y-186690000D01*
X183134000Y-85344000D02*
X239776000Y-85344000D01*
X132080000Y-125730000D02*
X132080000Y-123825000D01*
X374142000Y-106045000D02*
X374269000Y-106807000D01*
D11*
X72013944Y-106603800D02*
G75*
G03*
X72013944Y-106603800I-1147944J0D01*
G01*
D10*
X140970000Y-109220000D02*
X140970000Y-90170000D01*
X224028000Y-180848000D02*
X226822000Y-180594000D01*
X132080000Y-193040000D02*
X135890000Y-196850000D01*
X152400000Y-89408000D02*
X168148000Y-105156000D01*
X340868000Y-100838000D02*
X194564000Y-100838000D01*
X55880000Y-96520000D02*
X66649600Y-88900000D01*
D11*
X152049344Y-197612000D02*
G75*
G03*
X152049344Y-197612000I-1147944J0D01*
G01*
D10*
X132715000Y-175260000D02*
X139700000Y-175260000D01*
X253238000Y-172720000D02*
X247904000Y-177800000D01*
X176276000Y-94234000D02*
X187198000Y-105156000D01*
X81915000Y-165735000D02*
X85090000Y-165735000D01*
X341122000Y-110998000D02*
X341122000Y-114046000D01*
X172466000Y-81534000D02*
X176149000Y-85344000D01*
X257302000Y-193294000D02*
X260604000Y-196342000D01*
X135890000Y-67437000D02*
X135890000Y-81407000D01*
D11*
X354563544Y-125095000D02*
G75*
G03*
X354563544Y-125095000I-1147944J0D01*
G01*
X233837344Y-163245800D02*
G75*
G03*
X233837344Y-163245800I-1147944J0D01*
G01*
D10*
X318008000Y-149352000D02*
X318770000Y-152654000D01*
X120015000Y-130175000D02*
X135890000Y-130175000D01*
X323596000Y-109474000D02*
X325882000Y-109474000D01*
X288798000Y-202692000D02*
X376174000Y-202692000D01*
X169926000Y-82042000D02*
X174879000Y-87249000D01*
X219964000Y-108712000D02*
X219964000Y-104902000D01*
X48895000Y-175895000D02*
X94615000Y-175895000D01*
X221488000Y-199136000D02*
X223012000Y-199898000D01*
X266369800Y-106527600D02*
X270764000Y-101600000D01*
X225552000Y-106934000D02*
X225552000Y-104140000D01*
X256768600Y-125603000D02*
X263398000Y-132207000D01*
X340360000Y-106934000D02*
X342900000Y-109220000D01*
X302260000Y-153162000D02*
X308356000Y-147320000D01*
X256540000Y-194564000D02*
X259334000Y-197358000D01*
X133350000Y-92710000D02*
X126492000Y-92710000D01*
X206248000Y-101600000D02*
X210058000Y-105943400D01*
X50800000Y-129540000D02*
X59690000Y-129540000D01*
X324104000Y-158750000D02*
X315722000Y-159258000D01*
X264922000Y-153924000D02*
X264922000Y-158242000D01*
X214630000Y-112014000D02*
X216154000Y-112014000D01*
X139192000Y-123444000D02*
X143002000Y-121158000D01*
X253492000Y-193802000D02*
X256794000Y-193802000D01*
X373380000Y-199390000D02*
X376936000Y-195834000D01*
X325120000Y-164592000D02*
X325120000Y-162560000D01*
D11*
X339831544Y-144094200D02*
G75*
G03*
X339831544Y-144094200I-1147944J0D01*
G01*
D10*
X209804000Y-164338000D02*
X212852000Y-167640000D01*
X184150000Y-148844000D02*
X184150000Y-153416000D01*
X218440000Y-125476000D02*
X227076000Y-122174000D01*
X195580000Y-122682000D02*
X195834000Y-125222000D01*
X336804000Y-132334000D02*
X336042000Y-133604000D01*
X138430000Y-143002000D02*
X147574000Y-134112000D01*
X150368000Y-147574000D02*
X153670000Y-151384000D01*
X153670000Y-192405000D02*
X155575000Y-194945000D01*
X30480000Y-176530000D02*
X26670000Y-176530000D01*
X223012000Y-156210000D02*
X218338400Y-149250400D01*
X345313000Y-144018000D02*
X343535000Y-145669000D01*
X246634000Y-196342000D02*
X267716000Y-175768000D01*
X257810000Y-163068000D02*
X257810000Y-172720000D01*
X188722000Y-123952000D02*
X188722000Y-131318000D01*
X129540000Y-180340000D02*
X143002000Y-180340000D01*
X74295000Y-115570000D02*
X67945000Y-122555000D01*
X129540000Y-90170000D02*
X133350000Y-90170000D01*
X218694000Y-129540000D02*
X215646000Y-126746000D01*
X262382000Y-194818000D02*
X261112000Y-194818000D01*
X337820000Y-130556000D02*
X337820000Y-133096000D01*
X187706000Y-124714000D02*
X180594000Y-116840000D01*
X182626000Y-84328000D02*
X179578000Y-87249000D01*
X85725000Y-130530600D02*
X97155000Y-145415000D01*
X102870000Y-120650000D02*
X95250000Y-120650000D01*
X308356000Y-199136000D02*
X309880000Y-200406000D01*
D11*
X224540944Y-144602200D02*
G75*
G03*
X224540944Y-144602200I-1147944J0D01*
G01*
D10*
X285750000Y-193040000D02*
X286258000Y-193294000D01*
X214376000Y-163068000D02*
X227533200Y-168554400D01*
X298450000Y-122428000D02*
X309372000Y-122428000D01*
X81280000Y-97155000D02*
X93345000Y-97155000D01*
X328168000Y-122428000D02*
X329946000Y-123952000D01*
D11*
X353191944Y-150164800D02*
G75*
G03*
X353191944Y-150164800I-1147944J0D01*
G01*
D10*
X179070000Y-196850000D02*
X180975000Y-193675000D01*
X358267000Y-131572000D02*
X358267000Y-137033000D01*
X331978000Y-196342000D02*
X338074000Y-190246000D01*
X360426000Y-128524000D02*
X353415600Y-125095000D01*
X312928000Y-168656000D02*
X311658000Y-167640000D01*
X314452000Y-197612000D02*
X319024000Y-193548000D01*
X97155000Y-145415000D02*
X97155000Y-151765000D01*
X353695000Y-141097000D02*
X342519000Y-141097000D01*
X247370600Y-106375200D02*
X251714000Y-101600000D01*
X185420000Y-133096000D02*
X182372000Y-135890000D01*
X146050000Y-90170000D02*
X143510000Y-92710000D01*
X325120000Y-162560000D02*
X327660000Y-160020000D01*
X282194000Y-95504000D02*
X353314000Y-95504000D01*
X358902000Y-93218000D02*
X355092000Y-84709000D01*
X272288000Y-127254000D02*
X269748000Y-127254000D01*
X263398000Y-138557000D02*
X267716000Y-140081000D01*
X40005000Y-167640000D02*
X48895000Y-175895000D01*
D11*
X343844744Y-197408800D02*
G75*
G03*
X343844744Y-197408800I-1147944J0D01*
G01*
D10*
X94615000Y-154305000D02*
X94615000Y-157480000D01*
X295148000Y-164846000D02*
X295148000Y-171196000D01*
X147320000Y-194310000D02*
X151130000Y-194310000D01*
X156845000Y-198120000D02*
X160655000Y-198120000D01*
X143510000Y-110490000D02*
X137160000Y-116840000D01*
X237490000Y-193802000D02*
X241046000Y-197104000D01*
X324612000Y-194310000D02*
X327152000Y-196850000D01*
X204978000Y-164338000D02*
X209804000Y-164338000D01*
X136525000Y-195580000D02*
X143510000Y-195580000D01*
X273050000Y-138684000D02*
X267716000Y-140081000D01*
D11*
X205490944Y-191820800D02*
G75*
G03*
X205490944Y-191820800I-1147944J0D01*
G01*
D10*
X319532000Y-194310000D02*
X324104000Y-194310000D01*
X291084000Y-174244000D02*
X291084000Y-163830000D01*
X381381000Y-197281800D02*
X388620000Y-197104000D01*
X107950000Y-198120000D02*
X111760000Y-202565000D01*
X155448000Y-126746000D02*
X147828000Y-126746000D01*
X213106000Y-109220000D02*
X209296000Y-109220000D01*
D11*
X315193544Y-149809200D02*
G75*
G03*
X315193544Y-149809200I-1147944J0D01*
G01*
D10*
X376301000Y-127000000D02*
X376174000Y-122174000D01*
X73660000Y-193040000D02*
X93345000Y-193040000D01*
X199390000Y-193802000D02*
X202438000Y-196342000D01*
D11*
X119537344Y-192227200D02*
G75*
G03*
X119537344Y-192227200I-1147944J0D01*
G01*
D10*
X254000000Y-194564000D02*
X256540000Y-194564000D01*
D11*
X287024944Y-106273600D02*
G75*
G03*
X287024944Y-106273600I-1147944J0D01*
G01*
D10*
X308356000Y-168402000D02*
X308102000Y-180594000D01*
X190500000Y-180340000D02*
X201930000Y-169672000D01*
X261747000Y-111607600D02*
X259080000Y-109474000D01*
X142748000Y-145796000D02*
X139192000Y-145796000D01*
X89535000Y-99695000D02*
X68580000Y-99695000D01*
X332486000Y-132588000D02*
X332232000Y-129794000D01*
X144272000Y-145034000D02*
X146812000Y-147574000D01*
X351282000Y-129921000D02*
X348234000Y-127000000D01*
X25400000Y-81280000D02*
X124460000Y-81280000D01*
X154940000Y-78740000D02*
X154940000Y-85344000D01*
X40005000Y-119380000D02*
X40005000Y-139065000D01*
X135890000Y-196850000D02*
X144145000Y-196850000D01*
X313436000Y-129159000D02*
X310261000Y-126619000D01*
X290068000Y-121920000D02*
X269240000Y-121920000D01*
X161798000Y-201422000D02*
X166624000Y-201422000D01*
X113665000Y-168910000D02*
X97790000Y-168910000D01*
D11*
X257738744Y-149656800D02*
G75*
G03*
X257738744Y-149656800I-1147944J0D01*
G01*
D10*
X193548000Y-168656000D02*
X200152000Y-168656000D01*
X333756000Y-180848000D02*
X312928000Y-196088000D01*
X201930000Y-169672000D02*
X202184000Y-166624000D01*
X194564000Y-102616000D02*
X190246000Y-106680000D01*
X237744000Y-163576000D02*
X237744000Y-171704000D01*
X319786000Y-128016000D02*
X318262000Y-129540000D01*
X97790000Y-164465000D02*
X90500200Y-164465000D01*
X239776000Y-85344000D02*
X243078000Y-88900000D01*
X305562000Y-160782000D02*
X305562000Y-165608000D01*
X295656000Y-146558000D02*
X298196000Y-148590000D01*
X223012000Y-162560000D02*
X223012000Y-156210000D01*
X147320000Y-193040000D02*
X151130000Y-193040000D01*
X112395000Y-136525000D02*
X117475000Y-136525000D01*
X98425000Y-170180000D02*
X113030000Y-170180000D01*
X356870000Y-148844000D02*
X360172000Y-148844000D01*
X119380000Y-139065000D02*
X135890000Y-139065000D01*
X309981600Y-191871600D02*
X323545200Y-168732200D01*
X250952000Y-171704000D02*
X250952000Y-166370000D01*
X87630000Y-147955000D02*
X87630000Y-156210000D01*
X350266000Y-145288000D02*
X353568000Y-145288000D01*
X245110000Y-109474000D02*
X243332000Y-108204000D01*
X114935000Y-182245000D02*
X107950000Y-189230000D01*
X277622000Y-159004000D02*
X277622000Y-170942000D01*
D11*
X387126344Y-163601400D02*
G75*
G03*
X387126344Y-163601400I-1147944J0D01*
G01*
D10*
X134620000Y-168275000D02*
X142875000Y-168275000D01*
X206248000Y-105410000D02*
X205740000Y-102616000D01*
X146558000Y-148336000D02*
X149606000Y-148336000D01*
X73025000Y-173355000D02*
X81280000Y-166370000D01*
X388620000Y-197104000D02*
X391668000Y-192786000D01*
X319024000Y-193548000D02*
X319786000Y-193294000D01*
X125730000Y-193040000D02*
X132080000Y-193040000D01*
X267462000Y-165608000D02*
X267462000Y-161036000D01*
X149352000Y-164846000D02*
X145796000Y-161036000D01*
X143510000Y-173355000D02*
X158115000Y-191135000D01*
X249682000Y-166878000D02*
X248158000Y-165100000D01*
D11*
X53167144Y-87503000D02*
G75*
G03*
X53167144Y-87503000I-1147944J0D01*
G01*
D10*
X137668000Y-145288000D02*
X138684000Y-146558000D01*
X327152000Y-146558000D02*
X333756000Y-146558000D01*
X167005000Y-194310000D02*
X170815000Y-194310000D01*
X347980000Y-127762000D02*
X343916000Y-127762000D01*
X203962000Y-200406000D02*
X206756000Y-200406000D01*
X69850000Y-134620000D02*
X69850000Y-144678400D01*
X356743000Y-128270000D02*
X359283000Y-131064000D01*
X181864000Y-145288000D02*
X177292000Y-145288000D01*
X289306000Y-173482000D02*
X289306000Y-166878000D01*
X228092000Y-164846000D02*
X225044000Y-164846000D01*
X164846000Y-78740000D02*
X164846000Y-83058000D01*
X40005000Y-156210000D02*
X40005000Y-167640000D01*
D11*
X238714144Y-149504400D02*
G75*
G03*
X238714144Y-149504400I-1147944J0D01*
G01*
D10*
X263398000Y-195580000D02*
X283210000Y-176530000D01*
X204978000Y-107188000D02*
X208788000Y-110744000D01*
X373888000Y-165100000D02*
X385064000Y-163601400D01*
X147320000Y-91440000D02*
X144780000Y-93980000D01*
D11*
X277372944Y-125526800D02*
G75*
G03*
X277372944Y-125526800I-1147944J0D01*
G01*
D10*
X243078000Y-88900000D02*
X248920000Y-88900000D01*
X221234000Y-102616000D02*
X218948000Y-104394000D01*
X313182000Y-130302000D02*
X310134000Y-127508000D01*
X239014000Y-192024000D02*
X242062000Y-194818000D01*
X56515000Y-99060000D02*
X64135000Y-92075000D01*
X353568000Y-145288000D02*
X356870000Y-148844000D01*
X267843000Y-139065000D02*
X269748000Y-137541000D01*
X173482000Y-180594000D02*
X176022000Y-183642000D01*
X174244000Y-149352000D02*
X174244000Y-163576000D01*
X140970000Y-175260000D02*
X152400000Y-189230000D01*
X226822000Y-180594000D02*
X236220000Y-171196000D01*
X320548000Y-106934000D02*
X323596000Y-109474000D01*
X202438000Y-108712000D02*
X204216000Y-108712000D01*
X170180000Y-145034000D02*
X172974000Y-145034000D01*
X287274000Y-192024000D02*
X287274000Y-188722000D01*
X336931000Y-129921000D02*
X336804000Y-132334000D01*
X223266000Y-103378000D02*
X224536000Y-104394000D01*
X160020000Y-200660000D02*
X167005000Y-194310000D01*
D11*
X286288344Y-168529000D02*
G75*
G03*
X286288344Y-168529000I-1147944J0D01*
G01*
D10*
X372364000Y-138430000D02*
X355346000Y-100965000D01*
X66675000Y-163830000D02*
X71120000Y-167640000D01*
X89484200Y-189103000D02*
X89535000Y-193040000D01*
X187198000Y-107188000D02*
X189738000Y-109474000D01*
X167386000Y-145542000D02*
X169672000Y-146812000D01*
X360426000Y-94869000D02*
X358902000Y-93218000D01*
X133350000Y-84455000D02*
X133350000Y-78740000D01*
X208432400Y-168935400D02*
X194310000Y-183642000D01*
X343154000Y-116078000D02*
X351282000Y-116078000D01*
X92710000Y-91440000D02*
X97790000Y-96520000D01*
X38100000Y-187388500D02*
X30480000Y-177800000D01*
D11*
X248391544Y-92608400D02*
G75*
G03*
X248391544Y-92608400I-1147944J0D01*
G01*
D10*
X318770000Y-147574000D02*
X321310000Y-147574000D01*
D11*
X262437744Y-144653000D02*
G75*
G03*
X262437744Y-144653000I-1147944J0D01*
G01*
X349000944Y-192074800D02*
G75*
G03*
X349000944Y-192074800I-1147944J0D01*
G01*
X28808544Y-139776200D02*
G75*
G03*
X28808544Y-139776200I-1147944J0D01*
G01*
D10*
X357632000Y-147320000D02*
X361696000Y-147447000D01*
X199898000Y-109728000D02*
X199898000Y-113792000D01*
X216154000Y-112014000D02*
X219964000Y-108712000D01*
X66675000Y-161925000D02*
X66675000Y-163830000D01*
X182118000Y-134874000D02*
X148336000Y-134874000D01*
X67945000Y-125730000D02*
X68580000Y-127000000D01*
X224282000Y-108204000D02*
X227076000Y-110744000D01*
X291592000Y-127508000D02*
X287274000Y-127508000D01*
X133350000Y-191135000D02*
X136525000Y-195580000D01*
X217424000Y-130302000D02*
X217424000Y-136144000D01*
X260858000Y-195580000D02*
X263398000Y-195580000D01*
X184150000Y-132842000D02*
X182118000Y-134874000D01*
D11*
X252988944Y-130378200D02*
G75*
G03*
X252988944Y-130378200I-1147944J0D01*
G01*
D10*
X328269600Y-130683000D02*
X323977000Y-135255000D01*
D11*
X329722344Y-163576000D02*
G75*
G03*
X329722344Y-163576000I-1147944J0D01*
G01*
D10*
X74295000Y-110490000D02*
X74295000Y-115570000D01*
X213487000Y-130048000D02*
X204012800Y-112039400D01*
X113792000Y-197358000D02*
X132232400Y-197434200D01*
X315722000Y-144526000D02*
X318770000Y-147574000D01*
D11*
X382655944Y-87706200D02*
G75*
G03*
X382655944Y-87706200I-1147944J0D01*
G01*
D10*
X337820000Y-133096000D02*
X336296000Y-134620000D01*
X245110000Y-195580000D02*
X270256000Y-171196000D01*
X180594000Y-109474000D02*
X184150000Y-108712000D01*
D11*
X305160544Y-197764400D02*
G75*
G03*
X305160544Y-197764400I-1147944J0D01*
G01*
D10*
X167894000Y-165608000D02*
X161290000Y-172466000D01*
X163576000Y-83058000D02*
X172212000Y-91948000D01*
X137668000Y-142748000D02*
X137668000Y-145288000D01*
X166624000Y-201422000D02*
X169418000Y-198120000D01*
X48260000Y-127000000D02*
X50800000Y-129540000D01*
X165354000Y-140970000D02*
X170180000Y-145034000D01*
X287274000Y-163322000D02*
X287274000Y-160274000D01*
X138176000Y-125730000D02*
X138176000Y-122936000D01*
X130810000Y-177165000D02*
X132715000Y-175260000D01*
X258318000Y-188722000D02*
X267970000Y-179324000D01*
X304165000Y-188468000D02*
X306324000Y-193548000D01*
X335915000Y-128397000D02*
X342265000Y-121031000D01*
X100330000Y-173990000D02*
X112395000Y-173990000D01*
X335026000Y-142748000D02*
X335026000Y-145288000D01*
D11*
X191571744Y-106299000D02*
G75*
G03*
X191571744Y-106299000I-1147944J0D01*
G01*
D10*
X209296000Y-109220000D02*
X206502000Y-106680000D01*
X303022000Y-147701000D02*
X299339000Y-147701000D01*
D11*
X124388744Y-87731600D02*
G75*
G03*
X124388744Y-87731600I-1147944J0D01*
G01*
D10*
X148336000Y-134874000D02*
X143256000Y-139700000D01*
X353060000Y-146177000D02*
X349631000Y-146177000D01*
X303022000Y-146177000D02*
X304165000Y-145034000D01*
X58420000Y-106680000D02*
X58420000Y-119380000D01*
X319176400Y-111760000D02*
X334187800Y-125145800D01*
X194818000Y-202438000D02*
X208280000Y-202438000D01*
X196850000Y-167386000D02*
X198882000Y-165354000D01*
D11*
X229874944Y-106045000D02*
G75*
G03*
X229874944Y-106045000I-1147944J0D01*
G01*
D10*
X251841000Y-130175000D02*
X262001000Y-139827000D01*
X194564000Y-100838000D02*
X184404000Y-91948000D01*
X133985000Y-123825000D02*
X135890000Y-121920000D01*
X138430000Y-87630000D02*
X133350000Y-92710000D01*
X67310000Y-146050000D02*
X67310000Y-140335000D01*
X318516000Y-139446000D02*
X315468000Y-141478000D01*
X32385000Y-139065000D02*
X34925000Y-139065000D01*
X163576000Y-67437000D02*
X163576000Y-81407000D01*
X327152000Y-196850000D02*
X327152000Y-199136000D01*
X186690000Y-89154000D02*
X173990000Y-89154000D01*
X289306000Y-201422000D02*
X295402000Y-201422000D01*
X329946000Y-123952000D02*
X329946000Y-125984000D01*
X45720000Y-180340000D02*
X82550000Y-180340000D01*
X145034000Y-149098000D02*
X145034000Y-161544000D01*
D11*
X377398144Y-149555200D02*
G75*
G03*
X377398144Y-149555200I-1147944J0D01*
G01*
D10*
X147320000Y-111125000D02*
X147320000Y-105410000D01*
X352425000Y-129032000D02*
X355854000Y-129032000D01*
X45720000Y-126365000D02*
X50800000Y-130810000D01*
X94615000Y-158115000D02*
X98425000Y-162560000D01*
X189738000Y-120904000D02*
X189738000Y-124968000D01*
X132080000Y-173355000D02*
X140970000Y-173355000D01*
X114935000Y-154940000D02*
X107950000Y-147320000D01*
X312166000Y-109474000D02*
X316738000Y-103378000D01*
X203708000Y-167132000D02*
X205486000Y-165354000D01*
X162052000Y-202438000D02*
X194818000Y-202438000D01*
X190754000Y-105156000D02*
X187452000Y-100076000D01*
X389255000Y-81407000D02*
X181356000Y-81407000D01*
X120015000Y-130175000D02*
X120015000Y-135102600D01*
X154178000Y-168148000D02*
X154178000Y-172212000D01*
X48895000Y-126365000D02*
X50800000Y-128270000D01*
X251460000Y-96393000D02*
X247243600Y-92608400D01*
X194818000Y-202438000D02*
X198424800Y-197612000D01*
X46939200Y-93345000D02*
X46990000Y-107950000D01*
X180594000Y-116840000D02*
X180594000Y-109474000D01*
X309448200Y-130810000D02*
X306070000Y-135128000D01*
X205232000Y-130302000D02*
X205232000Y-117348000D01*
X118745000Y-164465000D02*
X97790000Y-164465000D01*
X227838000Y-109220000D02*
X225552000Y-106934000D01*
X139700000Y-81407000D02*
X139700000Y-67437000D01*
X347776800Y-163753800D02*
X361950000Y-168554400D01*
X293624000Y-146558000D02*
X295656000Y-146558000D01*
X220218000Y-143764000D02*
X220218000Y-146050000D01*
X246557800Y-168148000D02*
X223012000Y-191770000D01*
X98425000Y-162560000D02*
X113030000Y-162560000D01*
X344424000Y-149352000D02*
X344424000Y-146050000D01*
X334772000Y-154940000D02*
X347472000Y-154940000D01*
X307467000Y-144018000D02*
X312166000Y-137922000D01*
X155575000Y-200660000D02*
X160020000Y-200660000D01*
D11*
X285704144Y-197739000D02*
G75*
G03*
X285704144Y-197739000I-1147944J0D01*
G01*
D10*
X259334000Y-200406000D02*
X260096000Y-201168000D01*
X189738000Y-124968000D02*
X192024000Y-127762000D01*
X154305000Y-196850000D02*
X154305000Y-200025000D01*
X287528000Y-164846000D02*
X287274000Y-163322000D01*
X111760000Y-202565000D02*
X148590000Y-202184000D01*
X344678000Y-109220000D02*
X346456000Y-107442000D01*
X333756000Y-180848000D02*
X328574400Y-163322000D01*
X146050000Y-67437000D02*
X146050000Y-81407000D01*
X144780000Y-67437000D02*
X144780000Y-81407000D01*
X352679000Y-128270000D02*
X356743000Y-128270000D01*
X142875000Y-168275000D02*
X142875000Y-150495000D01*
X160883600Y-149275800D02*
X176276000Y-163347400D01*
X343535000Y-148971000D02*
X340360000Y-152527000D01*
X141478000Y-129032000D02*
X138176000Y-125730000D01*
X202946000Y-195834000D02*
X206756000Y-195834000D01*
X294894000Y-200406000D02*
X302768000Y-193548000D01*
X385572000Y-158750000D02*
X373380000Y-158750000D01*
X264414000Y-138049000D02*
X267843000Y-139065000D01*
X232918000Y-191262000D02*
X234950000Y-193040000D01*
X144145000Y-196850000D02*
X147320000Y-194310000D01*
X134620000Y-85090000D02*
X132715000Y-86995000D01*
X27940000Y-161290000D02*
X27940000Y-166370000D01*
X338709000Y-152527000D02*
X337312000Y-151511000D01*
X79375000Y-160020000D02*
X79375000Y-149225000D01*
X365252000Y-151003000D02*
X365252000Y-163068000D01*
X153670000Y-151384000D02*
X153670000Y-164084000D01*
X123190000Y-84455000D02*
X41275000Y-84455000D01*
X178054000Y-200660000D02*
X182118000Y-196342000D01*
X376174000Y-122174000D02*
X372110000Y-117094000D01*
X112395000Y-172720000D02*
X118745000Y-179705000D01*
X89535000Y-167640000D02*
X114300000Y-167640000D01*
X378714000Y-165608000D02*
X383032000Y-165608000D01*
X287274000Y-160274000D02*
X288290000Y-159512000D01*
X175514000Y-176530000D02*
X173482000Y-180594000D01*
X50800000Y-128270000D02*
X56515000Y-128270000D01*
X85725000Y-158115000D02*
X85725000Y-163830000D01*
X81280000Y-166370000D02*
X81915000Y-165735000D01*
X157480000Y-67437000D02*
X157480000Y-81407000D01*
X192532000Y-153670000D02*
X192532000Y-141224000D01*
X269748000Y-137541000D02*
X270002000Y-135890000D01*
X102870000Y-148590000D02*
X96520000Y-154940000D01*
X256540000Y-172212000D02*
X248920000Y-179832000D01*
X27940000Y-116840000D02*
X39370000Y-116840000D01*
X224536000Y-104394000D02*
X224536000Y-107188000D01*
X25400000Y-152400000D02*
X25400000Y-158750000D01*
X333756000Y-160020000D02*
X342646000Y-168503600D01*
X337312000Y-151511000D02*
X337058000Y-148717000D01*
D11*
X176839744Y-192049400D02*
G75*
G03*
X176839744Y-192049400I-1147944J0D01*
G01*
D10*
X302768000Y-193548000D02*
X305054000Y-193548000D01*
X210058000Y-105943400D02*
X214122000Y-101600000D01*
X180848000Y-106172000D02*
X176784000Y-96774000D01*
X147320000Y-78740000D02*
X147320000Y-91440000D01*
D11*
X138028544Y-130911600D02*
G75*
G03*
X138028544Y-130911600I-1147944J0D01*
G01*
D10*
X134620000Y-67437000D02*
X134620000Y-81407000D01*
X155956000Y-167386000D02*
X162306000Y-167386000D01*
X245872000Y-173990000D02*
X249682000Y-170688000D01*
X232410000Y-101600000D02*
X228727000Y-106045000D01*
X208280000Y-114300000D02*
X208280000Y-111252000D01*
X67945000Y-122555000D02*
X67945000Y-125730000D01*
X138430000Y-121920000D02*
X142240000Y-118745000D01*
X159512000Y-201930000D02*
X161798000Y-201422000D01*
X285750000Y-187198000D02*
X285750000Y-184150000D01*
X118745000Y-184150000D02*
X114300000Y-187960000D01*
X100330000Y-95250000D02*
X91440000Y-87630000D01*
X172720000Y-189865000D02*
X172720000Y-193040000D01*
X156210000Y-67437000D02*
X156210000Y-81407000D01*
D11*
X291469944Y-163474400D02*
G75*
G03*
X291469944Y-163474400I-1147944J0D01*
G01*
X195813544Y-163576000D02*
G75*
G03*
X195813544Y-163576000I-1147944J0D01*
G01*
D10*
X81280000Y-164465000D02*
X72390000Y-172085000D01*
X164846000Y-67437000D02*
X164846000Y-81407000D01*
X336296000Y-149098000D02*
X336296000Y-152400000D01*
X46990000Y-107950000D02*
X50800000Y-111125000D01*
X167005000Y-191770000D02*
X170180000Y-191770000D01*
X337820000Y-147193000D02*
X339598000Y-147193000D01*
X128905000Y-173990000D02*
X134620000Y-168275000D01*
X275844000Y-201168000D02*
X282956000Y-194564000D01*
X342900000Y-109220000D02*
X344678000Y-109220000D01*
X354330000Y-145161000D02*
X357251000Y-148082000D01*
X378460000Y-146304000D02*
X379476000Y-148082000D01*
X67310000Y-135255000D02*
X68580000Y-133350000D01*
X173990000Y-117602000D02*
X174244000Y-111252000D01*
X104394000Y-185674000D02*
X104394000Y-175768000D01*
D11*
X114762144Y-197358000D02*
G75*
G03*
X114762144Y-197358000I-1147944J0D01*
G01*
D10*
X215646000Y-121412000D02*
X217932000Y-118872000D01*
X90805000Y-145415000D02*
X90805000Y-161925000D01*
X276225000Y-125526800D02*
X279654000Y-121920000D01*
X89535000Y-166370000D02*
X114300000Y-166370000D01*
X313436000Y-128270000D02*
X315976000Y-128270000D01*
X315468000Y-141478000D02*
X315722000Y-144526000D01*
X319405000Y-127000000D02*
X316103000Y-129667000D01*
X229870000Y-189738000D02*
X244348000Y-175768000D01*
X148590000Y-92075000D02*
X148590000Y-78740000D01*
X48260000Y-120650000D02*
X48260000Y-127000000D01*
X293878000Y-195834000D02*
X312674000Y-178562000D01*
X259080000Y-109474000D02*
X245110000Y-109474000D01*
X372364000Y-138430000D02*
X376682000Y-140970000D01*
X215646000Y-194564000D02*
X215900000Y-194310000D01*
X374269000Y-106807000D02*
X381508000Y-87884000D01*
X256590800Y-149352000D02*
X276352000Y-149098000D01*
X313436000Y-160020000D02*
X315214000Y-162052000D01*
X349631000Y-122047000D02*
X349758000Y-125222000D01*
X307340000Y-199644000D02*
X309118000Y-201422000D01*
X65405000Y-150495000D02*
X52070000Y-163195000D01*
X291973000Y-123571000D02*
X290068000Y-121920000D01*
X295402000Y-133858000D02*
X291592000Y-127508000D01*
X167386000Y-82804000D02*
X173990000Y-89154000D01*
X247396000Y-200914000D02*
X254000000Y-194564000D01*
X296672000Y-171450000D02*
X296672000Y-164338000D01*
X304038000Y-127762000D02*
X298704000Y-133858000D01*
X313944000Y-133858000D02*
X313182000Y-130302000D01*
X227076000Y-110744000D02*
X227076000Y-122174000D01*
X190754000Y-124714000D02*
X190754000Y-119380000D01*
X227838000Y-110236000D02*
X234950000Y-110236000D01*
X248158000Y-165100000D02*
X248158000Y-161036000D01*
X202184000Y-107950000D02*
X199898000Y-109728000D01*
X346456000Y-106172000D02*
X340868000Y-100838000D01*
X176022000Y-183642000D02*
X177800000Y-183642000D01*
X348996000Y-96393000D02*
X251460000Y-96393000D01*
X71755000Y-156210000D02*
X66675000Y-161925000D01*
X154940000Y-195580000D02*
X161290000Y-195580000D01*
X166116000Y-83058000D02*
X173228000Y-89916000D01*
X237744000Y-193040000D02*
X241300000Y-196342000D01*
X152654000Y-164084000D02*
X155956000Y-167386000D01*
X66040000Y-126365000D02*
X62230000Y-125730000D01*
X56515000Y-103505000D02*
X56515000Y-114300000D01*
X212598000Y-119888000D02*
X214884000Y-127762000D01*
X226060000Y-111252000D02*
X226060000Y-110744000D01*
X315722000Y-199390000D02*
X315722000Y-197866000D01*
X289560000Y-196596000D02*
X294386000Y-196596000D01*
D11*
X28935544Y-168478200D02*
G75*
G03*
X28935544Y-168478200I-1147944J0D01*
G01*
D10*
X306324000Y-193548000D02*
X308864000Y-196088000D01*
X315722000Y-159258000D02*
X307594000Y-159258000D01*
D11*
X171531144Y-168681400D02*
G75*
G03*
X171531144Y-168681400I-1147944J0D01*
G01*
D10*
X147421600Y-144322800D02*
X160883600Y-149275800D01*
X165862000Y-121158000D02*
X173990000Y-117602000D01*
X250952000Y-166370000D02*
X249174000Y-164592000D01*
X381101600Y-168910000D02*
X390652000Y-168910000D01*
X175514000Y-154178000D02*
X175514000Y-149606000D01*
X248920000Y-179832000D02*
X247396000Y-180086000D01*
D11*
X157916744Y-163118800D02*
G75*
G03*
X157916744Y-163118800I-1147944J0D01*
G01*
D10*
X205486000Y-165354000D02*
X209550000Y-165354000D01*
D11*
X348924744Y-163753800D02*
G75*
G03*
X348924744Y-163753800I-1147944J0D01*
G01*
X387050144Y-192100200D02*
G75*
G03*
X387050144Y-192100200I-1147944J0D01*
G01*
X48087144Y-92430600D02*
G75*
G03*
X48087144Y-92430600I-1147944J0D01*
G01*
D10*
X155956000Y-166370000D02*
X160274000Y-166370000D01*
X43180000Y-95250000D02*
X43180000Y-90170000D01*
X361696000Y-147447000D02*
X365252000Y-151003000D01*
X118745000Y-179705000D02*
X118745000Y-184150000D01*
X173736000Y-146812000D02*
X178562000Y-140716000D01*
X347218000Y-136398000D02*
X350774000Y-132588000D01*
X335788000Y-144907000D02*
X337820000Y-147193000D01*
X310642000Y-153924000D02*
X330454000Y-153670000D01*
X169418000Y-109728000D02*
X168148000Y-108458000D01*
X133350000Y-88900000D02*
X135890000Y-86360000D01*
X313436000Y-110236000D02*
X303276000Y-110236000D01*
X171450000Y-165608000D02*
X167894000Y-165608000D01*
X124460000Y-81280000D02*
X128905000Y-85725000D01*
X302768000Y-126873000D02*
X300863000Y-128397000D01*
X342646000Y-110236000D02*
X339598000Y-107188000D01*
X224028000Y-102616000D02*
X221234000Y-102616000D01*
X209042000Y-109982000D02*
X212344000Y-109982000D01*
X327660000Y-181356000D02*
X327660000Y-167386000D01*
X171196000Y-67437000D02*
X171196000Y-81407000D01*
X177800000Y-195580000D02*
X179705000Y-193040000D01*
X59690000Y-125095000D02*
X59690000Y-110490000D01*
X319786000Y-193294000D02*
X324866000Y-193294000D01*
X314579000Y-125425200D02*
X319024000Y-121666000D01*
X195834000Y-192786000D02*
X196850000Y-193548000D01*
X330962000Y-123698000D02*
X330962000Y-125730000D01*
X279146000Y-171450000D02*
X279146000Y-158496000D01*
X204978000Y-103632000D02*
X205740000Y-106934000D01*
X336296000Y-134620000D02*
X332486000Y-134620000D01*
X155448000Y-143256000D02*
X157734000Y-140970000D01*
X132715000Y-86995000D02*
X128905000Y-86995000D01*
D11*
X81843744Y-87426800D02*
G75*
G03*
X81843744Y-87426800I-1147944J0D01*
G01*
D10*
X360807000Y-159766000D02*
X340106000Y-159766000D01*
X104140000Y-127000000D02*
X104140000Y-152400000D01*
X175260000Y-118364000D02*
X175260000Y-110490000D01*
X99060000Y-189865000D02*
X104140000Y-189865000D01*
X324104000Y-194310000D02*
X324612000Y-194310000D01*
D11*
X148569544Y-144322800D02*
G75*
G03*
X148569544Y-144322800I-1147944J0D01*
G01*
D10*
X29845000Y-132080000D02*
X29845000Y-136525000D01*
X46990000Y-88900000D02*
X50800000Y-91440000D01*
X285877000Y-106273600D02*
X290576000Y-101600000D01*
X191008000Y-160782000D02*
X191008000Y-164084000D01*
X214630000Y-113538000D02*
X215900000Y-113538000D01*
X361950000Y-168554400D02*
X373888000Y-165100000D01*
X48260000Y-99060000D02*
X48260000Y-106680000D01*
X349504000Y-147066000D02*
X352552000Y-147066000D01*
X114300000Y-166370000D02*
X121920000Y-173990000D01*
X195326000Y-127762000D02*
X198120000Y-130302000D01*
X182118000Y-83439000D02*
X179324000Y-86233000D01*
X175260000Y-195580000D02*
X177800000Y-195580000D01*
X116205000Y-159385000D02*
X116205000Y-154305000D01*
X34925000Y-139065000D02*
X37465000Y-141605000D01*
X218821000Y-186182000D02*
X219456000Y-193040000D01*
X151130000Y-78740000D02*
X151130000Y-96520000D01*
X350774000Y-156972000D02*
X284988000Y-156972000D01*
X353949000Y-144653000D02*
X354330000Y-145161000D01*
X136525000Y-140335000D02*
X140970000Y-135890000D01*
D11*
X91140144Y-144602200D02*
G75*
G03*
X91140144Y-144602200I-1147944J0D01*
G01*
D10*
X168656000Y-78740000D02*
X168656000Y-82296000D01*
X390652000Y-152908000D02*
X371348000Y-152908000D01*
X85090000Y-145415000D02*
X87630000Y-147955000D01*
X195326000Y-147828000D02*
X197612000Y-146050000D01*
X266446000Y-156464000D02*
X266446000Y-154432000D01*
X200152000Y-160274000D02*
X195326000Y-154940000D01*
D11*
X215066744Y-163322000D02*
G75*
G03*
X215066744Y-163322000I-1147944J0D01*
G01*
D10*
X308356000Y-147320000D02*
X312166000Y-146558000D01*
X306832000Y-188722000D02*
X306832000Y-192786000D01*
X45720000Y-130733800D02*
X40005000Y-130733800D01*
X308102000Y-180594000D02*
X293370000Y-194818000D01*
X360426000Y-140970000D02*
X360426000Y-128524000D01*
X168656000Y-82296000D02*
X174498000Y-88138000D01*
X168656000Y-67437000D02*
X168656000Y-81407000D01*
X310261000Y-126619000D02*
X302768000Y-126873000D01*
D11*
X86187144Y-111531400D02*
G75*
G03*
X86187144Y-111531400I-1147944J0D01*
G01*
X186390144Y-144500600D02*
G75*
G03*
X186390144Y-144500600I-1147944J0D01*
G01*
D10*
X360934000Y-148209000D02*
X364236000Y-151384000D01*
X35560000Y-108585000D02*
X35560000Y-114935000D01*
X348996000Y-122936000D02*
X348996000Y-125603000D01*
X148590000Y-202184000D02*
X151384000Y-202946000D01*
X334518000Y-107696000D02*
X338836000Y-107696000D01*
X167005000Y-186055000D02*
X163195000Y-189865000D01*
X335534000Y-138684000D02*
X333248000Y-139192000D01*
X341122000Y-114046000D02*
X343154000Y-116078000D01*
X329565000Y-127000000D02*
X319405000Y-127000000D01*
X147320000Y-67437000D02*
X147320000Y-81407000D01*
X347472000Y-142748000D02*
X350266000Y-145288000D01*
X220980000Y-118872000D02*
X226060000Y-113792000D01*
X342138000Y-110998000D02*
X342138000Y-113538000D01*
X385902200Y-192100200D02*
X383286000Y-185420000D01*
D12*
X64884300Y-184251600D02*
X68110100Y-184251600D01*
X68110100Y-184251600D02*
X68110100Y-189407800D01*
X68110100Y-189407800D02*
X64884300Y-189407800D01*
X64884300Y-189407800D02*
X64884300Y-184251600D01*
G36*
X64884300Y-184251600D02*
G01*
X68110100Y-184251600D01*
X68110100Y-189407800D01*
X64884300Y-189407800D01*
X64884300Y-184251600D01*
G37*
D10*
X371348000Y-152908000D02*
X358013000Y-144043400D01*
X223012000Y-199898000D02*
X226822000Y-199898000D01*
X342519000Y-141097000D02*
X338455000Y-144094200D01*
X242646200Y-191693800D02*
X265734800Y-168681400D01*
X309372000Y-122428000D02*
X310896000Y-123444000D01*
X383540000Y-148082000D02*
X390652000Y-152908000D01*
X306578000Y-161036000D02*
X307848000Y-160020000D01*
X366141000Y-115062000D02*
X353314000Y-87757000D01*
X195326000Y-98552000D02*
X185420000Y-89916000D01*
X315722000Y-197866000D02*
X319532000Y-194310000D01*
X248158000Y-161036000D02*
X251460000Y-158496000D01*
X64135000Y-92075000D02*
X71120000Y-92075000D01*
X295402000Y-150622000D02*
X295402000Y-153924000D01*
X106680000Y-127000000D02*
X106680000Y-152400000D01*
D11*
X348416744Y-130911600D02*
G75*
G03*
X348416744Y-130911600I-1147944J0D01*
G01*
X33659944Y-163703000D02*
G75*
G03*
X33659944Y-163703000I-1147944J0D01*
G01*
D10*
X195834000Y-97536000D02*
X186690000Y-89154000D01*
D11*
X253319144Y-87325200D02*
G75*
G03*
X253319144Y-87325200I-1147944J0D01*
G01*
D10*
X259334000Y-197358000D02*
X259334000Y-200406000D01*
X301244000Y-107442000D02*
X304038000Y-109474000D01*
X223012000Y-156210000D02*
X234188000Y-156210000D01*
X198120000Y-130302000D02*
X205232000Y-130302000D01*
X280797000Y-144576800D02*
X284480000Y-141224000D01*
D12*
G36*
X252196600Y-162052000D02*
G01*
X253415800Y-163322000D01*
X253949200Y-163931600D01*
X253847600Y-164617400D01*
X254000000Y-164896800D01*
X254101600Y-165379400D01*
X253898400Y-165862000D01*
X253593600Y-165989000D01*
X253060200Y-165862000D01*
X252882400Y-165684200D01*
X252476000Y-165633400D01*
X252145800Y-165608000D01*
X251180600Y-164693600D01*
X250240800Y-163677600D01*
X249961400Y-163296600D01*
X250469400Y-162661600D01*
X251333000Y-161848800D01*
X251612400Y-161721800D01*
X252196600Y-162052000D01*
G37*
X252196600Y-162052000D02*
X253415800Y-163322000D01*
X253949200Y-163931600D01*
X253847600Y-164617400D01*
X254000000Y-164896800D01*
X254101600Y-165379400D01*
X253898400Y-165862000D01*
X253593600Y-165989000D01*
X253060200Y-165862000D01*
X252882400Y-165684200D01*
X252476000Y-165633400D01*
X252145800Y-165608000D01*
X251180600Y-164693600D01*
X250240800Y-163677600D01*
X249961400Y-163296600D01*
X250469400Y-162661600D01*
X251333000Y-161848800D01*
X251612400Y-161721800D01*
X252196600Y-162052000D01*
D10*
X130810000Y-107950000D02*
X134620000Y-111760000D01*
X172974000Y-145034000D02*
X177800000Y-139192000D01*
X66040000Y-107315000D02*
X69850000Y-111125000D01*
X56515000Y-149225000D02*
X47625000Y-149225000D01*
X299339000Y-147701000D02*
X297307000Y-145669000D01*
X328676000Y-110236000D02*
X323088000Y-110236000D01*
X30480000Y-177800000D02*
X26670000Y-177800000D01*
X171196000Y-81788000D02*
X175387000Y-86233000D01*
X274066000Y-128524000D02*
X272288000Y-127254000D01*
X152400000Y-189230000D02*
X152400000Y-192405000D01*
X184962800Y-111709200D02*
X188722000Y-123952000D01*
X169926000Y-67437000D02*
X169926000Y-81407000D01*
X236220000Y-167386000D02*
X232689400Y-163245800D01*
X185166000Y-90932000D02*
X194818000Y-99568000D01*
X137160000Y-115570000D02*
X142240000Y-110490000D01*
X357124000Y-131826000D02*
X357124000Y-136398000D01*
X147574000Y-134112000D02*
X171958000Y-134112000D01*
X286258000Y-202184000D02*
X288798000Y-202692000D01*
X299948600Y-112014000D02*
X313944000Y-112014000D01*
X189738000Y-109474000D02*
X192278000Y-109474000D01*
D11*
X296016544Y-149707600D02*
G75*
G03*
X296016544Y-149707600I-1147944J0D01*
G01*
D10*
X137160000Y-67437000D02*
X137160000Y-81407000D01*
X238252000Y-189230000D02*
X238252000Y-192278000D01*
X327152000Y-118872000D02*
X336804000Y-108712000D01*
X233426000Y-189484000D02*
X232918000Y-191262000D01*
X271018000Y-177546000D02*
X267970000Y-177546000D01*
X286258000Y-175006000D02*
X283210000Y-175006000D01*
X249682000Y-170688000D02*
X249682000Y-166878000D01*
X50800000Y-111125000D02*
X50800000Y-115570000D01*
X237236000Y-194564000D02*
X240284000Y-197358000D01*
X381304800Y-144653000D02*
X376301000Y-127000000D01*
X363220000Y-155956000D02*
X360426000Y-158750000D01*
X36830000Y-182880000D02*
X43180000Y-182880000D01*
X23622000Y-99568000D02*
X23622000Y-174244000D01*
X243332000Y-108204000D02*
X239014000Y-108204000D01*
X344678000Y-141859000D02*
X353314000Y-141859000D01*
D11*
X53217944Y-106375200D02*
G75*
G03*
X53217944Y-106375200I-1147944J0D01*
G01*
D10*
X64770000Y-181610000D02*
X46990000Y-181610000D01*
X167386000Y-78740000D02*
X167386000Y-82804000D01*
X249174000Y-161544000D02*
X251714000Y-159512000D01*
X35560000Y-119380000D02*
X35560000Y-125730000D01*
X146812000Y-147574000D02*
X150368000Y-147574000D01*
D11*
X210824944Y-105943400D02*
G75*
G03*
X210824944Y-105943400I-1147944J0D01*
G01*
D10*
X319786000Y-108458000D02*
X322834000Y-111252000D01*
X355092000Y-84709000D02*
X351028000Y-82296000D01*
D11*
X47655344Y-130733800D02*
G75*
G03*
X47655344Y-130733800I-1147944J0D01*
G01*
D10*
X232587800Y-130759200D02*
X220218000Y-143764000D01*
X335026000Y-145288000D02*
X337820000Y-148336000D01*
X353822000Y-116078000D02*
X376250200Y-149860000D01*
D11*
X370362344Y-111277400D02*
G75*
G03*
X370362344Y-111277400I-1147944J0D01*
G01*
D10*
X104140000Y-152146000D02*
X104140000Y-159004000D01*
X363220000Y-151892000D02*
X363220000Y-155956000D01*
X261747000Y-111607600D02*
X264414000Y-115189000D01*
X81280000Y-87630000D02*
X52019200Y-87503000D01*
X27940000Y-148590000D02*
X25400000Y-152400000D01*
X180594000Y-109474000D02*
X156210000Y-84836000D01*
X162306000Y-78740000D02*
X162306000Y-83566000D01*
X173736000Y-67437000D02*
X173736000Y-81407000D01*
X36830000Y-184150000D02*
X30480000Y-176530000D01*
X268986000Y-167132000D02*
X267462000Y-165608000D01*
X48895000Y-121920000D02*
X48895000Y-126365000D01*
X331470000Y-195326000D02*
X356108000Y-166624000D01*
X169926000Y-78740000D02*
X169926000Y-82042000D01*
X113030000Y-87630000D02*
X109220000Y-95250000D01*
X133350000Y-67437000D02*
X133350000Y-81407000D01*
X137160000Y-86360000D02*
X133350000Y-90170000D01*
X109220000Y-95250000D02*
X100330000Y-95250000D01*
X153670000Y-67437000D02*
X153670000Y-81407000D01*
X285242000Y-194564000D02*
X288290000Y-197612000D01*
X69850000Y-118745000D02*
X67310000Y-121285000D01*
X221996000Y-109220000D02*
X214630000Y-116332000D01*
X138430000Y-78740000D02*
X138430000Y-87630000D01*
X203200000Y-148590000D02*
X203200000Y-153416000D01*
X184150000Y-129032000D02*
X184150000Y-132842000D01*
D11*
X91089344Y-125399800D02*
G75*
G03*
X91089344Y-125399800I-1147944J0D01*
G01*
D10*
X69850000Y-147955000D02*
X67310000Y-146050000D01*
X152654000Y-151892000D02*
X152654000Y-164084000D01*
X176784000Y-96774000D02*
X175260000Y-94996000D01*
X102870000Y-121920000D02*
X102870000Y-148590000D01*
X23622000Y-99568000D02*
X29718000Y-94488000D01*
X307594000Y-157861000D02*
X351536000Y-157861000D01*
X102870000Y-107950000D02*
X102870000Y-121920000D01*
X132080000Y-123825000D02*
X135255000Y-120650000D01*
X171196000Y-78740000D02*
X171196000Y-81788000D01*
X148844000Y-135890000D02*
X144272000Y-140208000D01*
X30480000Y-175260000D02*
X36830000Y-182880000D01*
X303276000Y-110236000D02*
X300990000Y-108458000D01*
D13*
%TO.P,REF\u002A\u002A,1*%
%TO.N,N/C*%
X133350000Y-67310000D03*
D14*
%TO.P,REF\u002A\u002A,2*%
X134620000Y-67310000D03*
%TO.P,REF\u002A\u002A,3*%
X135890000Y-67310000D03*
%TO.P,REF\u002A\u002A,4*%
X137160000Y-67310000D03*
%TO.P,REF\u002A\u002A,5*%
X138430000Y-67310000D03*
%TO.P,REF\u002A\u002A,6*%
X139700000Y-67310000D03*
%TD*%
D13*
%TO.P,REF\u002A\u002A,1*%
%TO.N,N/C*%
X143510000Y-67310000D03*
D14*
%TO.P,REF\u002A\u002A,2*%
X144780000Y-67310000D03*
%TO.P,REF\u002A\u002A,3*%
X146050000Y-67310000D03*
%TO.P,REF\u002A\u002A,4*%
X147320000Y-67310000D03*
%TO.P,REF\u002A\u002A,5*%
X148590000Y-67310000D03*
%TO.P,REF\u002A\u002A,6*%
X149860000Y-67310000D03*
%TO.P,REF\u002A\u002A,7*%
X151130000Y-67310000D03*
%TO.P,REF\u002A\u002A,8*%
X152400000Y-67310000D03*
%TO.P,REF\u002A\u002A,9*%
X153670000Y-67310000D03*
%TO.P,REF\u002A\u002A,10*%
X154940000Y-67310000D03*
%TO.P,REF\u002A\u002A,11*%
X156210000Y-67310000D03*
%TO.P,REF\u002A\u002A,12*%
X157480000Y-67310000D03*
%TD*%
D13*
%TO.P,REF\u002A\u002A,1*%
%TO.N,N/C*%
X161036000Y-67310000D03*
D14*
%TO.P,REF\u002A\u002A,2*%
X162306000Y-67310000D03*
%TO.P,REF\u002A\u002A,3*%
X163576000Y-67310000D03*
%TO.P,REF\u002A\u002A,4*%
X164846000Y-67310000D03*
%TO.P,REF\u002A\u002A,5*%
X166116000Y-67310000D03*
%TO.P,REF\u002A\u002A,6*%
X167386000Y-67310000D03*
%TO.P,REF\u002A\u002A,7*%
X168656000Y-67310000D03*
%TO.P,REF\u002A\u002A,8*%
X169926000Y-67310000D03*
%TO.P,REF\u002A\u002A,9*%
X171196000Y-67310000D03*
%TO.P,REF\u002A\u002A,10*%
X172466000Y-67310000D03*
%TO.P,REF\u002A\u002A,11*%
X173736000Y-67310000D03*
%TD*%
D15*
%TO.N,*%
X34798000Y-157480000D03*
X268478000Y-157226000D03*
X104394000Y-175768000D03*
X268478000Y-136398000D03*
X147828000Y-100076000D03*
X104140000Y-159258000D03*
X143002000Y-180340000D03*
X187452000Y-100076000D03*
X42672000Y-157480000D03*
X158750000Y-118618000D03*
X198120000Y-118618000D03*
X106680000Y-159258000D03*
X35560000Y-119126000D03*
X35560000Y-115062000D03*
X109220000Y-175768000D03*
X177292000Y-180340000D03*
%TD*%
M02*
