%TF.GenerationSoftware,KiCad,Pcbnew,(6.0.11)*%
%TF.CreationDate,2023-11-05T18:47:01-08:00*%
%TF.ProjectId,keyboard,6b657962-6f61-4726-942e-6b696361645f,rev?*%
%TF.SameCoordinates,Original*%
%TF.FileFunction,Soldermask,Top*%
%TF.FilePolarity,Negative*%
%FSLAX46Y46*%
G04 Gerber Fmt 4.6, Leading zero omitted, Abs format (unit mm)*
G04 Created by KiCad (PCBNEW (6.0.11)) date 2023-11-05 18:47:01*
%MOMM*%
%LPD*%
G01*
G04 APERTURE LIST*
%ADD10C,0.100000*%
%ADD11R,1.000000X1.000000*%
%ADD12O,1.000000X1.000000*%
G04 APERTURE END LIST*
D10*
G36*
X391922000Y-80772000D02*
G01*
X393446000Y-81788000D01*
X393446000Y-202692000D01*
X392176000Y-203962000D01*
X22098000Y-204216000D01*
X20574000Y-202438000D01*
X20574000Y-81534000D01*
X22606000Y-80518000D01*
X391922000Y-80772000D01*
G37*
X391922000Y-80772000D02*
X393446000Y-81788000D01*
X393446000Y-202692000D01*
X392176000Y-203962000D01*
X22098000Y-204216000D01*
X20574000Y-202438000D01*
X20574000Y-81534000D01*
X22606000Y-80518000D01*
X391922000Y-80772000D01*
D11*
%TO.C,REF\u002A\u002A*%
X133350000Y-67310000D03*
D12*
X134620000Y-67310000D03*
X135890000Y-67310000D03*
X137160000Y-67310000D03*
X138430000Y-67310000D03*
X139700000Y-67310000D03*
%TD*%
D11*
%TO.C,REF\u002A\u002A*%
X143510000Y-67310000D03*
D12*
X144780000Y-67310000D03*
X146050000Y-67310000D03*
X147320000Y-67310000D03*
X148590000Y-67310000D03*
X149860000Y-67310000D03*
X151130000Y-67310000D03*
X152400000Y-67310000D03*
X153670000Y-67310000D03*
X154940000Y-67310000D03*
X156210000Y-67310000D03*
X157480000Y-67310000D03*
%TD*%
D11*
%TO.C,REF\u002A\u002A*%
X161036000Y-67310000D03*
D12*
X162306000Y-67310000D03*
X163576000Y-67310000D03*
X164846000Y-67310000D03*
X166116000Y-67310000D03*
X167386000Y-67310000D03*
X168656000Y-67310000D03*
X169926000Y-67310000D03*
X171196000Y-67310000D03*
X172466000Y-67310000D03*
X173736000Y-67310000D03*
%TD*%
M02*
