M48
; DRILL file {KiCad (6.0.11)} date Thu Feb 16 20:08:19 2023
; FORMAT={-:-/ absolute / inch / decimal}
; #@! TF.CreationDate,2023-02-16T20:08:19-08:00
; #@! TF.GenerationSoftware,Kicad,Pcbnew,(6.0.11)
; #@! TF.FileFunction,Plated,1,2,PTH
FMAT,2
INCH
; #@! TA.AperFunction,Plated,PTH,ComponentDrill
T1C0.0256
; #@! TA.AperFunction,Plated,PTH,ComponentDrill
T2C0.0394
%
G90
G05
T1
X5.25Y-2.66
X5.3Y-2.66
X5.35Y-2.66
X5.4Y-2.66
X5.45Y-2.66
X5.5Y-2.66
X5.55Y-2.66
X5.6Y-2.66
X5.65Y-2.66
X5.7Y-2.66
X5.75Y-2.66
X5.89Y-2.66
X5.94Y-2.66
X5.99Y-2.66
X6.04Y-2.66
X6.09Y-2.66
X6.14Y-2.66
X6.19Y-2.66
X6.24Y-2.66
X6.29Y-2.66
X6.34Y-2.66
X6.39Y-2.66
X6.44Y-2.66
X6.59Y-2.66
X6.64Y-2.66
X6.69Y-2.66
X6.74Y-2.66
X6.79Y-2.66
X6.84Y-2.66
T2
X5.19Y-2.85
X5.24Y-2.95
X5.29Y-2.85
X5.34Y-2.95
X5.39Y-2.85
X5.44Y-2.95
X5.49Y-2.85
X5.54Y-2.95
X5.59Y-2.85
X5.64Y-2.95
X5.69Y-2.85
X5.74Y-2.95
X5.89Y-2.85
X5.94Y-2.95
X5.99Y-2.85
X6.04Y-2.95
X6.09Y-2.85
X6.14Y-2.95
X6.19Y-2.85
X6.24Y-2.95
X6.29Y-2.85
X6.34Y-2.95
X6.39Y-2.85
X6.44Y-2.95
X6.59Y-2.85
X6.64Y-2.95
X6.69Y-2.85
X6.74Y-2.95
X6.79Y-2.85
X6.84Y-2.95
T0
M30
