%TF.GenerationSoftware,KiCad,Pcbnew,(6.0.11)*%
%TF.CreationDate,2023-02-16T20:08:17-08:00*%
%TF.ProjectId,keyboard,6b657962-6f61-4726-942e-6b696361645f,rev?*%
%TF.SameCoordinates,Original*%
%TF.FileFunction,Copper,L1,Top*%
%TF.FilePolarity,Positive*%
%FSLAX46Y46*%
G04 Gerber Fmt 4.6, Leading zero omitted, Abs format (unit mm)*
G04 Created by KiCad (PCBNEW (6.0.11)) date 2023-02-16 20:08:17*
%MOMM*%
%LPD*%
G01*
G04 APERTURE LIST*
%TA.AperFunction,ComponentPad*%
%ADD10R,1.000000X1.000000*%
%TD*%
%TA.AperFunction,ComponentPad*%
%ADD11O,1.000000X1.000000*%
%TD*%
%TA.AperFunction,ComponentPad*%
%ADD12R,1.700000X1.700000*%
%TD*%
%TA.AperFunction,ComponentPad*%
%ADD13O,1.700000X1.700000*%
%TD*%
%TA.AperFunction,Conductor*%
%ADD14C,0.400000*%
%TD*%
G04 APERTURE END LIST*
D10*
%TO.P,REF\u002A\u002A,1*%
%TO.N,N/C*%
X173736000Y-67564000D03*
D11*
%TO.P,REF\u002A\u002A,2*%
X172466000Y-67564000D03*
%TO.P,REF\u002A\u002A,3*%
X171196000Y-67564000D03*
%TO.P,REF\u002A\u002A,4*%
X169926000Y-67564000D03*
%TO.P,REF\u002A\u002A,5*%
X168656000Y-67564000D03*
%TO.P,REF\u002A\u002A,6*%
X167386000Y-67564000D03*
%TD*%
D12*
%TO.P,REF\u002A\u002A,1*%
%TO.N,N/C*%
X149606000Y-72390000D03*
D13*
%TO.P,REF\u002A\u002A,2*%
X152146000Y-72390000D03*
%TO.P,REF\u002A\u002A,3*%
X154686000Y-72390000D03*
%TO.P,REF\u002A\u002A,4*%
X157226000Y-72390000D03*
%TO.P,REF\u002A\u002A,5*%
X159766000Y-72390000D03*
%TO.P,REF\u002A\u002A,6*%
X162306000Y-72390000D03*
%TD*%
D10*
%TO.P,REF\u002A\u002A,1*%
%TO.N,N/C*%
X163576000Y-67564000D03*
D11*
%TO.P,REF\u002A\u002A,2*%
X162306000Y-67564000D03*
%TO.P,REF\u002A\u002A,3*%
X161036000Y-67564000D03*
%TO.P,REF\u002A\u002A,4*%
X159766000Y-67564000D03*
%TO.P,REF\u002A\u002A,5*%
X158496000Y-67564000D03*
%TO.P,REF\u002A\u002A,6*%
X157226000Y-67564000D03*
%TO.P,REF\u002A\u002A,7*%
X155956000Y-67564000D03*
%TO.P,REF\u002A\u002A,8*%
X154686000Y-67564000D03*
%TO.P,REF\u002A\u002A,9*%
X153416000Y-67564000D03*
%TO.P,REF\u002A\u002A,10*%
X152146000Y-67564000D03*
%TO.P,REF\u002A\u002A,11*%
X150876000Y-67564000D03*
%TO.P,REF\u002A\u002A,12*%
X149606000Y-67564000D03*
%TD*%
D12*
%TO.P,REF\u002A\u002A,1*%
%TO.N,N/C*%
X133096000Y-74930000D03*
D13*
%TO.P,REF\u002A\u002A,2*%
X135636000Y-74930000D03*
%TO.P,REF\u002A\u002A,3*%
X138176000Y-74930000D03*
%TO.P,REF\u002A\u002A,4*%
X140716000Y-74930000D03*
%TO.P,REF\u002A\u002A,5*%
X143256000Y-74930000D03*
%TO.P,REF\u002A\u002A,6*%
X145796000Y-74930000D03*
%TD*%
D12*
%TO.P,REF\u002A\u002A,1*%
%TO.N,N/C*%
X131826000Y-72390000D03*
D13*
%TO.P,REF\u002A\u002A,2*%
X134366000Y-72390000D03*
%TO.P,REF\u002A\u002A,3*%
X136906000Y-72390000D03*
%TO.P,REF\u002A\u002A,4*%
X139446000Y-72390000D03*
%TO.P,REF\u002A\u002A,5*%
X141986000Y-72390000D03*
%TO.P,REF\u002A\u002A,6*%
X144526000Y-72390000D03*
%TD*%
D10*
%TO.P,REF\u002A\u002A,1*%
%TO.N,N/C*%
X146050000Y-67564000D03*
D11*
%TO.P,REF\u002A\u002A,2*%
X144780000Y-67564000D03*
%TO.P,REF\u002A\u002A,3*%
X143510000Y-67564000D03*
%TO.P,REF\u002A\u002A,4*%
X142240000Y-67564000D03*
%TO.P,REF\u002A\u002A,5*%
X140970000Y-67564000D03*
%TO.P,REF\u002A\u002A,6*%
X139700000Y-67564000D03*
%TO.P,REF\u002A\u002A,7*%
X138430000Y-67564000D03*
%TO.P,REF\u002A\u002A,8*%
X137160000Y-67564000D03*
%TO.P,REF\u002A\u002A,9*%
X135890000Y-67564000D03*
%TO.P,REF\u002A\u002A,10*%
X134620000Y-67564000D03*
%TO.P,REF\u002A\u002A,11*%
X133350000Y-67564000D03*
%TD*%
D12*
%TO.P,REF\u002A\u002A,1*%
%TO.N,N/C*%
X167386000Y-72390000D03*
D13*
%TO.P,REF\u002A\u002A,2*%
X169926000Y-72390000D03*
%TO.P,REF\u002A\u002A,3*%
X172466000Y-72390000D03*
%TD*%
D12*
%TO.P,REF\u002A\u002A,1*%
%TO.N,N/C*%
X150876000Y-74930000D03*
D13*
%TO.P,REF\u002A\u002A,2*%
X153416000Y-74930000D03*
%TO.P,REF\u002A\u002A,3*%
X155956000Y-74930000D03*
%TO.P,REF\u002A\u002A,4*%
X158496000Y-74930000D03*
%TO.P,REF\u002A\u002A,5*%
X161036000Y-74930000D03*
%TO.P,REF\u002A\u002A,6*%
X163576000Y-74930000D03*
%TD*%
D12*
%TO.P,REF\u002A\u002A,1*%
%TO.N,N/C*%
X168656000Y-74930000D03*
D13*
%TO.P,REF\u002A\u002A,2*%
X171196000Y-74930000D03*
%TO.P,REF\u002A\u002A,3*%
X173736000Y-74930000D03*
%TD*%
D14*
%TO.N,*%
X150876000Y-74930000D02*
X150876000Y-67564000D01*
X143256000Y-67818000D02*
X143510000Y-67564000D01*
X161036000Y-74930000D02*
X161036000Y-67564000D01*
X135636000Y-74930000D02*
X135636000Y-67818000D01*
X173736000Y-74930000D02*
X173736000Y-67564000D01*
X168656000Y-74930000D02*
X168656000Y-67564000D01*
X155956000Y-74930000D02*
X155956000Y-67564000D01*
X163576000Y-74930000D02*
X163576000Y-67564000D01*
X145796000Y-67818000D02*
X146050000Y-67564000D01*
X140716000Y-67818000D02*
X140970000Y-67564000D01*
X145796000Y-74930000D02*
X145796000Y-67818000D01*
X138176000Y-67818000D02*
X138430000Y-67564000D01*
X171196000Y-74930000D02*
X171196000Y-67564000D01*
X138176000Y-74930000D02*
X138176000Y-67818000D01*
X133096000Y-74930000D02*
X133096000Y-67818000D01*
X133096000Y-67818000D02*
X133350000Y-67564000D01*
X158496000Y-74930000D02*
X158496000Y-67564000D01*
X140716000Y-74930000D02*
X140716000Y-67818000D01*
X143256000Y-74930000D02*
X143256000Y-67818000D01*
X135636000Y-67818000D02*
X135890000Y-67564000D01*
X153416000Y-74930000D02*
X153416000Y-67564000D01*
%TD*%
M02*
