%TF.GenerationSoftware,KiCad,Pcbnew,(6.0.11)*%
%TF.CreationDate,2023-02-16T20:08:17-08:00*%
%TF.ProjectId,keyboard,6b657962-6f61-4726-942e-6b696361645f,rev?*%
%TF.SameCoordinates,Original*%
%TF.FileFunction,Soldermask,Bot*%
%TF.FilePolarity,Negative*%
%FSLAX46Y46*%
G04 Gerber Fmt 4.6, Leading zero omitted, Abs format (unit mm)*
G04 Created by KiCad (PCBNEW (6.0.11)) date 2023-02-16 20:08:17*
%MOMM*%
%LPD*%
G01*
G04 APERTURE LIST*
%ADD10R,1.000000X1.000000*%
%ADD11O,1.000000X1.000000*%
%ADD12R,1.700000X1.700000*%
%ADD13O,1.700000X1.700000*%
G04 APERTURE END LIST*
D10*
%TO.C,REF\u002A\u002A*%
X173736000Y-67564000D03*
D11*
X172466000Y-67564000D03*
X171196000Y-67564000D03*
X169926000Y-67564000D03*
X168656000Y-67564000D03*
X167386000Y-67564000D03*
%TD*%
D12*
%TO.C,REF\u002A\u002A*%
X149606000Y-72390000D03*
D13*
X152146000Y-72390000D03*
X154686000Y-72390000D03*
X157226000Y-72390000D03*
X159766000Y-72390000D03*
X162306000Y-72390000D03*
%TD*%
D10*
%TO.C,REF\u002A\u002A*%
X163576000Y-67564000D03*
D11*
X162306000Y-67564000D03*
X161036000Y-67564000D03*
X159766000Y-67564000D03*
X158496000Y-67564000D03*
X157226000Y-67564000D03*
X155956000Y-67564000D03*
X154686000Y-67564000D03*
X153416000Y-67564000D03*
X152146000Y-67564000D03*
X150876000Y-67564000D03*
X149606000Y-67564000D03*
%TD*%
D12*
%TO.C,REF\u002A\u002A*%
X133096000Y-74930000D03*
D13*
X135636000Y-74930000D03*
X138176000Y-74930000D03*
X140716000Y-74930000D03*
X143256000Y-74930000D03*
X145796000Y-74930000D03*
%TD*%
D12*
%TO.C,REF\u002A\u002A*%
X131826000Y-72390000D03*
D13*
X134366000Y-72390000D03*
X136906000Y-72390000D03*
X139446000Y-72390000D03*
X141986000Y-72390000D03*
X144526000Y-72390000D03*
%TD*%
D10*
%TO.C,REF\u002A\u002A*%
X146050000Y-67564000D03*
D11*
X144780000Y-67564000D03*
X143510000Y-67564000D03*
X142240000Y-67564000D03*
X140970000Y-67564000D03*
X139700000Y-67564000D03*
X138430000Y-67564000D03*
X137160000Y-67564000D03*
X135890000Y-67564000D03*
X134620000Y-67564000D03*
X133350000Y-67564000D03*
%TD*%
D12*
%TO.C,REF\u002A\u002A*%
X167386000Y-72390000D03*
D13*
X169926000Y-72390000D03*
X172466000Y-72390000D03*
%TD*%
D12*
%TO.C,REF\u002A\u002A*%
X150876000Y-74930000D03*
D13*
X153416000Y-74930000D03*
X155956000Y-74930000D03*
X158496000Y-74930000D03*
X161036000Y-74930000D03*
X163576000Y-74930000D03*
%TD*%
D12*
%TO.C,REF\u002A\u002A*%
X168656000Y-74930000D03*
D13*
X171196000Y-74930000D03*
X173736000Y-74930000D03*
%TD*%
M02*
